STARTFONT 2.1
COMMENT
COMMENT Converted from OpenType font "Patriot-Bold.otf" by "otf2bdf 3.0".
COMMENT
FONT -FreeType-Patriot Bold-Medium-R-Normal--50-360-100-100-P-250-ISO10646-1
SIZE 36 100 100
FONTBOUNDINGBOX 88 65 -21 -14
STARTPROPERTIES 19
FOUNDRY "FreeType"
FAMILY_NAME "Patriot Bold"
WEIGHT_NAME "Medium"
SLANT "R"
SETWIDTH_NAME "Normal"
ADD_STYLE_NAME ""
PIXEL_SIZE 50
POINT_SIZE 360
RESOLUTION_X 100
RESOLUTION_Y 100
SPACING "P"
AVERAGE_WIDTH 250
CHARSET_REGISTRY "ISO10646"
CHARSET_ENCODING "1"
FONT_ASCENT 50
FONT_DESCENT 10
COPYRIGHT "Copyright © 2020 by Behalf Studio. All rights reserved."
_OTF_FONTFILE "Patriot-Bold.otf"
_OTF_PSNAME "Patriot-Bold"
ENDPROPERTIES
CHARS 426
STARTCHAR 0020
ENCODING 32
SWIDTH 380 0
DWIDTH 19 0
BBX 0 0 0 0
BITMAP
ENDCHAR
STARTCHAR 0021
ENCODING 33
SWIDTH 280 0
DWIDTH 14 0
BBX 8 36 3 -1
BITMAP
7E
7E
7E
7E
7E
7E
7E
7E
7E
7E
7E
7E
7E
7E
7E
7E
7E
7E
7E
7E
7E
7E
7E
00
00
00
00
3C
7E
FF
FF
FF
FF
FF
7E
18
ENDCHAR
STARTCHAR 0022
ENCODING 34
SWIDTH 340 0
DWIDTH 17 0
BBX 12 11 3 24
BITMAP
F8F0
F8F0
F8F0
F8F0
F8F0
F8F0
F8F0
F8F0
F8F0
F8F0
F8F0
ENDCHAR
STARTCHAR 0023
ENCODING 35
SWIDTH 640 0
DWIDTH 32 0
BBX 27 35 3 0
BITMAP
01F81F00
01F83F00
01F83F00
01F83F00
01F83F00
01F83F00
01F03F00
03F03E00
03F07E00
03F07E00
7FFFFFE0
7FFFFFE0
7FFFFFE0
7FFFFFE0
7FFFFFE0
07E0FC00
07E0FC00
07E0FC00
07E0FC00
07E0FC00
07C0FC00
FFFFFFC0
FFFFFFC0
FFFFFFC0
FFFFFFC0
0FC1F800
0FC1F800
0F81F800
1F81F000
1F83F000
1F83F000
1F83F000
1F83F000
1F83F000
1F03F000
ENDCHAR
STARTCHAR 0024
ENCODING 36
SWIDTH 560 0
DWIDTH 28 0
BBX 23 45 3 -5
BITMAP
007C00
007C00
007C00
007C00
00FC00
03FF80
0FFFC0
1FFFF0
3FFFF0
3FFFF8
7FFFF8
7FCFFC
7F83FC
7F81F0
7F8180
7F8000
7FC000
3FE000
3FF800
1FFE00
0FFF00
07FFC0
03FFE0
01FFF0
007FF8
001FF8
000FFC
0007FC
0003FE
0201FE
1E01FE
FF01FE
FF83FE
FFE7FC
7FFFFC
7FFFFC
3FFFF8
1FFFF0
0FFFE0
03FF80
007C00
007C00
007C00
007C00
007C00
ENDCHAR
STARTCHAR 0025
ENCODING 37
SWIDTH 940 0
DWIDTH 47 0
BBX 42 37 3 -1
BITMAP
03F000000000
0FFC0003F000
1FFF0007E000
3FFF0007C000
7FFF800FC000
FF3FC01F8000
FC0FC03F0000
FC0FC03E0000
FC0FC07E0000
FC0FC0FC0000
FC0FC0F80000
FE1FC1F80000
7FFF83F00000
7FFF83E00000
3FFF07E00000
1FFE0FC00000
07FC1F800000
00401F000000
00003F000000
00007E03E000
00007C0FFC00
0000FC1FFE00
0001F83FFF00
0001F07FFF80
0003F0FFFF80
0007E0FE1FC0
000FC0FC0FC0
000F80FC0FC0
001F80FC0FC0
003F00FC0FC0
003E00FE1FC0
007E00FFFF80
00FC007FFF80
00F8003FFF00
01F8001FFE00
03F0000FFC00
00000001E000
ENDCHAR
STARTCHAR 0026
ENCODING 38
SWIDTH 680 0
DWIDTH 34 0
BBX 29 37 3 -1
BITMAP
003C0000
01FFC000
07FFF000
0FFFF800
1FFFFC00
3FFFFE00
3FFFFE00
7FE3FC00
7F80F800
7F807000
7F002000
7F000000
7F000000
7F800000
3FC00000
3FFFFFF8
1FFFFFF8
1FFFFFF8
1FFFFFF8
3FFFFFF8
7FFFFFF8
7FFFFFF8
FF803FC0
FF003FC0
FF003FC0
FF003FC0
FF007F80
FF007F80
FF80FF80
FFE3FF00
7FFFFF00
7FFFFE00
3FFFFC00
1FFFF800
0FFFF000
03FFC000
007E0000
ENDCHAR
STARTCHAR 0027
ENCODING 39
SWIDTH 200 0
DWIDTH 10 0
BBX 4 11 3 24
BITMAP
F0
F0
F0
F0
F0
F0
F0
F0
F0
F0
F0
ENDCHAR
STARTCHAR 0028
ENCODING 40
SWIDTH 360 0
DWIDTH 18 0
BBX 12 47 3 -7
BITMAP
00C0
01E0
03F0
03F0
07E0
07E0
0FC0
0F80
1F80
1F00
3F00
3E00
3E00
7E00
7C00
7C00
FC00
FC00
F800
F800
F800
F800
F800
F800
F800
F800
F800
F800
F800
FC00
FC00
7C00
7C00
7E00
3E00
3E00
3F00
1F00
1F80
1F80
0FC0
07C0
07E0
03F0
03F0
01E0
00C0
ENDCHAR
STARTCHAR 0029
ENCODING 41
SWIDTH 360 0
DWIDTH 18 0
BBX 12 47 3 -7
BITMAP
1800
7800
FC00
FE00
7E00
3F00
3F00
1F80
1F80
0FC0
07C0
07C0
07E0
03E0
03E0
03F0
01F0
01F0
01F0
01F0
01F0
01F0
01F0
01F0
01F0
01F0
01F0
01F0
01F0
01F0
01F0
03F0
03E0
03E0
07E0
07C0
07C0
0FC0
0F80
1F80
3F00
3F00
7E00
FE00
FC00
7800
1800
ENDCHAR
STARTCHAR 002A
ENCODING 42
SWIDTH 460 0
DWIDTH 23 0
BBX 17 17 3 18
BITMAP
01C000
03E000
03E000
03E000
03E000
7BEF80
FDDF80
FFFF80
FFFF80
7FFF00
03E000
0FF800
1F7C00
3F7E00
3F7E00
3E3E00
1C1C00
ENDCHAR
STARTCHAR 002B
ENCODING 43
SWIDTH 580 0
DWIDTH 29 0
BBX 23 23 3 5
BITMAP
007E00
007E00
007E00
007E00
007E00
007E00
007E00
007E00
007E00
FFFFFE
FFFFFE
FFFFFE
FFFFFE
FFFFFE
007E00
007E00
007E00
007E00
007E00
007E00
007E00
007E00
007E00
ENDCHAR
STARTCHAR 002C
ENCODING 44
SWIDTH 280 0
DWIDTH 14 0
BBX 8 10 3 -6
BITMAP
1F
3F
3E
3E
7E
7C
7C
78
F8
F0
ENDCHAR
STARTCHAR 002D
ENCODING 45
SWIDTH 440 0
DWIDTH 22 0
BBX 17 5 3 9
BITMAP
FFFF80
FFFF80
FFFF80
FFFF80
FFFF80
ENDCHAR
STARTCHAR 002E
ENCODING 46
SWIDTH 280 0
DWIDTH 14 0
BBX 8 9 3 -1
BITMAP
3C
7E
FF
FF
FF
FF
FF
7E
18
ENDCHAR
STARTCHAR 002F
ENCODING 47
SWIDTH 440 0
DWIDTH 22 0
BBX 16 37 3 -1
BITMAP
003F
003F
003F
007E
007E
007E
007C
00FC
00FC
00FC
01F8
01F8
01F8
01F0
03F0
03F0
03F0
07E0
07E0
07E0
07C0
0FC0
0FC0
0FC0
1F80
1F80
1F80
1F00
3F00
3F00
3F00
7E00
7E00
7E00
FC00
FC00
FC00
ENDCHAR
STARTCHAR 0030
ENCODING 48
SWIDTH 740 0
DWIDTH 37 0
BBX 33 37 2 -1
BITMAP
0003E00000
003FFE0000
00FFFF8000
03FFFFE000
07FFFFF000
0FFFFFF800
1FFFFFFC00
1FFC1FFC00
3FF003FE00
3FC001FF00
7F8000FF00
7F80007F00
7F00007F80
FF00003F80
FE00003F80
FE00003F80
FE00003F80
FE00003F80
FE00003F80
FE00003F80
FE00003F80
FE00003F80
FE00003F80
FF00007F80
7F00007F80
7F80007F00
7F8000FF00
3FC001FE00
3FF003FE00
1FFC1FFC00
0FFFFFFC00
0FFFFFF800
07FFFFF000
01FFFFC000
00FFFF8000
003FFE0000
0003F00000
ENDCHAR
STARTCHAR 0031
ENCODING 49
SWIDTH 340 0
DWIDTH 17 0
BBX 13 35 2 0
BITMAP
03F8
03F8
03F8
FFF8
FFF8
FFF8
FFF8
FFF8
FFF8
FFF8
03F8
03F8
03F8
03F8
03F8
03F8
03F8
03F8
03F8
03F8
03F8
03F8
03F8
03F8
03F8
03F8
03F8
03F8
03F8
03F8
03F8
03F8
03F8
03F8
03F8
ENDCHAR
STARTCHAR 0032
ENCODING 50
SWIDTH 580 0
DWIDTH 29 0
BBX 25 36 2 0
BITMAP
003E0000
01FFC000
07FFF000
0FFFF800
1FFFFC00
3FFFFE00
7FFFFE00
7FC1FF00
7F80FF00
FF007F00
FF007F00
FF007F00
0F007F00
00007F00
0000FF00
0000FE00
0001FE00
0001FE00
0003FC00
0007F800
000FF800
001FF000
003FE000
007FC000
007F8000
00FF0000
01FF0000
03FE0000
07FC0000
0FF80000
1FFFFF80
3FFFFF80
7FFFFF80
FFFFFF80
FFFFFF80
FFFFFF80
ENDCHAR
STARTCHAR 0033
ENCODING 51
SWIDTH 540 0
DWIDTH 27 0
BBX 23 36 2 -1
BITMAP
7FFFFC
7FFFFC
7FFFFC
7FFFF8
7FFFF0
7FFFE0
001FE0
003FC0
007F80
00FF00
01FE00
03FE00
07FF80
07FFE0
0FFFF0
1FFFF8
1FFFF8
0FFFFC
0703FE
0201FE
0000FE
0000FE
0000FE
0000FE
0000FE
0000FE
0C01FE
1E01FE
3F07FC
FFFFFC
FFFFF8
7FFFF0
3FFFE0
1FFFC0
07FF80
007C00
ENDCHAR
STARTCHAR 0034
ENCODING 52
SWIDTH 560 0
DWIDTH 28 0
BBX 26 35 1 0
BITMAP
0001FE00
001FFE00
007FFE00
00FFFE00
03FFFE00
07FFFE00
0FFFFE00
0FFEFE00
1FF8FE00
1FE0FE00
3FC0FE00
3F80FE00
7F80FE00
7F00FE00
7F00FE00
FF00FE00
FF00FE00
FE00FE00
FE00FE00
FFFFFFC0
FFFFFFC0
FFFFFFC0
FFFFFFC0
FFFFFFC0
FFFFFFC0
FFFFFFC0
0000FE00
0000FE00
0000FE00
0000FE00
0000FE00
0000FE00
0000FE00
0000FE00
0000FE00
ENDCHAR
STARTCHAR 0035
ENCODING 53
SWIDTH 560 0
DWIDTH 28 0
BBX 23 36 3 -1
BITMAP
3FFFFC
3FFFFC
7FFFFC
7FFFFC
7FFFFC
7FFFFC
7F0000
7E0000
7E0000
7E0000
7E0000
7EFE00
FFFF80
FFFFE0
FFFFF0
FFFFF8
FFFFF8
FFFFFC
3F03FC
0C01FE
0001FE
0000FE
0000FE
0000FE
0000FE
0000FE
0801FE
1C03FC
7F07FC
FFFFFC
FFFFF8
FFFFF0
7FFFE0
1FFFC0
0FFF00
00F800
ENDCHAR
STARTCHAR 0036
ENCODING 54
SWIDTH 620 0
DWIDTH 31 0
BBX 28 36 2 -1
BITMAP
0007F800
000FF000
001FF000
003FE000
003FC000
007FC000
00FF8000
00FF0000
01FE0000
03FE0000
07FFF000
07FFFC00
0FFFFF00
1FFFFF80
1FFFFF80
3FFFFFC0
3FE07FE0
7FC01FE0
7F800FE0
7F000FF0
FF0007F0
FF0007F0
FF0007F0
FF0007F0
FF000FF0
7F000FF0
7F801FE0
7FC03FE0
3FF07FC0
3FFFFFC0
1FFFFF80
0FFFFF00
07FFFE00
03FFFC00
00FFF000
000F8000
ENDCHAR
STARTCHAR 0037
ENCODING 55
SWIDTH 500 0
DWIDTH 25 0
BBX 24 35 2 0
BITMAP
FFFFFF
FFFFFF
FFFFFF
FFFFFE
FFFFFE
FFFFFC
FFFFFC
0003FC
0003F8
0007F8
0007F0
0007F0
000FF0
000FE0
3FFFFC
3FFFFC
3FFFFC
3FFFFC
3FFFFC
3FFFFC
3FFFFC
007F00
00FF00
00FE00
01FE00
01FC00
01FC00
03FC00
03F800
03F800
07F000
07F000
0FF000
0FE000
0FE000
ENDCHAR
STARTCHAR 0038
ENCODING 56
SWIDTH 560 0
DWIDTH 28 0
BBX 25 37 2 -1
BITMAP
003E0000
01FF8000
03FFE000
07FFF000
0FFFF800
1FFFF800
1FFFFC00
3FC1FC00
3F81FC00
3F80FC00
3F80FC00
3FC1FC00
1FE3FC00
1FFFFC00
1FFFF800
0FFFF000
1FFFFC00
3FFFFE00
7FFFFE00
7FC1FF00
FF00FF00
FF007F80
FE003F80
FE003F80
FE003F80
FE003F80
FE003F80
FF007F80
FF00FF00
7FC1FF00
7FFFFF00
3FFFFE00
1FFFFC00
0FFFF800
07FFF000
01FFC000
003E0000
ENDCHAR
STARTCHAR 0039
ENCODING 57
SWIDTH 600 0
DWIDTH 30 0
BBX 27 36 2 0
BITMAP
001F0000
00FFF000
03FFF800
0FFFFE00
1FFFFF00
1FFFFF80
3FFFFF80
7FE0FFC0
7F803FC0
FF001FE0
FF000FE0
FE000FE0
FE000FE0
FE000FE0
FE000FE0
FE000FE0
FF000FE0
FF001FE0
7F803FC0
7FC07FC0
3FFFFFC0
3FFFFF80
1FFFFF00
0FFFFF00
07FFFE00
01FFFC00
0007FC00
000FF800
000FF000
001FE000
003FE000
003FC000
007F8000
00FF8000
01FF0000
01FE0000
ENDCHAR
STARTCHAR 003A
ENCODING 58
SWIDTH 280 0
DWIDTH 14 0
BBX 9 26 3 -1
BITMAP
3E00
7F00
FF00
FF80
FF80
FF00
7F00
3E00
0000
0000
0000
0000
0000
0000
0000
0000
0000
3C00
7E00
FF00
FF00
FF00
FF00
FF00
7E00
1800
ENDCHAR
STARTCHAR 003B
ENCODING 59
SWIDTH 300 0
DWIDTH 15 0
BBX 9 31 3 -6
BITMAP
1F00
3F80
7F80
7F80
7F80
7F80
3F80
1F00
0000
0000
0000
0000
0000
0000
0000
0000
0000
0000
0000
0000
0000
1F00
3F00
3E00
3E00
7E00
7C00
7C00
7800
F800
F000
ENDCHAR
STARTCHAR 003C
ENCODING 60
SWIDTH 580 0
DWIDTH 29 0
BBX 23 22 3 4
BITMAP
000002
00001E
0000FE
0007FE
001FFE
00FFFE
07FFF0
1FFF80
FFFC00
FFE000
FF0000
FE0000
FFC000
FFF800
7FFF00
0FFFC0
03FFF8
007FFE
000FFE
0001FE
00007E
00000E
ENDCHAR
STARTCHAR 003D
ENCODING 61
SWIDTH 580 0
DWIDTH 29 0
BBX 23 17 3 8
BITMAP
FFFFFE
FFFFFE
FFFFFE
FFFFFE
FFFFFE
FFFFFE
000000
000000
000000
000000
000000
FFFFFE
FFFFFE
FFFFFE
FFFFFE
FFFFFE
FFFFFE
ENDCHAR
STARTCHAR 003E
ENCODING 62
SWIDTH 580 0
DWIDTH 29 0
BBX 23 22 3 4
BITMAP
C00000
F00000
FE0000
FFC000
FFF800
FFFE00
1FFFC0
03FFF8
007FFE
000FFE
0003FE
00007E
0003FE
001FFE
00FFFC
07FFE0
3FFF80
FFFC00
FFE000
FF8000
FC0000
E00000
ENDCHAR
STARTCHAR 003F
ENCODING 63
SWIDTH 460 0
DWIDTH 23 0
BBX 17 37 3 -1
BITMAP
01E000
0FFC00
1FFE00
3FFF00
7FFF00
FFFF80
FFFF80
7C3F80
0C1F80
003F80
003F80
007F00
007F00
00FE00
01FC00
01FC00
03F800
03F000
07F000
07F000
07E000
07E000
0FE000
0FE000
000000
000000
000000
000000
03C000
07E000
0FF000
0FF000
0FF800
0FF000
0FF000
07E000
01C000
ENDCHAR
STARTCHAR 0040
ENCODING 64
SWIDTH 820 0
DWIDTH 41 0
BBX 36 37 3 -1
BITMAP
0003FF0000
001FFFE000
007FFFF800
01FFFFFC00
03FE01FE00
07F0003F00
0FC0001F80
1F80000FC0
1F000007C0
3E000003E0
3E03F3C3E0
7C07FFC1E0
780FFFC1E0
F81FFFC1F0
F81FFFC1F0
F83F8FC1F0
F03F0781F0
F03F0781E0
F03F0783E0
F03F0F83E0
F83F8F83C0
F83FFFC7C0
F83FFFFF80
F81FFFFF80
7C0FFBFE00
7C07E1FC00
3E00000000
3E00000000
1F00000000
1F80000C00
0FE0001E00
07F0007F00
03FF03FE00
00FFFFFC00
007FFFF000
001FFFC000
0001FE0000
ENDCHAR
STARTCHAR 0041
ENCODING 65
SWIDTH 580 0
DWIDTH 29 0
BBX 26 36 2 0
BITMAP
007C0000
03FF8000
07FFE000
0FFFF000
1FFFF800
3FFFF800
3FFFFC00
7FC7FC00
7F81FE00
7F01FE00
7F01FE00
7F00FE00
FF00FE00
FF00FE00
FF00FE00
FF00FE00
FF00FE00
FF00FE00
FF00FE00
FF00FE00
FF00FE00
FF00FE00
FF00FE00
FF00FE00
FF00FE00
FF00FE00
FF00FE00
FF00FE00
FF00FE00
FFFFFFC0
FFFFFFC0
FFFFFFC0
FFFFFFC0
FFFFFFC0
FFFFFFC0
FFFFFFC0
ENDCHAR
STARTCHAR 0042
ENCODING 66
SWIDTH 640 0
DWIDTH 32 0
BBX 29 35 2 0
BITMAP
1FFFF000
1FFFFE00
1FFFFF00
1FFFFF80
1FFFFFC0
1FFFFFE0
1FFFFFE0
1FC01FF0
1FC00FF0
1FC00FF0
1FC00FF0
1FC00FF0
1FC00FF0
1FC03FE0
FFFFFFE0
FFFFFFC0
FFFFFFC0
FFFFFFC0
FFFFFFE0
FFFFFFF0
FFFFFFF0
1FC00FF0
1FC007F8
1FC007F8
1FC007F8
1FC007F8
1FC007F8
1FC01FF0
1FFFFFF0
1FFFFFF0
1FFFFFE0
1FFFFFC0
1FFFFF80
1FFFFF00
1FFFF800
ENDCHAR
STARTCHAR 0043
ENCODING 67
SWIDTH 680 0
DWIDTH 34 0
BBX 31 37 2 -1
BITMAP
0000F800
001FFF80
007FFFF0
00FFFFF8
03FFFFFC
07FFFFFE
0FFFFFFE
1FFF07FC
1FF801F8
3FF00070
3FE00020
7FC00000
7F800000
FF000000
FF000000
FF000000
FE000000
FE000000
FE000000
FE000000
FF000000
FF000000
FF000000
FF000000
7F800000
7FC00000
3FE00020
3FF00070
1FF801F8
1FFF07FC
0FFFFFFE
07FFFFFE
03FFFFFC
00FFFFF8
007FFFF0
000FFFC0
0000F800
ENDCHAR
STARTCHAR 0044
ENCODING 68
SWIDTH 680 0
DWIDTH 34 0
BBX 30 35 3 0
BITMAP
FFFF0000
FFFFF000
FFFFFC00
FFFFFE00
FFFFFF00
FFFFFF80
FFFFFFC0
FE01FFE0
FE007FF0
FE001FF0
FE000FF8
FE0007F8
FE0007F8
FE0003F8
FE0003FC
FE0003FC
FE0003FC
FE0003FC
FE0003FC
FE0003FC
FE0003FC
FE0003F8
FE0007F8
FE0007F8
FE000FF8
FE001FF0
FE007FF0
FE01FFE0
FFFFFFC0
FFFFFF80
FFFFFF00
FFFFFE00
FFFFFC00
FFFFF000
FFFF0000
ENDCHAR
STARTCHAR 0045
ENCODING 69
SWIDTH 520 0
DWIDTH 26 0
BBX 25 35 1 0
BITMAP
1FFFE000
1FFFE000
1FFFE000
1FFFE000
1FFFE000
1FFFE000
1FFFE000
1FE00000
1FE00000
1FE00000
1FE00000
1FE00000
1FE00000
1FE00000
FFFFF800
FFFFF800
FFFFF800
FFFFF800
FFFFF800
FFFFF800
FFFFF800
1FE00000
1FE00000
1FE00000
1FE00000
1FE00000
1FE00000
1FE00000
1FFFFF80
1FFFFF80
1FFFFF80
1FFFFF80
1FFFFF80
1FFFFF80
1FFFFF80
ENDCHAR
STARTCHAR 0046
ENCODING 70
SWIDTH 480 0
DWIDTH 24 0
BBX 23 35 1 0
BITMAP
0FFFFE
0FFFFE
0FFFFE
0FFFFE
0FFFFE
0FFFFE
0FFFFE
0FE000
0FE000
0FE000
0FE000
0FE000
0FE000
0FE000
0FE000
FFFFFC
FFFFFC
FFFFFC
FFFFFC
FFFFFC
FFFFFC
FFFFFC
0FE000
0FE000
0FE000
0FE000
0FE000
0FE000
0FE000
0FE000
0FE000
0FE000
0FE000
0FE000
0FE000
ENDCHAR
STARTCHAR 0047
ENCODING 71
SWIDTH 820 0
DWIDTH 41 0
BBX 39 37 2 -1
BITMAP
0001F80000
000FFFC000
007FFFF000
00FFFFF800
03FFFFFC00
07FFFFFE00
0FFFFFFE00
1FFF07FC00
1FF800F800
3FF0007000
3FE0002000
7FC0000000
7F80000000
FF00000000
FF00000000
FF003FFFFE
FE003FFFFE
FE003FFFFE
FE003FFFFE
FE003FFFFE
FF003FFFFE
FF003FFFFE
FF00000FF0
FF00000FF0
7F80001FF0
7FC0001FE0
3FE0003FE0
3FF0007FC0
1FF800FFC0
1FFF07FF80
0FFFFFFF00
07FFFFFF00
03FFFFFE00
00FFFFF800
007FFFF000
000FFFC000
0000FC0000
ENDCHAR
STARTCHAR 0048
ENCODING 72
SWIDTH 580 0
DWIDTH 29 0
BBX 26 35 1 0
BITMAP
1FE03FC0
1FE03FC0
1FE03FC0
1FE03FC0
1FE03FC0
1FE03FC0
1FE03FC0
1FE03FC0
1FE03FC0
1FE03FC0
1FE03FC0
1FE03FC0
1FE03FC0
1FE03FC0
1FE03FC0
FFFFFFC0
FFFFFFC0
FFFFFFC0
FFFFFFC0
FFFFFFC0
FFFFFFC0
FFFFFFC0
FFFFFFC0
1FE03FC0
1FE03FC0
1FE03FC0
1FE03FC0
1FE03FC0
1FE03FC0
1FE03FC0
1FE03FC0
1FE03FC0
1FE03FC0
1FE03FC0
1FE03FC0
ENDCHAR
STARTCHAR 0049
ENCODING 73
SWIDTH 240 0
DWIDTH 12 0
BBX 15 40 -1 1
BITMAP
0100
0300
0380
0380
0780
FFFE
7FFC
3FF0
1FE0
0FE0
1FE0
1FE0
1C70
1010
0000
0000
0000
0000
0FE0
0FE0
0FE0
0FE0
0FE0
0FE0
0FE0
0FE0
0FE0
0FE0
0FE0
0FE0
0FE0
0FE0
0FE0
0FE0
0FE0
0FE0
0FE0
0FE0
0FE0
0FE0
ENDCHAR
STARTCHAR 004A
ENCODING 74
SWIDTH 480 0
DWIDTH 24 0
BBX 21 36 1 -1
BITMAP
003FF8
003FF8
003FF8
003FF8
003FF8
003FF8
003FF8
0007F8
0007F8
0007F8
0007F8
0007F8
0007F8
0007F8
0007F8
0007F8
0007F8
0007F8
0007F8
0007F8
0007F8
0007F8
0007F8
0007F8
0007F8
0007F8
0407F8
0E0FF0
3F1FF0
FFFFF0
FFFFE0
7FFFE0
3FFFC0
1FFF80
0FFE00
00F000
ENDCHAR
STARTCHAR 004B
ENCODING 75
SWIDTH 580 0
DWIDTH 29 0
BBX 26 35 1 0
BITMAP
1FE0FF00
1FE0FF00
1FE0FF00
1FE0FF00
1FE0FF00
1FE0FF00
1FE0FF00
1FE0FF00
1FE0FF00
1FE0FF00
1FE0FF00
1FE0FF00
1FE1FE00
1FE7FE00
FFFFFE00
FFFFFC00
FFFFFE00
FFFFFE00
FFFFFF00
FFFFFF80
1FE1FF80
1FE07F80
1FE03FC0
1FE03FC0
1FE03FC0
1FE03FC0
1FE03FC0
1FE03FC0
1FE03FC0
1FE03FC0
1FE03FC0
1FE03FC0
1FE03FC0
1FE03FC0
1FE03FC0
ENDCHAR
STARTCHAR 004C
ENCODING 76
SWIDTH 460 0
DWIDTH 23 0
BBX 19 35 3 0
BITMAP
FE0000
FE0000
FE0000
FE0000
FE0000
FE0000
FE0000
FE0000
FE0000
FE0000
FE0000
FE0000
FE0000
FE0000
FE0000
FE0000
FE0000
FE0000
FE0000
FE0000
FE0000
FE0000
FE0000
FE0000
FE0000
FE0000
FE0000
FE0000
FFFFE0
FFFFE0
FFFFE0
FFFFE0
FFFFE0
FFFFE0
FFFFE0
ENDCHAR
STARTCHAR 004D
ENCODING 77
SWIDTH 880 0
DWIDTH 44 0
BBX 41 36 1 0
BITMAP
080000000000
1C003C007F80
3F003E007F80
3F803F007F80
7FC03F807F80
FFE03FE07F80
7FF83FF07F80
3FFC3FF87F80
1FFE3FFE7F80
1FFFBFFF7F80
1FFFFFFFFF80
1FFFFFFFFF80
1FFFFFFFFF80
1FFFFFFFFF80
1FEFFFDFFF80
1FE7FFCFFF80
1FE3FFC3FF80
1FE0FFC1FF80
1FE07FC0FF80
1FE03FC07F80
1FE03FC07F80
1FE03FC07F80
1FE03FC07F80
1FE03FC07F80
1FE03FC07F80
1FE03FC07F80
1FE03FC07F80
1FE03FC07F80
1FE03FC07F80
1FE03FC07F80
1FE03FC07F80
1FE03FC07F80
1FE03FC07F80
1FE03FC07F80
1FE03FC07F80
1FE03FC07F80
ENDCHAR
STARTCHAR 004E
ENCODING 78
SWIDTH 580 0
DWIDTH 29 0
BBX 25 36 1 0
BITMAP
08000000
1C003F80
3F003F80
3F803F80
7FC03F80
FFE03F80
7FF83F80
3FFC3F80
1FFE3F80
1FFFBF80
1FFFFF80
1FFFFF80
1FFFFF80
1FFFFF80
1FDFFF80
1FCFFF80
1FC3FF80
1FC1FF80
1FC0FF80
1FC03F80
1FC03F80
1FC03F80
1FC03F80
1FC03F80
1FC03F80
1FC03F80
1FC03F80
1FC03F80
1FC03F80
1FC03F80
1FC03F80
1FC03F80
1FC03F80
1FC03F80
1FC03F80
1FC03F80
ENDCHAR
STARTCHAR 004F
ENCODING 79
SWIDTH 820 0
DWIDTH 41 0
BBX 38 37 2 -1
BITMAP
0001F80000
000FFFC000
007FFFF000
00FFFFFC00
03FFFFFE00
07FFFFFF00
0FFFFFFF80
1FFF07FFC0
1FF800FFE0
3FF0003FE0
3FE0001FF0
7FC0000FF0
7F80000FF8
FF000007F8
FF000007F8
FF000003F8
FE000003F8
FE000003FC
FE000003FC
FE000003FC
FF000003F8
FF000003F8
FF000007F8
FF000007F8
7F80000FF8
7FC0000FF0
3FE0001FF0
3FF0003FE0
1FF800FFE0
1FFF07FFC0
0FFFFFFF80
07FFFFFF00
03FFFFFE00
00FFFFFC00
007FFFF000
000FFFC000
0000FC0000
ENDCHAR
STARTCHAR 0050
ENCODING 80
SWIDTH 580 0
DWIDTH 29 0
BBX 27 35 1 0
BITMAP
1FFFE000
1FFFFC00
1FFFFE00
1FFFFF80
1FFFFF80
1FFFFFC0
1FFFFFE0
1FC03FE0
1FC01FE0
1FC00FE0
1FC00FE0
1FC00FE0
1FC00FE0
1FC01FE0
1FC01FE0
1FC1FFE0
FFFFFFC0
FFFFFFC0
FFFFFF80
FFFFFF00
FFFFFC00
FFFFF000
1FC00000
1FC00000
1FC00000
1FC00000
1FC00000
1FC00000
1FC00000
1FC00000
1FC00000
1FC00000
1FC00000
1FC00000
1FC00000
ENDCHAR
STARTCHAR 0051
ENCODING 81
SWIDTH 820 0
DWIDTH 41 0
BBX 38 38 2 -2
BITMAP
0001F80000
000FFFC000
007FFFF000
00FFFFFC00
03FFFFFE00
07FFFFFF00
0FFFFFFF80
1FFF07FFC0
1FF800FFE0
3FF0003FE0
3FE0001FF0
7FC0000FF0
7F80000FF8
FF000007F8
FF000007F8
FF000003F8
FE000003F8
FE000003FC
FE000003FC
FE000003FC
FF000003F8
FF000003F8
FF000007F8
FF000007F8
7F80000FF8
7FC0000FF0
3FE0001FF0
3FF0003FE0
1FF800FFE0
1FFF07FFC0
0FFFFFFFC0
07FFFFFFE0
03FFFFFFF0
00FFFFFFF0
007FFFFFE0
000FFFC7C0
0000FC0380
0000000100
ENDCHAR
STARTCHAR 0052
ENCODING 82
SWIDTH 620 0
DWIDTH 31 0
BBX 29 35 1 0
BITMAP
1FFFF000
1FFFFE00
1FFFFF80
1FFFFFC0
1FFFFFE0
1FFFFFE0
1FFFFFF0
1FE01FF0
1FE00FF0
1FE007F0
1FE007F8
1FE007F8
1FE007F0
1FE00FF0
1FE01FF0
FFFFFFF0
FFFFFFE0
FFFFFFC0
FFFFFFC0
FFFFFF00
FFFFFF80
FFFFFFC0
1FE07FC0
1FE03FE0
1FE01FE0
1FE01FE0
1FE00FE0
1FE00FE0
1FE00FE0
1FE00FE0
1FE00FE0
1FE00FE0
1FE00FE0
1FE00FE0
1FE00FE0
ENDCHAR
STARTCHAR 0053
ENCODING 83
SWIDTH 520 0
DWIDTH 26 0
BBX 23 37 2 -1
BITMAP
00FC00
07FF80
0FFFC0
1FFFE0
3FFFF0
3FFFF8
7FFFF8
7FCFFC
7F83FC
7F03F0
7F0180
7F8000
7FC000
3FE000
3FF800
1FFC00
0FFF00
07FF80
03FFE0
01FFF0
007FF8
003FF8
000FFC
0007FC
0003FC
0201FE
1E01FE
FF01FC
FF03FC
FFCFFC
7FFFFC
7FFFF8
3FFFF8
1FFFF0
0FFFE0
03FF80
007C00
ENDCHAR
STARTCHAR 0054
ENCODING 84
SWIDTH 520 0
DWIDTH 26 0
BBX 24 35 1 0
BITMAP
FFFFFF
FFFFFF
FFFFFF
FFFFFF
FFFFFF
FFFFFF
FFFFFF
007F00
007F00
007F00
007F00
007F00
007F00
007F00
007F00
007F00
007F00
007F00
007F00
007F00
007F00
007F00
007F00
007F00
007F00
007F00
007F00
007F00
007F00
007F00
007F00
007F00
007F00
007F00
007F00
ENDCHAR
STARTCHAR 0055
ENCODING 85
SWIDTH 540 0
DWIDTH 27 0
BBX 23 36 2 -1
BITMAP
FF01FE
FF01FE
FF01FE
FF01FE
FF01FE
FF01FE
FF01FE
FF01FE
FF01FE
FF01FE
FF01FE
FF01FE
FF01FE
FF01FE
FF01FE
FF01FE
FF01FE
FF01FE
FF01FE
FF01FE
FF01FE
FF01FE
FF01FE
FF01FE
FF01FE
FF01FE
7F01FE
7F83FC
7FC7FC
7FFFFC
3FFFF8
1FFFF8
0FFFF0
07FFE0
03FF80
007C00
ENDCHAR
STARTCHAR 0056
ENCODING 86
SWIDTH 500 0
DWIDTH 25 0
BBX 22 35 1 0
BITMAP
FE03FC
FE03FC
FE03FC
FE03FC
FE03FC
FE03FC
FE03FC
FE03FC
FE03FC
FE03FC
FE03FC
FE03FC
FE03FC
FE03FC
FE03FC
FE03FC
FE03FC
FE03FC
FE03F8
FF03F8
FF03F8
FF03F8
FF07F8
7F07F8
7F87F0
7F8FF0
7F8FF0
3FCFE0
3FDFE0
1FFFE0
1FFFC0
0FFF80
07FF80
07FF00
03FE00
ENDCHAR
STARTCHAR 0057
ENCODING 87
SWIDTH 780 0
DWIDTH 39 0
BBX 36 35 1 0
BITMAP
FE03FC07F0
FE03FC07F0
FE03FC07F0
FE03FC07F0
FE03FC07F0
FE03FC07F0
FE03FC07F0
FE03FC07F0
FE03FC07F0
FE03FC07F0
FE03FC07F0
FE03FC07F0
FE03FC07F0
FE03FC07F0
FE03FC07F0
FE03FC07F0
FE03FC07F0
FE03FC07F0
FE03FC0FF0
FF03FC0FF0
FF03FC0FF0
FF03FC0FF0
FF07FE0FE0
7F07FE0FE0
7F87FE1FE0
7F8FFE1FE0
7F8FFF1FC0
3FCFFF3FC0
3FDFFFBFC0
1FFFFFFF80
1FFFFFFF00
0FFF9FFF00
07FF9FFE00
07FF0FFC00
03FE07FC00
ENDCHAR
STARTCHAR 0058
ENCODING 88
SWIDTH 540 0
DWIDTH 27 0
BBX 22 35 3 0
BITMAP
FE01FC
FE01FC
FE01FC
FE01FC
FE01FC
FE01FC
FE01FC
FE01FC
FE01FC
FF03FC
FF03FC
FF8FF8
7FFFF8
7FFFF8
3FFFF0
3FFFE0
3FFFF0
7FFFF8
7FFFF8
FF87FC
FF03FC
FE03FC
FE01FC
FE01FC
FE01FC
FE01FC
FE01FC
FE01FC
FE01FC
FE01FC
FE01FC
FE01FC
FE01FC
FE01FC
FE01FC
ENDCHAR
STARTCHAR 0059
ENCODING 89
SWIDTH 520 0
DWIDTH 26 0
BBX 23 35 2 0
BITMAP
FF01FE
FF01FE
FF01FE
FF01FE
FF01FE
FF01FE
FF01FE
FF01FE
FF01FE
FF01FE
FF01FE
FF01FE
FF01FE
FF01FE
FF01FE
FF01FE
FF01FE
FF01FC
FF03FC
7F83FC
7FFFFC
3FFFF8
3FFFF8
1FFFF0
0FFFE0
07FF80
01FE00
00FE00
00FE00
00FE00
00FE00
00FE00
00FE00
00FE00
00FE00
ENDCHAR
STARTCHAR 005A
ENCODING 90
SWIDTH 540 0
DWIDTH 27 0
BBX 25 35 1 0
BITMAP
7FFFFF80
7FFFFF80
7FFFFF80
7FFFFF80
7FFFFF00
7FFFFE00
7FFFFE00
0003FC00
0003FC00
0007F800
000FF800
000FF000
001FE000
001FE000
003FC000
003FC000
007F8000
00FF0000
00FF0000
01FE0000
01FE0000
03FC0000
07FC0000
07F80000
0FF00000
0FF00000
1FE00000
3FE00000
3FFFFF00
7FFFFF00
7FFFFF00
FFFFFF00
FFFFFF00
FFFFFF00
FFFFFF00
ENDCHAR
STARTCHAR 005B
ENCODING 91
SWIDTH 280 0
DWIDTH 14 0
BBX 8 50 3 -8
BITMAP
FF
FF
FF
FF
FF
F8
F8
F8
F8
F8
F8
F8
F8
F8
F8
F8
F8
F8
F8
F8
F8
F8
F8
F8
F8
F8
F8
F8
F8
F8
F8
F8
F8
F8
F8
F8
F8
F8
F8
F8
F8
F8
F8
F8
F8
FF
FF
FF
FF
FF
ENDCHAR
STARTCHAR 005C
ENCODING 92
SWIDTH 440 0
DWIDTH 22 0
BBX 16 37 3 -1
BITMAP
FC00
FC00
FC00
7E00
7E00
7E00
3F00
3F00
3F00
1F00
1F80
1F80
1F80
0FC0
0FC0
0FC0
07C0
07E0
07E0
07E0
03F0
03F0
03F0
01F0
01F8
01F8
01F8
00FC
00FC
00FC
007C
007E
007E
007E
003F
003F
003F
ENDCHAR
STARTCHAR 005D
ENCODING 93
SWIDTH 280 0
DWIDTH 14 0
BBX 8 50 3 -8
BITMAP
FF
FF
FF
FF
FF
0F
0F
0F
0F
0F
0F
0F
0F
0F
0F
0F
0F
0F
0F
0F
0F
0F
0F
0F
0F
0F
0F
0F
0F
0F
0F
0F
0F
0F
0F
0F
0F
0F
0F
0F
0F
0F
0F
0F
0F
FF
FF
FF
FF
FF
ENDCHAR
STARTCHAR 005E
ENCODING 94
SWIDTH 540 0
DWIDTH 27 0
BBX 21 13 3 17
BITMAP
01FC00
03FE00
03FE00
07FF00
07DF00
0FDF80
1F8FC0
1F8FC0
3F07E0
3E03E0
7E03F0
7C01F0
FC01F8
ENDCHAR
STARTCHAR 005F
ENCODING 95
SWIDTH 540 0
DWIDTH 27 0
BBX 22 4 3 -6
BITMAP
FFFFFC
FFFFFC
FFFFFC
FFFFFC
ENDCHAR
STARTCHAR 0060
ENCODING 96
SWIDTH 160 0
DWIDTH 8 0
BBX 8 6 0 39
BITMAP
FC
7C
3C
3E
1E
1F
ENDCHAR
STARTCHAR 0061
ENCODING 97
SWIDTH 580 0
DWIDTH 29 0
BBX 26 36 2 0
BITMAP
007C0000
03FF8000
07FFE000
0FFFF000
1FFFF800
3FFFF800
3FFFFC00
7FC7FC00
7F81FE00
7F01FE00
7F01FE00
7F00FE00
FF00FE00
FF00FE00
FF00FE00
FF00FE00
FF00FE00
FF00FE00
FF00FE00
FF00FE00
FF00FE00
FF00FE00
FF00FE00
FF00FE00
FF00FE00
FF00FE00
FF00FE00
FF00FE00
FF00FE00
FFFFFFC0
FFFFFFC0
FFFFFFC0
FFFFFFC0
FFFFFFC0
FFFFFFC0
FFFFFFC0
ENDCHAR
STARTCHAR 0062
ENCODING 98
SWIDTH 640 0
DWIDTH 32 0
BBX 29 35 2 0
BITMAP
1FFFF000
1FFFFE00
1FFFFF00
1FFFFF80
1FFFFFC0
1FFFFFE0
1FFFFFE0
1FC01FF0
1FC00FF0
1FC00FF0
1FC00FF0
1FC00FF0
1FC00FF0
1FC03FE0
FFFFFFE0
FFFFFFC0
FFFFFFC0
FFFFFFC0
FFFFFFE0
FFFFFFF0
FFFFFFF0
1FC00FF0
1FC007F8
1FC007F8
1FC007F8
1FC007F8
1FC007F8
1FC01FF0
1FFFFFF0
1FFFFFF0
1FFFFFE0
1FFFFFC0
1FFFFF80
1FFFFF00
1FFFF800
ENDCHAR
STARTCHAR 0063
ENCODING 99
SWIDTH 680 0
DWIDTH 34 0
BBX 31 37 2 -1
BITMAP
0000F800
001FFF80
007FFFF0
00FFFFF8
03FFFFFC
07FFFFFE
0FFFFFFE
1FFF07FC
1FF801F8
3FF00070
3FE00020
7FC00000
7F800000
FF000000
FF000000
FF000000
FE000000
FE000000
FE000000
FE000000
FF000000
FF000000
FF000000
FF000000
7F800000
7FC00000
3FE00020
3FF00070
1FF801F8
1FFF07FC
0FFFFFFE
07FFFFFE
03FFFFFC
00FFFFF8
007FFFF0
000FFFC0
0000F800
ENDCHAR
STARTCHAR 0064
ENCODING 100
SWIDTH 680 0
DWIDTH 34 0
BBX 30 35 3 0
BITMAP
FFFF0000
FFFFF000
FFFFFC00
FFFFFE00
FFFFFF00
FFFFFF80
FFFFFFC0
FE01FFE0
FE007FF0
FE001FF0
FE000FF8
FE0007F8
FE0007F8
FE0003F8
FE0003FC
FE0003FC
FE0003FC
FE0003FC
FE0003FC
FE0003FC
FE0003FC
FE0003F8
FE0007F8
FE0007F8
FE000FF8
FE001FF0
FE007FF0
FE01FFE0
FFFFFFC0
FFFFFF80
FFFFFF00
FFFFFE00
FFFFFC00
FFFFF000
FFFF0000
ENDCHAR
STARTCHAR 0065
ENCODING 101
SWIDTH 520 0
DWIDTH 26 0
BBX 25 35 1 0
BITMAP
1FFFE000
1FFFE000
1FFFE000
1FFFE000
1FFFE000
1FFFE000
1FFFE000
1FE00000
1FE00000
1FE00000
1FE00000
1FE00000
1FE00000
1FE00000
FFFFF800
FFFFF800
FFFFF800
FFFFF800
FFFFF800
FFFFF800
FFFFF800
1FE00000
1FE00000
1FE00000
1FE00000
1FE00000
1FE00000
1FE00000
1FFFFF80
1FFFFF80
1FFFFF80
1FFFFF80
1FFFFF80
1FFFFF80
1FFFFF80
ENDCHAR
STARTCHAR 0066
ENCODING 102
SWIDTH 480 0
DWIDTH 24 0
BBX 23 35 1 0
BITMAP
0FFFFE
0FFFFE
0FFFFE
0FFFFE
0FFFFE
0FFFFE
0FFFFE
0FE000
0FE000
0FE000
0FE000
0FE000
0FE000
0FE000
0FE000
FFFFFC
FFFFFC
FFFFFC
FFFFFC
FFFFFC
FFFFFC
FFFFFC
0FE000
0FE000
0FE000
0FE000
0FE000
0FE000
0FE000
0FE000
0FE000
0FE000
0FE000
0FE000
0FE000
ENDCHAR
STARTCHAR 0067
ENCODING 103
SWIDTH 820 0
DWIDTH 41 0
BBX 39 37 2 -1
BITMAP
0001F80000
000FFFC000
007FFFF000
00FFFFF800
03FFFFFC00
07FFFFFE00
0FFFFFFE00
1FFF07FC00
1FF800F800
3FF0007000
3FE0002000
7FC0000000
7F80000000
FF00000000
FF00000000
FF003FFFFE
FE003FFFFE
FE003FFFFE
FE003FFFFE
FE003FFFFE
FF003FFFFE
FF003FFFFE
FF00000FF0
FF00000FF0
7F80001FF0
7FC0001FE0
3FE0003FE0
3FF0007FC0
1FF800FFC0
1FFF07FF80
0FFFFFFF00
07FFFFFF00
03FFFFFE00
00FFFFF800
007FFFF000
000FFFC000
0000FC0000
ENDCHAR
STARTCHAR 0068
ENCODING 104
SWIDTH 580 0
DWIDTH 29 0
BBX 26 35 1 0
BITMAP
1FE03FC0
1FE03FC0
1FE03FC0
1FE03FC0
1FE03FC0
1FE03FC0
1FE03FC0
1FE03FC0
1FE03FC0
1FE03FC0
1FE03FC0
1FE03FC0
1FE03FC0
1FE03FC0
1FE03FC0
FFFFFFC0
FFFFFFC0
FFFFFFC0
FFFFFFC0
FFFFFFC0
FFFFFFC0
FFFFFFC0
FFFFFFC0
1FE03FC0
1FE03FC0
1FE03FC0
1FE03FC0
1FE03FC0
1FE03FC0
1FE03FC0
1FE03FC0
1FE03FC0
1FE03FC0
1FE03FC0
1FE03FC0
ENDCHAR
STARTCHAR 0069
ENCODING 105
SWIDTH 240 0
DWIDTH 12 0
BBX 15 40 -1 1
BITMAP
0100
0300
0380
0380
0780
FFFE
7FFC
3FF0
1FE0
0FE0
1FE0
1FE0
1C70
1010
0000
0000
0000
0000
0FE0
0FE0
0FE0
0FE0
0FE0
0FE0
0FE0
0FE0
0FE0
0FE0
0FE0
0FE0
0FE0
0FE0
0FE0
0FE0
0FE0
0FE0
0FE0
0FE0
0FE0
0FE0
ENDCHAR
STARTCHAR 006A
ENCODING 106
SWIDTH 480 0
DWIDTH 24 0
BBX 21 36 1 -1
BITMAP
003FF8
003FF8
003FF8
003FF8
003FF8
003FF8
003FF8
0007F8
0007F8
0007F8
0007F8
0007F8
0007F8
0007F8
0007F8
0007F8
0007F8
0007F8
0007F8
0007F8
0007F8
0007F8
0007F8
0007F8
0007F8
0007F8
0407F8
0E0FF0
3F1FF0
FFFFF0
FFFFE0
7FFFE0
3FFFC0
1FFF80
0FFE00
00F000
ENDCHAR
STARTCHAR 006B
ENCODING 107
SWIDTH 580 0
DWIDTH 29 0
BBX 26 35 1 0
BITMAP
1FE0FF00
1FE0FF00
1FE0FF00
1FE0FF00
1FE0FF00
1FE0FF00
1FE0FF00
1FE0FF00
1FE0FF00
1FE0FF00
1FE0FF00
1FE0FF00
1FE1FE00
1FE7FE00
FFFFFE00
FFFFFC00
FFFFFE00
FFFFFE00
FFFFFF00
FFFFFF80
1FE1FF80
1FE07F80
1FE03FC0
1FE03FC0
1FE03FC0
1FE03FC0
1FE03FC0
1FE03FC0
1FE03FC0
1FE03FC0
1FE03FC0
1FE03FC0
1FE03FC0
1FE03FC0
1FE03FC0
ENDCHAR
STARTCHAR 006C
ENCODING 108
SWIDTH 460 0
DWIDTH 23 0
BBX 19 35 3 0
BITMAP
FE0000
FE0000
FE0000
FE0000
FE0000
FE0000
FE0000
FE0000
FE0000
FE0000
FE0000
FE0000
FE0000
FE0000
FE0000
FE0000
FE0000
FE0000
FE0000
FE0000
FE0000
FE0000
FE0000
FE0000
FE0000
FE0000
FE0000
FE0000
FFFFE0
FFFFE0
FFFFE0
FFFFE0
FFFFE0
FFFFE0
FFFFE0
ENDCHAR
STARTCHAR 006D
ENCODING 109
SWIDTH 880 0
DWIDTH 44 0
BBX 41 36 1 0
BITMAP
080000000000
1C003C007F80
3F003E007F80
3F803F007F80
7FC03F807F80
FFE03FE07F80
7FF83FF07F80
3FFC3FF87F80
1FFE3FFE7F80
1FFFBFFF7F80
1FFFFFFFFF80
1FFFFFFFFF80
1FFFFFFFFF80
1FFFFFFFFF80
1FEFFFDFFF80
1FE7FFCFFF80
1FE3FFC3FF80
1FE0FFC1FF80
1FE07FC0FF80
1FE03FC07F80
1FE03FC07F80
1FE03FC07F80
1FE03FC07F80
1FE03FC07F80
1FE03FC07F80
1FE03FC07F80
1FE03FC07F80
1FE03FC07F80
1FE03FC07F80
1FE03FC07F80
1FE03FC07F80
1FE03FC07F80
1FE03FC07F80
1FE03FC07F80
1FE03FC07F80
1FE03FC07F80
ENDCHAR
STARTCHAR 006E
ENCODING 110
SWIDTH 580 0
DWIDTH 29 0
BBX 25 36 1 0
BITMAP
08000000
1C003F80
3F003F80
3F803F80
7FC03F80
FFE03F80
7FF83F80
3FFC3F80
1FFE3F80
1FFFBF80
1FFFFF80
1FFFFF80
1FFFFF80
1FFFFF80
1FDFFF80
1FCFFF80
1FC3FF80
1FC1FF80
1FC0FF80
1FC03F80
1FC03F80
1FC03F80
1FC03F80
1FC03F80
1FC03F80
1FC03F80
1FC03F80
1FC03F80
1FC03F80
1FC03F80
1FC03F80
1FC03F80
1FC03F80
1FC03F80
1FC03F80
1FC03F80
ENDCHAR
STARTCHAR 006F
ENCODING 111
SWIDTH 820 0
DWIDTH 41 0
BBX 38 37 2 -1
BITMAP
0001F80000
000FFFC000
007FFFF000
00FFFFFC00
03FFFFFE00
07FFFFFF00
0FFFFFFF80
1FFF07FFC0
1FF800FFE0
3FF0003FE0
3FE0001FF0
7FC0000FF0
7F80000FF8
FF000007F8
FF000007F8
FF000003F8
FE000003F8
FE000003FC
FE000003FC
FE000003FC
FF000003F8
FF000003F8
FF000007F8
FF000007F8
7F80000FF8
7FC0000FF0
3FE0001FF0
3FF0003FE0
1FF800FFE0
1FFF07FFC0
0FFFFFFF80
07FFFFFF00
03FFFFFE00
00FFFFFC00
007FFFF000
000FFFC000
0000FC0000
ENDCHAR
STARTCHAR 0070
ENCODING 112
SWIDTH 580 0
DWIDTH 29 0
BBX 27 35 1 0
BITMAP
1FFFE000
1FFFFC00
1FFFFE00
1FFFFF80
1FFFFF80
1FFFFFC0
1FFFFFE0
1FC03FE0
1FC01FE0
1FC00FE0
1FC00FE0
1FC00FE0
1FC00FE0
1FC01FE0
1FC01FE0
1FC1FFE0
FFFFFFC0
FFFFFFC0
FFFFFF80
FFFFFF00
FFFFFC00
FFFFF000
1FC00000
1FC00000
1FC00000
1FC00000
1FC00000
1FC00000
1FC00000
1FC00000
1FC00000
1FC00000
1FC00000
1FC00000
1FC00000
ENDCHAR
STARTCHAR 0071
ENCODING 113
SWIDTH 820 0
DWIDTH 41 0
BBX 38 38 2 -2
BITMAP
0001F80000
000FFFC000
007FFFF000
00FFFFFC00
03FFFFFE00
07FFFFFF00
0FFFFFFF80
1FFF07FFC0
1FF800FFE0
3FF0003FE0
3FE0001FF0
7FC0000FF0
7F80000FF8
FF000007F8
FF000007F8
FF000003F8
FE000003F8
FE000003FC
FE000003FC
FE000003FC
FF000003F8
FF000003F8
FF000007F8
FF000007F8
7F80000FF8
7FC0000FF0
3FE0001FF0
3FF0003FE0
1FF800FFE0
1FFF07FFC0
0FFFFFFFC0
07FFFFFFE0
03FFFFFFF0
00FFFFFFF0
007FFFFFE0
000FFFC7C0
0000FC0380
0000000100
ENDCHAR
STARTCHAR 0072
ENCODING 114
SWIDTH 620 0
DWIDTH 31 0
BBX 29 35 1 0
BITMAP
1FFFF000
1FFFFE00
1FFFFF80
1FFFFFC0
1FFFFFE0
1FFFFFE0
1FFFFFF0
1FE01FF0
1FE00FF0
1FE007F0
1FE007F8
1FE007F8
1FE007F0
1FE00FF0
1FE01FF0
FFFFFFF0
FFFFFFE0
FFFFFFC0
FFFFFFC0
FFFFFF00
FFFFFF80
FFFFFFC0
1FE07FC0
1FE03FE0
1FE01FE0
1FE01FE0
1FE00FE0
1FE00FE0
1FE00FE0
1FE00FE0
1FE00FE0
1FE00FE0
1FE00FE0
1FE00FE0
1FE00FE0
ENDCHAR
STARTCHAR 0073
ENCODING 115
SWIDTH 520 0
DWIDTH 26 0
BBX 23 37 2 -1
BITMAP
00FC00
07FF80
0FFFC0
1FFFE0
3FFFF0
3FFFF8
7FFFF8
7FCFFC
7F83FC
7F03F0
7F0180
7F8000
7FC000
3FE000
3FF800
1FFC00
0FFF00
07FF80
03FFE0
01FFF0
007FF8
003FF8
000FFC
0007FC
0003FC
0201FE
1E01FE
FF01FC
FF03FC
FFCFFC
7FFFFC
7FFFF8
3FFFF8
1FFFF0
0FFFE0
03FF80
007C00
ENDCHAR
STARTCHAR 0074
ENCODING 116
SWIDTH 520 0
DWIDTH 26 0
BBX 24 35 1 0
BITMAP
FFFFFF
FFFFFF
FFFFFF
FFFFFF
FFFFFF
FFFFFF
FFFFFF
007F00
007F00
007F00
007F00
007F00
007F00
007F00
007F00
007F00
007F00
007F00
007F00
007F00
007F00
007F00
007F00
007F00
007F00
007F00
007F00
007F00
007F00
007F00
007F00
007F00
007F00
007F00
007F00
ENDCHAR
STARTCHAR 0075
ENCODING 117
SWIDTH 540 0
DWIDTH 27 0
BBX 23 36 2 -1
BITMAP
FF01FE
FF01FE
FF01FE
FF01FE
FF01FE
FF01FE
FF01FE
FF01FE
FF01FE
FF01FE
FF01FE
FF01FE
FF01FE
FF01FE
FF01FE
FF01FE
FF01FE
FF01FE
FF01FE
FF01FE
FF01FE
FF01FE
FF01FE
FF01FE
FF01FE
FF01FE
7F01FE
7F83FC
7FC7FC
7FFFFC
3FFFF8
1FFFF8
0FFFF0
07FFE0
03FF80
007C00
ENDCHAR
STARTCHAR 0076
ENCODING 118
SWIDTH 500 0
DWIDTH 25 0
BBX 22 35 1 0
BITMAP
FE03FC
FE03FC
FE03FC
FE03FC
FE03FC
FE03FC
FE03FC
FE03FC
FE03FC
FE03FC
FE03FC
FE03FC
FE03FC
FE03FC
FE03FC
FE03FC
FE03FC
FE03FC
FE03F8
FF03F8
FF03F8
FF03F8
FF07F8
7F07F8
7F87F0
7F8FF0
7F8FF0
3FCFE0
3FDFE0
1FFFE0
1FFFC0
0FFF80
07FF80
07FF00
03FE00
ENDCHAR
STARTCHAR 0077
ENCODING 119
SWIDTH 780 0
DWIDTH 39 0
BBX 36 35 1 0
BITMAP
FE03FC07F0
FE03FC07F0
FE03FC07F0
FE03FC07F0
FE03FC07F0
FE03FC07F0
FE03FC07F0
FE03FC07F0
FE03FC07F0
FE03FC07F0
FE03FC07F0
FE03FC07F0
FE03FC07F0
FE03FC07F0
FE03FC07F0
FE03FC07F0
FE03FC07F0
FE03FC07F0
FE03FC0FF0
FF03FC0FF0
FF03FC0FF0
FF03FC0FF0
FF07FE0FE0
7F07FE0FE0
7F87FE1FE0
7F8FFE1FE0
7F8FFF1FC0
3FCFFF3FC0
3FDFFFBFC0
1FFFFFFF80
1FFFFFFF00
0FFF9FFF00
07FF9FFE00
07FF0FFC00
03FE07FC00
ENDCHAR
STARTCHAR 0078
ENCODING 120
SWIDTH 540 0
DWIDTH 27 0
BBX 22 35 3 0
BITMAP
FE01FC
FE01FC
FE01FC
FE01FC
FE01FC
FE01FC
FE01FC
FE01FC
FE01FC
FF03FC
FF03FC
FF8FF8
7FFFF8
7FFFF8
3FFFF0
3FFFE0
3FFFF0
7FFFF8
7FFFF8
FF87FC
FF03FC
FE03FC
FE01FC
FE01FC
FE01FC
FE01FC
FE01FC
FE01FC
FE01FC
FE01FC
FE01FC
FE01FC
FE01FC
FE01FC
FE01FC
ENDCHAR
STARTCHAR 0079
ENCODING 121
SWIDTH 520 0
DWIDTH 26 0
BBX 23 35 2 0
BITMAP
FF01FE
FF01FE
FF01FE
FF01FE
FF01FE
FF01FE
FF01FE
FF01FE
FF01FE
FF01FE
FF01FE
FF01FE
FF01FE
FF01FE
FF01FE
FF01FE
FF01FE
FF01FC
FF03FC
7F83FC
7FFFFC
3FFFF8
3FFFF8
1FFFF0
0FFFE0
07FF80
01FE00
00FE00
00FE00
00FE00
00FE00
00FE00
00FE00
00FE00
00FE00
ENDCHAR
STARTCHAR 007A
ENCODING 122
SWIDTH 540 0
DWIDTH 27 0
BBX 25 35 1 0
BITMAP
7FFFFF80
7FFFFF80
7FFFFF80
7FFFFF80
7FFFFF00
7FFFFE00
7FFFFE00
0003FC00
0003FC00
0007F800
000FF800
000FF000
001FE000
001FE000
003FC000
003FC000
007F8000
00FF0000
00FF0000
01FE0000
01FE0000
03FC0000
07FC0000
07F80000
0FF00000
0FF00000
1FE00000
3FE00000
3FFFFF00
7FFFFF00
7FFFFF00
FFFFFF00
FFFFFF00
FFFFFF00
FFFFFF00
ENDCHAR
STARTCHAR 007B
ENCODING 123
SWIDTH 340 0
DWIDTH 17 0
BBX 12 50 3 -8
BITMAP
00F0
07F0
0FF0
0FF0
1FF0
1F80
1F00
1F00
1F00
1F00
1F00
1F00
1F00
1F00
1F00
1F00
1F00
1F00
1F00
1F00
1F00
3F00
FE00
FE00
FC00
FC00
FE00
FE00
3F00
1F00
1F00
1F00
1F00
1F00
1F00
1F00
1F00
1F00
1F00
1F00
1F00
1F00
1F00
1F00
1F80
1FF0
0FF0
0FF0
07F0
01F0
ENDCHAR
STARTCHAR 007C
ENCODING 124
SWIDTH 180 0
DWIDTH 9 0
BBX 4 41 3 -6
BITMAP
F0
F0
F0
F0
F0
F0
F0
F0
F0
F0
F0
F0
F0
F0
F0
F0
F0
F0
F0
F0
F0
F0
F0
F0
F0
F0
F0
F0
F0
F0
F0
F0
F0
F0
F0
F0
F0
F0
F0
F0
F0
ENDCHAR
STARTCHAR 007D
ENCODING 125
SWIDTH 340 0
DWIDTH 17 0
BBX 12 50 3 -8
BITMAP
F000
FC00
FE00
FF00
FF00
3F00
1F00
1F00
1F00
1F00
1F00
1F00
1F00
1F00
1F00
1F00
1F00
1F00
1F00
1F80
0F80
0FC0
0FF0
07F0
03F0
03F0
07F0
0FF0
0FC0
0F80
0F80
1F00
1F00
1F00
1F00
1F00
1F00
1F00
1F00
1F00
1F00
1F00
1F00
1F00
1F00
FF00
FF00
FE00
FC00
F000
ENDCHAR
STARTCHAR 007E
ENCODING 126
SWIDTH 560 0
DWIDTH 28 0
BBX 22 7 3 13
BITMAP
3F0000
FFF804
FFFFFC
FFFFFC
FFFFFC
FFFFFC
001FFC
ENDCHAR
STARTCHAR 00A1
ENCODING 161
SWIDTH 280 0
DWIDTH 14 0
BBX 8 36 3 -6
BITMAP
3E
7F
FF
FF
FF
FF
7F
3E
00
00
00
00
00
7E
7E
7E
7E
7E
7E
7E
7E
7E
7E
7E
7E
7E
7E
7E
7E
7E
7E
7E
7E
7E
7E
7E
ENDCHAR
STARTCHAR 00A2
ENCODING 162
SWIDTH 520 0
DWIDTH 26 0
BBX 20 31 3 2
BITMAP
007C00
007C00
007C00
007C00
01FF80
07FFE0
0FFFF0
1FFFF0
3FFFE0
7FC3C0
7F0080
FE0000
FC0000
FC0000
FC0000
FC0000
FC0000
FC0000
FC0000
FE0000
7F0080
7FC3C0
3FFFE0
1FFFF0
0FFFF0
07FFE0
01FF80
007C00
007C00
007C00
007C00
ENDCHAR
STARTCHAR 00A3
ENCODING 163
SWIDTH 560 0
DWIDTH 28 0
BBX 23 36 3 0
BITMAP
0003F0
003FFE
00FFFE
03FFFE
07FFFE
07FFFE
0FFFFE
0FFFFE
1FF802
1FF000
1FE000
1FE000
1FE000
1FE000
1FE000
1FE000
FFFFF0
FFFFF0
FFFFF0
FFFFF0
FFFFF0
07F800
03F800
03F800
03F800
03F800
07F800
0FF800
3FF000
FFF000
FFFFFE
FFFFFE
FFFFFE
FFFFFE
FFFFFE
FFFFFE
ENDCHAR
STARTCHAR 00A4
ENCODING 164
SWIDTH 620 0
DWIDTH 31 0
BBX 25 26 3 3
BITMAP
10000000
38000600
7C1C0F00
FFFFDF80
FFFFFF80
7FFFFF00
3FFFFE00
1F80FC00
1F007E00
3E003E00
3E003E00
3C001E00
3C001F00
3C001F00
3C001E00
3E003E00
3E003E00
1F007E00
1F80FC00
1FFFFE00
3FFFFF00
7FFFFF80
FFFFFF80
7C3E1F00
38000E00
10000400
ENDCHAR
STARTCHAR 00A5
ENCODING 165
SWIDTH 680 0
DWIDTH 34 0
BBX 28 35 3 0
BITMAP
FF800FF0
7F801FF0
7FC01FE0
3FC03FE0
3FC03FC0
1FE07FC0
1FE07F80
0FF07F80
0FF0FF00
07F8FF00
07F9FE00
03FDFE00
03FFFC00
01FFFC00
01FFF800
00FFF800
00FFF000
1FFFFF00
1FFFFF00
1FFFFF00
1FFFFF00
1FFFFF00
003FC000
003FC000
1FFFFF00
1FFFFF00
1FFFFF00
1FFFFF00
1FFFFF00
003FC000
003FC000
003FC000
003FC000
003FC000
003FC000
ENDCHAR
STARTCHAR 00A6
ENCODING 166
SWIDTH 180 0
DWIDTH 9 0
BBX 4 41 3 -6
BITMAP
F0
F0
F0
F0
F0
F0
F0
F0
F0
F0
F0
F0
F0
F0
F0
F0
00
00
00
00
00
00
00
00
00
F0
F0
F0
F0
F0
F0
F0
F0
F0
F0
F0
F0
F0
F0
F0
F0
ENDCHAR
STARTCHAR 00A7
ENCODING 167
SWIDTH 500 0
DWIDTH 25 0
BBX 19 42 3 -6
BITMAP
00F000
07FE00
1FFF00
3FFF80
3FFFC0
7FFFC0
7FFFE0
7F0FE0
7F0F80
7F0400
7F8000
3FC000
1FF000
1FF800
07FE00
0FFF00
3FFF80
7FFFC0
7FFFE0
FE0FE0
FE07E0
FE07E0
FE07E0
7F9FE0
7FFFC0
3FFF80
1FFF00
0FFC00
03FF00
00FF80
007F80
001FC0
021FC0
1E0FC0
FE1FC0
FFFFC0
7FFFC0
7FFFC0
3FFF80
1FFF00
0FFE00
01F800
ENDCHAR
STARTCHAR 00A8
ENCODING 168
SWIDTH 420 0
DWIDTH 21 0
BBX 21 9 0 37
BITMAP
1C01E0
7F03F0
7F07F8
FF87F8
FF87F8
FF87F8
7F07F8
7F03F0
1C00C0
ENDCHAR
STARTCHAR 00A9
ENCODING 169
SWIDTH 840 0
DWIDTH 42 0
BBX 37 37 3 -1
BITMAP
0001FC0000
001FFFC000
007FFFF000
01FFCFF800
03F800FE00
07E0003F00
0F80000F80
1F00000780
1E000003C0
3C01FC01E0
3C07FF01E0
780FFF80F0
781FFF80F0
F03FDF0070
F03E060078
F07C000078
F07C000078
E07C000078
E07C000078
F07C000078
F07C000078
F07C000078
F03E060078
F03FDF0070
781FFF80F0
780FFF80F0
3C07FF01E0
3C01FC01E0
1E000003C0
1F000007C0
0F80000F80
07E0003F00
03F800FE00
00FFCFF800
007FFFF000
001FFFC000
0001FC0000
ENDCHAR
STARTCHAR 00AB
ENCODING 171
SWIDTH 640 0
DWIDTH 32 0
BBX 26 22 3 4
BITMAP
00FC1FC0
01FC3F80
03F83F00
07F07F00
07E0FE00
0FE1FC00
1FC1F800
3F83F800
3F07F000
7E0FE000
FE0FC000
FE0FE000
7F07F000
3F87F000
1FC3F800
0FC1FC00
0FE0FE00
07F07E00
03F87F00
01F83F80
01FC1FC0
00FE0FC0
ENDCHAR
STARTCHAR 00AC
ENCODING 172
SWIDTH 580 0
DWIDTH 29 0
BBX 23 14 3 5
BITMAP
FFFFFE
FFFFFE
FFFFFE
FFFFFE
FFFFFE
00003E
00003E
00003E
00003E
00003E
00003E
00003E
00003E
00003E
ENDCHAR
STARTCHAR 00AE
ENCODING 174
SWIDTH 520 0
DWIDTH 26 0
BBX 20 20 3 16
BITMAP
03FC00
0FFF00
1E0780
3801C0
7000E0
61F860
E1FC70
E18C30
C18C30
C3FC30
C3F830
C19C30
E19C70
E19C70
7000E0
3800E0
3C03C0
1F0F80
07FE00
01F800
ENDCHAR
STARTCHAR 00AF
ENCODING 175
SWIDTH 280 0
DWIDTH 14 0
BBX 14 5 0 39
BITMAP
FFFC
FFFC
FFFC
FFFC
FFFC
ENDCHAR
STARTCHAR 00B0
ENCODING 176
SWIDTH 360 0
DWIDTH 18 0
BBX 12 12 3 24
BITMAP
0600
3FC0
7FE0
F0E0
E070
E070
E070
E070
F0F0
79E0
7FE0
1F80
ENDCHAR
STARTCHAR 00B1
ENCODING 177
SWIDTH 580 0
DWIDTH 29 0
BBX 23 23 3 4
BITMAP
007E00
007E00
007E00
007E00
007E00
FFFFFE
FFFFFE
FFFFFE
FFFFFE
FFFFFE
FFFFFE
007E00
007E00
007E00
007E00
007E00
000000
000000
FFFFFE
FFFFFE
FFFFFE
FFFFFE
FFFFFE
ENDCHAR
STARTCHAR 00B4
ENCODING 180
SWIDTH 160 0
DWIDTH 8 0
BBX 8 6 0 39
BITMAP
1F
3E
3E
7C
78
F8
ENDCHAR
STARTCHAR 00B6
ENCODING 182
SWIDTH 540 0
DWIDTH 27 0
BBX 21 41 3 -6
BITMAP
03FC78
0FFC78
1FFC78
3FFC78
7FFC78
7FFC78
FFFC78
FFFC78
FFFC78
FFFC78
FFFC78
FFFC78
FFFC78
FFFC78
7FFC78
3FFC78
3FFC78
1FFC78
07FC78
01FC78
003C78
003C78
003C78
003C78
003C78
003C78
003C78
003C78
003C78
003C78
003C78
003C78
003C78
003C78
003C78
003C78
003C78
003C78
003C78
003C78
003C78
ENDCHAR
STARTCHAR 00B7
ENCODING 183
SWIDTH 280 0
DWIDTH 14 0
BBX 8 9 3 9
BITMAP
3C
7E
FF
FF
FF
FF
FF
7E
18
ENDCHAR
STARTCHAR 00B8
ENCODING 184
SWIDTH 220 0
DWIDTH 11 0
BBX 12 11 0 -11
BITMAP
0380
0780
0780
07E0
00E0
00F0
30F0
7FF0
FFE0
7FC0
1F80
ENDCHAR
STARTCHAR 00BB
ENCODING 187
SWIDTH 640 0
DWIDTH 32 0
BBX 26 22 3 4
BITMAP
FE0FE000
7F07F000
3F87F000
1FC3F800
1FC1FC00
0FE0FE00
07F0FE00
03F87F00
01F83F80
01FC1FC0
00FE0FC0
00FC1FC0
01FC1F80
03F83F00
03F07F00
07E0FE00
0FE1FC00
1FC1F800
3F83F800
3F07F000
7E0FE000
FE0FC000
ENDCHAR
STARTCHAR 00BF
ENCODING 191
SWIDTH 460 0
DWIDTH 23 0
BBX 17 37 3 -6
BITMAP
00E000
01F800
03F800
07FC00
07FC00
07FC00
03F800
03F800
00E000
000000
000000
000000
000000
03F800
03F800
03F800
03F000
03F000
07F000
07F000
0FE000
1FE000
1FC000
3F8000
7F0000
7F0000
FE0000
FE0000
FE1800
FE1F00
FF7F80
FFFF80
7FFF00
7FFF00
3FFE00
1FF800
03C000
ENDCHAR
STARTCHAR 00C0
ENCODING 192
SWIDTH 580 0
DWIDTH 29 0
BBX 26 45 2 0
BITMAP
03E00000
01F00000
01F00000
00F80000
00F80000
00780000
00000000
00000000
00000000
007C0000
03FF8000
07FFE000
0FFFF000
1FFFF800
3FFFF800
3FFFFC00
7FC7FC00
7F81FE00
7F01FE00
7F01FE00
7F00FE00
FF00FE00
FF00FE00
FF00FE00
FF00FE00
FF00FE00
FF00FE00
FF00FE00
FF00FE00
FF00FE00
FF00FE00
FF00FE00
FF00FE00
FF00FE00
FF00FE00
FF00FE00
FF00FE00
FF00FE00
FFFFFFC0
FFFFFFC0
FFFFFFC0
FFFFFFC0
FFFFFFC0
FFFFFFC0
FFFFFFC0
ENDCHAR
STARTCHAR 00C1
ENCODING 193
SWIDTH 580 0
DWIDTH 29 0
BBX 26 45 2 0
BITMAP
000FC000
000F8000
000F0000
001F0000
001E0000
003C0000
00000000
00000000
00000000
007C0000
03FF8000
07FFE000
0FFFF000
1FFFF800
3FFFF800
3FFFFC00
7FC7FC00
7F81FE00
7F01FE00
7F01FE00
7F00FE00
FF00FE00
FF00FE00
FF00FE00
FF00FE00
FF00FE00
FF00FE00
FF00FE00
FF00FE00
FF00FE00
FF00FE00
FF00FE00
FF00FE00
FF00FE00
FF00FE00
FF00FE00
FF00FE00
FF00FE00
FFFFFFC0
FFFFFFC0
FFFFFFC0
FFFFFFC0
FFFFFFC0
FFFFFFC0
FFFFFFC0
ENDCHAR
STARTCHAR 00C2
ENCODING 194
SWIDTH 580 0
DWIDTH 29 0
BBX 26 45 2 1
BITMAP
00180000
003C0000
007E0000
00FE0000
01FF0000
03FF8000
03FFC000
00000000
00000000
007C0000
03FF8000
07FFE000
0FFFF000
1FFFF800
3FFFF800
3FFFFC00
7FC7FC00
7F81FE00
7F01FE00
7F01FE00
7F00FE00
FF00FE00
FF00FE00
FF00FE00
FF00FE00
FF00FE00
FF00FE00
FF00FE00
FF00FE00
FF00FE00
FF00FE00
FF00FE00
FF00FE00
FF00FE00
FF00FE00
FF00FE00
FF00FE00
FF00FE00
FFFFFFC0
FFFFFFC0
FFFFFFC0
FFFFFFC0
FFFFFFC0
FFFFFFC0
FFFFFFC0
ENDCHAR
STARTCHAR 00C3
ENCODING 195
SWIDTH 580 0
DWIDTH 29 0
BBX 26 45 2 0
BITMAP
03C00000
07FF8000
07FF8000
07FF8000
07FF8000
000F0000
00000000
00000000
00000000
007C0000
03FF8000
07FFE000
0FFFF000
1FFFF800
3FFFF800
3FFFFC00
7FC7FC00
7F81FE00
7F01FE00
7F01FE00
7F00FE00
FF00FE00
FF00FE00
FF00FE00
FF00FE00
FF00FE00
FF00FE00
FF00FE00
FF00FE00
FF00FE00
FF00FE00
FF00FE00
FF00FE00
FF00FE00
FF00FE00
FF00FE00
FF00FE00
FF00FE00
FFFFFFC0
FFFFFFC0
FFFFFFC0
FFFFFFC0
FFFFFFC0
FFFFFFC0
FFFFFFC0
ENDCHAR
STARTCHAR 00C4
ENCODING 196
SWIDTH 580 0
DWIDTH 29 0
BBX 26 46 2 0
BITMAP
0F007000
1F81F800
3FC3FC00
3FC3FC00
3FC3FE00
3FC3FC00
3FC3FC00
1F81F800
06007000
00000000
007C0000
03FF8000
07FFE000
0FFFF000
1FFFF800
3FFFF800
3FFFFC00
7FC7FC00
7F81FE00
7F01FE00
7F01FE00
7F00FE00
FF00FE00
FF00FE00
FF00FE00
FF00FE00
FF00FE00
FF00FE00
FF00FE00
FF00FE00
FF00FE00
FF00FE00
FF00FE00
FF00FE00
FF00FE00
FF00FE00
FF00FE00
FF00FE00
FF00FE00
FFFFFFC0
FFFFFFC0
FFFFFFC0
FFFFFFC0
FFFFFFC0
FFFFFFC0
FFFFFFC0
ENDCHAR
STARTCHAR 00C5
ENCODING 197
SWIDTH 580 0
DWIDTH 29 0
BBX 26 48 2 0
BITMAP
007C0000
00FF0000
01FF0000
01C78000
01C38000
01C38000
01C78000
01FF0000
00FF0000
007E0000
00000000
00000000
007C0000
03FF8000
07FFE000
0FFFF000
1FFFF800
3FFFF800
3FFFFC00
7FC7FC00
7F81FE00
7F01FE00
7F01FE00
7F00FE00
FF00FE00
FF00FE00
FF00FE00
FF00FE00
FF00FE00
FF00FE00
FF00FE00
FF00FE00
FF00FE00
FF00FE00
FF00FE00
FF00FE00
FF00FE00
FF00FE00
FF00FE00
FF00FE00
FF00FE00
FFFFFFC0
FFFFFFC0
FFFFFFC0
FFFFFFC0
FFFFFFC0
FFFFFFC0
FFFFFFC0
ENDCHAR
STARTCHAR 00C7
ENCODING 199
SWIDTH 680 0
DWIDTH 34 0
BBX 31 47 2 -11
BITMAP
0000F800
001FFF80
007FFFF0
00FFFFF8
03FFFFFC
07FFFFFE
0FFFFFFE
1FFF07FC
1FF801F8
3FF00070
3FE00020
7FC00000
7F800000
FF000000
FF000000
FF000000
FE000000
FE000000
FE000000
FE000000
FF000000
FF000000
FF000000
FF000000
7F800000
7FC00000
3FE00020
3FF00070
1FF801F8
1FFF07FC
0FFFFFFE
07FFFFFE
03FFFFFC
00FFFFF8
007FFFF0
000FFFC0
0001F800
0001E000
0001E000
0001F800
00007800
00003C00
000C3C00
001FF800
003FF800
001FF000
0007E000
ENDCHAR
STARTCHAR 00C8
ENCODING 200
SWIDTH 520 0
DWIDTH 26 0
BBX 25 45 1 0
BITMAP
07C00000
03E00000
03E00000
01F00000
00F00000
00F80000
00000000
00000000
00000000
00000000
1FFFE000
1FFFE000
1FFFE000
1FFFE000
1FFFE000
1FFFE000
1FFFE000
1FE00000
1FE00000
1FE00000
1FE00000
1FE00000
1FE00000
1FE00000
FFFFF800
FFFFF800
FFFFF800
FFFFF800
FFFFF800
FFFFF800
FFFFF800
1FE00000
1FE00000
1FE00000
1FE00000
1FE00000
1FE00000
1FE00000
1FFFFF80
1FFFFF80
1FFFFF80
1FFFFF80
1FFFFF80
1FFFFF80
1FFFFF80
ENDCHAR
STARTCHAR 00C9
ENCODING 201
SWIDTH 520 0
DWIDTH 26 0
BBX 25 45 1 0
BITMAP
000F8000
001F0000
001F0000
003E0000
003C0000
007C0000
00000000
00000000
00000000
00000000
1FFFE000
1FFFE000
1FFFE000
1FFFE000
1FFFE000
1FFFE000
1FFFE000
1FE00000
1FE00000
1FE00000
1FE00000
1FE00000
1FE00000
1FE00000
FFFFF800
FFFFF800
FFFFF800
FFFFF800
FFFFF800
FFFFF800
FFFFF800
1FE00000
1FE00000
1FE00000
1FE00000
1FE00000
1FE00000
1FE00000
1FFFFF80
1FFFFF80
1FFFFF80
1FFFFF80
1FFFFF80
1FFFFF80
1FFFFF80
ENDCHAR
STARTCHAR 00CA
ENCODING 202
SWIDTH 520 0
DWIDTH 26 0
BBX 25 45 1 1
BITMAP
00300000
00780000
00FC0000
01FE0000
03FE0000
03FF0000
07FF8000
00000000
00000000
00000000
1FFFE000
1FFFE000
1FFFE000
1FFFE000
1FFFE000
1FFFE000
1FFFE000
1FE00000
1FE00000
1FE00000
1FE00000
1FE00000
1FE00000
1FE00000
FFFFF800
FFFFF800
FFFFF800
FFFFF800
FFFFF800
FFFFF800
FFFFF800
1FE00000
1FE00000
1FE00000
1FE00000
1FE00000
1FE00000
1FE00000
1FFFFF80
1FFFFF80
1FFFFF80
1FFFFF80
1FFFFF80
1FFFFF80
1FFFFF80
ENDCHAR
STARTCHAR 00CB
ENCODING 203
SWIDTH 520 0
DWIDTH 26 0
BBX 25 46 1 0
BITMAP
1E00E000
3F03F800
7F83F800
7F87FC00
7F87FC00
7F87FC00
7F83F800
3F03F000
0C00E000
00000000
00000000
1FFFE000
1FFFE000
1FFFE000
1FFFE000
1FFFE000
1FFFE000
1FFFE000
1FE00000
1FE00000
1FE00000
1FE00000
1FE00000
1FE00000
1FE00000
FFFFF800
FFFFF800
FFFFF800
FFFFF800
FFFFF800
FFFFF800
FFFFF800
1FE00000
1FE00000
1FE00000
1FE00000
1FE00000
1FE00000
1FE00000
1FFFFF80
1FFFFF80
1FFFFF80
1FFFFF80
1FFFFF80
1FFFFF80
1FFFFF80
ENDCHAR
STARTCHAR 00CC
ENCODING 204
SWIDTH 260 0
DWIDTH 13 0
BBX 9 31 1 0
BITMAP
F800
7C00
7C00
3E00
1E00
1E00
0000
0000
0000
3F80
3F80
3F80
3F80
3F80
3F80
3F80
3F80
3F80
3F80
3F80
3F80
3F80
3F80
3F80
3F80
3F80
3F80
3F80
3F80
3F80
3F80
ENDCHAR
STARTCHAR 00CD
ENCODING 205
SWIDTH 260 0
DWIDTH 13 0
BBX 9 31 3 0
BITMAP
0F80
0F80
1F00
1E00
3E00
3C00
0000
0000
0000
FE00
FE00
FE00
FE00
FE00
FE00
FE00
FE00
FE00
FE00
FE00
FE00
FE00
FE00
FE00
FE00
FE00
FE00
FE00
FE00
FE00
FE00
ENDCHAR
STARTCHAR 00CE
ENCODING 206
SWIDTH 260 0
DWIDTH 13 0
BBX 11 32 1 0
BITMAP
0400
0E00
1F00
3F80
3FC0
7FE0
FFE0
0000
0000
0000
3F80
3F80
3F80
3F80
3F80
3F80
3F80
3F80
3F80
3F80
3F80
3F80
3F80
3F80
3F80
3F80
3F80
3F80
3F80
3F80
3F80
3F80
ENDCHAR
STARTCHAR 00CF
ENCODING 207
SWIDTH 260 0
DWIDTH 13 0
BBX 21 32 -4 0
BITMAP
3E03F0
7F07F8
7F87F8
FF87F8
FF87F8
7F87F8
7F07F8
3E01E0
000000
000000
01FC00
01FC00
01FC00
01FC00
01FC00
01FC00
01FC00
01FC00
01FC00
01FC00
01FC00
01FC00
01FC00
01FC00
01FC00
01FC00
01FC00
01FC00
01FC00
01FC00
01FC00
01FC00
ENDCHAR
STARTCHAR 00D1
ENCODING 209
SWIDTH 580 0
DWIDTH 29 0
BBX 25 45 1 0
BITMAP
00F00000
01FFE000
01FFE000
01FFE000
01FFE000
0003C000
00000000
00000000
00000000
08000000
1C003F80
3F003F80
3F803F80
7FC03F80
FFE03F80
7FF83F80
3FFC3F80
1FFE3F80
1FFFBF80
1FFFFF80
1FFFFF80
1FFFFF80
1FFFFF80
1FDFFF80
1FCFFF80
1FC3FF80
1FC1FF80
1FC0FF80
1FC03F80
1FC03F80
1FC03F80
1FC03F80
1FC03F80
1FC03F80
1FC03F80
1FC03F80
1FC03F80
1FC03F80
1FC03F80
1FC03F80
1FC03F80
1FC03F80
1FC03F80
1FC03F80
1FC03F80
ENDCHAR
STARTCHAR 00D2
ENCODING 210
SWIDTH 820 0
DWIDTH 41 0
BBX 38 46 2 -1
BITMAP
0007C00000
0007E00000
0003E00000
0001E00000
0001F00000
0000F00000
0000000000
0000000000
0000000000
0001F80000
000FFFC000
007FFFF000
00FFFFFC00
03FFFFFE00
07FFFFFF00
0FFFFFFF80
1FFF07FFC0
1FF800FFE0
3FF0003FE0
3FE0001FF0
7FC0000FF0
7F80000FF8
FF000007F8
FF000007F8
FF000003F8
FE000003F8
FE000003FC
FE000003FC
FE000003FC
FF000003F8
FF000003F8
FF000007F8
FF000007F8
7F80000FF8
7FC0000FF0
3FE0001FF0
3FF0003FE0
1FF800FFE0
1FFF07FFC0
0FFFFFFF80
07FFFFFF00
03FFFFFE00
00FFFFFC00
007FFFF000
000FFFC000
0000FC0000
ENDCHAR
STARTCHAR 00D3
ENCODING 211
SWIDTH 820 0
DWIDTH 41 0
BBX 38 46 2 -1
BITMAP
00001F8000
00001F0000
00003E0000
00003E0000
00003C0000
0000780000
0000000000
0000000000
0000000000
0001F80000
000FFFC000
007FFFF000
00FFFFFC00
03FFFFFE00
07FFFFFF00
0FFFFFFF80
1FFF07FFC0
1FF800FFE0
3FF0003FE0
3FE0001FF0
7FC0000FF0
7F80000FF8
FF000007F8
FF000007F8
FF000003F8
FE000003F8
FE000003FC
FE000003FC
FE000003FC
FF000003F8
FF000003F8
FF000007F8
FF000007F8
7F80000FF8
7FC0000FF0
3FE0001FF0
3FF0003FE0
1FF800FFE0
1FFF07FFC0
0FFFFFFF80
07FFFFFF00
03FFFFFE00
00FFFFFC00
007FFFF000
000FFFC000
0000FC0000
ENDCHAR
STARTCHAR 00D4
ENCODING 212
SWIDTH 820 0
DWIDTH 41 0
BBX 38 46 2 0
BITMAP
0000300000
0000780000
0000F80000
0001FC0000
0003FE0000
0007FF0000
000FFF8000
0000000000
0000000000
0001F80000
000FFFC000
007FFFF000
00FFFFFC00
03FFFFFE00
07FFFFFF00
0FFFFFFF80
1FFF07FFC0
1FF800FFE0
3FF0003FE0
3FE0001FF0
7FC0000FF0
7F80000FF8
FF000007F8
FF000007F8
FF000003F8
FE000003F8
FE000003FC
FE000003FC
FE000003FC
FF000003F8
FF000003F8
FF000007F8
FF000007F8
7F80000FF8
7FC0000FF0
3FE0001FF0
3FF0003FE0
1FF800FFE0
1FFF07FFC0
0FFFFFFF80
07FFFFFF00
03FFFFFE00
00FFFFFC00
007FFFF000
000FFFC000
0000FC0000
ENDCHAR
STARTCHAR 00D5
ENCODING 213
SWIDTH 820 0
DWIDTH 41 0
BBX 38 46 2 -1
BITMAP
0007800000
000FFF0000
000FFF0000
000FFF0000
000FFF0000
00001E0000
0000000000
0000000000
0000000000
0001F80000
000FFFC000
007FFFF000
00FFFFFC00
03FFFFFE00
07FFFFFF00
0FFFFFFF80
1FFF07FFC0
1FF800FFE0
3FF0003FE0
3FE0001FF0
7FC0000FF0
7F80000FF8
FF000007F8
FF000007F8
FF000003F8
FE000003F8
FE000003FC
FE000003FC
FE000003FC
FF000003F8
FF000003F8
FF000007F8
FF000007F8
7F80000FF8
7FC0000FF0
3FE0001FF0
3FF0003FE0
1FF800FFE0
1FFF07FFC0
0FFFFFFF80
07FFFFFF00
03FFFFFE00
00FFFFFC00
007FFFF000
000FFFC000
0000FC0000
ENDCHAR
STARTCHAR 00D6
ENCODING 214
SWIDTH 820 0
DWIDTH 41 0
BBX 38 47 2 -1
BITMAP
001E01E000
003F03F000
007F87F800
007F87F800
00FF87F800
007F87F800
007F87F800
003F03F000
000C00C000
0000000000
0001F80000
000FFFC000
007FFFF000
00FFFFFC00
03FFFFFE00
07FFFFFF00
0FFFFFFF80
1FFF07FFC0
1FF800FFE0
3FF0003FE0
3FE0001FF0
7FC0000FF0
7F80000FF8
FF000007F8
FF000007F8
FF000003F8
FE000003F8
FE000003FC
FE000003FC
FE000003FC
FF000003F8
FF000003F8
FF000007F8
FF000007F8
7F80000FF8
7FC0000FF0
3FE0001FF0
3FF0003FE0
1FF800FFE0
1FFF07FFC0
0FFFFFFF80
07FFFFFF00
03FFFFFE00
00FFFFFC00
007FFFF000
000FFFC000
0000FC0000
ENDCHAR
STARTCHAR 00D7
ENCODING 215
SWIDTH 540 0
DWIDTH 27 0
BBX 22 21 3 7
BITMAP
180060
3C00F0
7E01F8
FF03FC
7F87F8
3FCFF0
1FFFE0
0FFFC0
07FF80
03FF00
01FE00
03FF00
07FF80
0FFFC0
1FFFE0
3FCFF0
7F87F8
FF03FC
7E01F8
3C00F0
180060
ENDCHAR
STARTCHAR 00D8
ENCODING 216
SWIDTH 800 0
DWIDTH 40 0
BBX 38 39 1 -2
BITMAP
00000000C0
00007C01E0
000FFFC1F0
003FFFFBF0
00FFFFFFE0
01FFFFFFE0
03FFFFFFC0
07FFFFFFC0
0FFF83FFC0
1FFC00FFE0
1FF000FFF0
3FE001FFF0
3FC003FFF8
7F8007F7F8
7F800FE7F8
7F801FC3FC
7F003F83FC
FF003F03FC
FF007E03FC
FF00FC01FC
FF01FC03FC
FF03F803FC
7F07F003FC
7F8FE003FC
7F9FC007F8
7F9F8007F8
3FFF000FF8
3FFE001FF0
1FFE003FF0
1FFC00FFE0
0FFF87FFC0
07FFFFFFC0
07FFFFFF80
0FFFFFFF00
1FFFFFFC00
3FBFFFF000
3F0FFFC000
1E00F80000
0C00000000
ENDCHAR
STARTCHAR 00D9
ENCODING 217
SWIDTH 540 0
DWIDTH 27 0
BBX 23 46 2 -1
BITMAP
03E000
03E000
01F000
00F000
00F800
007800
000000
000000
000000
000000
FF01FE
FF01FE
FF01FE
FF01FE
FF01FE
FF01FE
FF01FE
FF01FE
FF01FE
FF01FE
FF01FE
FF01FE
FF01FE
FF01FE
FF01FE
FF01FE
FF01FE
FF01FE
FF01FE
FF01FE
FF01FE
FF01FE
FF01FE
FF01FE
FF01FE
FF01FE
7F01FE
7F83FC
7FC7FC
7FFFFC
3FFFF8
1FFFF8
0FFFF0
07FFE0
03FF80
007C00
ENDCHAR
STARTCHAR 00DA
ENCODING 218
SWIDTH 540 0
DWIDTH 27 0
BBX 23 46 2 -1
BITMAP
000FC0
000F80
001F00
001F00
003E00
003C00
000000
000000
000000
000000
FF01FE
FF01FE
FF01FE
FF01FE
FF01FE
FF01FE
FF01FE
FF01FE
FF01FE
FF01FE
FF01FE
FF01FE
FF01FE
FF01FE
FF01FE
FF01FE
FF01FE
FF01FE
FF01FE
FF01FE
FF01FE
FF01FE
FF01FE
FF01FE
FF01FE
FF01FE
7F01FE
7F83FC
7FC7FC
7FFFFC
3FFFF8
1FFFF8
0FFFF0
07FFE0
03FF80
007C00
ENDCHAR
STARTCHAR 00DB
ENCODING 219
SWIDTH 540 0
DWIDTH 27 0
BBX 23 47 2 -1
BITMAP
001000
001800
003C00
007C00
00FE00
01FF00
03FF80
07FFC0
000000
000000
000000
FF01FE
FF01FE
FF01FE
FF01FE
FF01FE
FF01FE
FF01FE
FF01FE
FF01FE
FF01FE
FF01FE
FF01FE
FF01FE
FF01FE
FF01FE
FF01FE
FF01FE
FF01FE
FF01FE
FF01FE
FF01FE
FF01FE
FF01FE
FF01FE
FF01FE
FF01FE
7F01FE
7F83FC
7FC7FC
7FFFFC
3FFFF8
1FFFF8
0FFFF0
07FFE0
03FF80
007C00
ENDCHAR
STARTCHAR 00DC
ENCODING 220
SWIDTH 540 0
DWIDTH 27 0
BBX 23 47 2 -1
BITMAP
0E00F0
1F81F8
3FC3FC
7FC3FC
7FC3FC
3FC3FC
3FC3FC
1F81F8
0E0060
000000
000000
FF01FE
FF01FE
FF01FE
FF01FE
FF01FE
FF01FE
FF01FE
FF01FE
FF01FE
FF01FE
FF01FE
FF01FE
FF01FE
FF01FE
FF01FE
FF01FE
FF01FE
FF01FE
FF01FE
FF01FE
FF01FE
FF01FE
FF01FE
FF01FE
FF01FE
FF01FE
7F01FE
7F83FC
7FC7FC
7FFFFC
3FFFF8
1FFFF8
0FFFF0
07FFE0
03FF80
007C00
ENDCHAR
STARTCHAR 00DD
ENCODING 221
SWIDTH 520 0
DWIDTH 26 0
BBX 23 45 2 0
BITMAP
000F80
000F80
001F00
001E00
003E00
003C00
000000
000000
000000
000000
FF01FE
FF01FE
FF01FE
FF01FE
FF01FE
FF01FE
FF01FE
FF01FE
FF01FE
FF01FE
FF01FE
FF01FE
FF01FE
FF01FE
FF01FE
FF01FE
FF01FE
FF01FC
FF03FC
7F83FC
7FFFFC
3FFFF8
3FFFF8
1FFFF0
0FFFE0
07FF80
01FE00
00FE00
00FE00
00FE00
00FE00
00FE00
00FE00
00FE00
00FE00
ENDCHAR
STARTCHAR 00E0
ENCODING 224
SWIDTH 580 0
DWIDTH 29 0
BBX 26 45 2 0
BITMAP
03E00000
01F00000
01F00000
00F80000
00F80000
00780000
00000000
00000000
00000000
007C0000
03FF8000
07FFE000
0FFFF000
1FFFF800
3FFFF800
3FFFFC00
7FC7FC00
7F81FE00
7F01FE00
7F01FE00
7F00FE00
FF00FE00
FF00FE00
FF00FE00
FF00FE00
FF00FE00
FF00FE00
FF00FE00
FF00FE00
FF00FE00
FF00FE00
FF00FE00
FF00FE00
FF00FE00
FF00FE00
FF00FE00
FF00FE00
FF00FE00
FFFFFFC0
FFFFFFC0
FFFFFFC0
FFFFFFC0
FFFFFFC0
FFFFFFC0
FFFFFFC0
ENDCHAR
STARTCHAR 00E1
ENCODING 225
SWIDTH 580 0
DWIDTH 29 0
BBX 26 45 2 0
BITMAP
000FC000
000F8000
000F0000
001F0000
001E0000
003C0000
00000000
00000000
00000000
007C0000
03FF8000
07FFE000
0FFFF000
1FFFF800
3FFFF800
3FFFFC00
7FC7FC00
7F81FE00
7F01FE00
7F01FE00
7F00FE00
FF00FE00
FF00FE00
FF00FE00
FF00FE00
FF00FE00
FF00FE00
FF00FE00
FF00FE00
FF00FE00
FF00FE00
FF00FE00
FF00FE00
FF00FE00
FF00FE00
FF00FE00
FF00FE00
FF00FE00
FFFFFFC0
FFFFFFC0
FFFFFFC0
FFFFFFC0
FFFFFFC0
FFFFFFC0
FFFFFFC0
ENDCHAR
STARTCHAR 00E2
ENCODING 226
SWIDTH 580 0
DWIDTH 29 0
BBX 26 45 2 1
BITMAP
00180000
003C0000
007E0000
00FE0000
01FF0000
03FF8000
03FFC000
00000000
00000000
007C0000
03FF8000
07FFE000
0FFFF000
1FFFF800
3FFFF800
3FFFFC00
7FC7FC00
7F81FE00
7F01FE00
7F01FE00
7F00FE00
FF00FE00
FF00FE00
FF00FE00
FF00FE00
FF00FE00
FF00FE00
FF00FE00
FF00FE00
FF00FE00
FF00FE00
FF00FE00
FF00FE00
FF00FE00
FF00FE00
FF00FE00
FF00FE00
FF00FE00
FFFFFFC0
FFFFFFC0
FFFFFFC0
FFFFFFC0
FFFFFFC0
FFFFFFC0
FFFFFFC0
ENDCHAR
STARTCHAR 00E3
ENCODING 227
SWIDTH 580 0
DWIDTH 29 0
BBX 26 45 2 0
BITMAP
03C00000
07FF8000
07FF8000
07FF8000
07FF8000
000F0000
00000000
00000000
00000000
007C0000
03FF8000
07FFE000
0FFFF000
1FFFF800
3FFFF800
3FFFFC00
7FC7FC00
7F81FE00
7F01FE00
7F01FE00
7F00FE00
FF00FE00
FF00FE00
FF00FE00
FF00FE00
FF00FE00
FF00FE00
FF00FE00
FF00FE00
FF00FE00
FF00FE00
FF00FE00
FF00FE00
FF00FE00
FF00FE00
FF00FE00
FF00FE00
FF00FE00
FFFFFFC0
FFFFFFC0
FFFFFFC0
FFFFFFC0
FFFFFFC0
FFFFFFC0
FFFFFFC0
ENDCHAR
STARTCHAR 00E4
ENCODING 228
SWIDTH 580 0
DWIDTH 29 0
BBX 26 46 2 0
BITMAP
0F007000
1F81F800
3FC3FC00
3FC3FC00
3FC3FE00
3FC3FC00
3FC3FC00
1F81F800
06007000
00000000
007C0000
03FF8000
07FFE000
0FFFF000
1FFFF800
3FFFF800
3FFFFC00
7FC7FC00
7F81FE00
7F01FE00
7F01FE00
7F00FE00
FF00FE00
FF00FE00
FF00FE00
FF00FE00
FF00FE00
FF00FE00
FF00FE00
FF00FE00
FF00FE00
FF00FE00
FF00FE00
FF00FE00
FF00FE00
FF00FE00
FF00FE00
FF00FE00
FF00FE00
FFFFFFC0
FFFFFFC0
FFFFFFC0
FFFFFFC0
FFFFFFC0
FFFFFFC0
FFFFFFC0
ENDCHAR
STARTCHAR 00E5
ENCODING 229
SWIDTH 580 0
DWIDTH 29 0
BBX 26 48 2 0
BITMAP
007C0000
00FF0000
01FF0000
01C78000
01C38000
01C38000
01C78000
01FF0000
00FF0000
007E0000
00000000
00000000
007C0000
03FF8000
07FFE000
0FFFF000
1FFFF800
3FFFF800
3FFFFC00
7FC7FC00
7F81FE00
7F01FE00
7F01FE00
7F00FE00
FF00FE00
FF00FE00
FF00FE00
FF00FE00
FF00FE00
FF00FE00
FF00FE00
FF00FE00
FF00FE00
FF00FE00
FF00FE00
FF00FE00
FF00FE00
FF00FE00
FF00FE00
FF00FE00
FF00FE00
FFFFFFC0
FFFFFFC0
FFFFFFC0
FFFFFFC0
FFFFFFC0
FFFFFFC0
FFFFFFC0
ENDCHAR
STARTCHAR 00E7
ENCODING 231
SWIDTH 680 0
DWIDTH 34 0
BBX 31 47 2 -11
BITMAP
0000F800
001FFF80
007FFFF0
00FFFFF8
03FFFFFC
07FFFFFE
0FFFFFFE
1FFF07FC
1FF801F8
3FF00070
3FE00020
7FC00000
7F800000
FF000000
FF000000
FF000000
FE000000
FE000000
FE000000
FE000000
FF000000
FF000000
FF000000
FF000000
7F800000
7FC00000
3FE00020
3FF00070
1FF801F8
1FFF07FC
0FFFFFFE
07FFFFFE
03FFFFFC
00FFFFF8
007FFFF0
000FFFC0
0001F800
0001E000
0001E000
0001F800
00007800
00003C00
000C3C00
001FF800
003FF800
001FF000
0007E000
ENDCHAR
STARTCHAR 00E8
ENCODING 232
SWIDTH 520 0
DWIDTH 26 0
BBX 25 45 1 0
BITMAP
07C00000
03E00000
03E00000
01F00000
00F00000
00F80000
00000000
00000000
00000000
00000000
1FFFE000
1FFFE000
1FFFE000
1FFFE000
1FFFE000
1FFFE000
1FFFE000
1FE00000
1FE00000
1FE00000
1FE00000
1FE00000
1FE00000
1FE00000
FFFFF800
FFFFF800
FFFFF800
FFFFF800
FFFFF800
FFFFF800
FFFFF800
1FE00000
1FE00000
1FE00000
1FE00000
1FE00000
1FE00000
1FE00000
1FFFFF80
1FFFFF80
1FFFFF80
1FFFFF80
1FFFFF80
1FFFFF80
1FFFFF80
ENDCHAR
STARTCHAR 00E9
ENCODING 233
SWIDTH 520 0
DWIDTH 26 0
BBX 25 45 1 0
BITMAP
000F8000
001F0000
001F0000
003E0000
003C0000
007C0000
00000000
00000000
00000000
00000000
1FFFE000
1FFFE000
1FFFE000
1FFFE000
1FFFE000
1FFFE000
1FFFE000
1FE00000
1FE00000
1FE00000
1FE00000
1FE00000
1FE00000
1FE00000
FFFFF800
FFFFF800
FFFFF800
FFFFF800
FFFFF800
FFFFF800
FFFFF800
1FE00000
1FE00000
1FE00000
1FE00000
1FE00000
1FE00000
1FE00000
1FFFFF80
1FFFFF80
1FFFFF80
1FFFFF80
1FFFFF80
1FFFFF80
1FFFFF80
ENDCHAR
STARTCHAR 00EA
ENCODING 234
SWIDTH 520 0
DWIDTH 26 0
BBX 25 45 1 1
BITMAP
00300000
00780000
00FC0000
01FE0000
03FE0000
03FF0000
07FF8000
00000000
00000000
00000000
1FFFE000
1FFFE000
1FFFE000
1FFFE000
1FFFE000
1FFFE000
1FFFE000
1FE00000
1FE00000
1FE00000
1FE00000
1FE00000
1FE00000
1FE00000
FFFFF800
FFFFF800
FFFFF800
FFFFF800
FFFFF800
FFFFF800
FFFFF800
1FE00000
1FE00000
1FE00000
1FE00000
1FE00000
1FE00000
1FE00000
1FFFFF80
1FFFFF80
1FFFFF80
1FFFFF80
1FFFFF80
1FFFFF80
1FFFFF80
ENDCHAR
STARTCHAR 00EB
ENCODING 235
SWIDTH 520 0
DWIDTH 26 0
BBX 25 46 1 0
BITMAP
1E00E000
3F03F800
7F83F800
7F87FC00
7F87FC00
7F87FC00
7F83F800
3F03F000
0C00E000
00000000
00000000
1FFFE000
1FFFE000
1FFFE000
1FFFE000
1FFFE000
1FFFE000
1FFFE000
1FE00000
1FE00000
1FE00000
1FE00000
1FE00000
1FE00000
1FE00000
FFFFF800
FFFFF800
FFFFF800
FFFFF800
FFFFF800
FFFFF800
FFFFF800
1FE00000
1FE00000
1FE00000
1FE00000
1FE00000
1FE00000
1FE00000
1FFFFF80
1FFFFF80
1FFFFF80
1FFFFF80
1FFFFF80
1FFFFF80
1FFFFF80
ENDCHAR
STARTCHAR 00EC
ENCODING 236
SWIDTH 260 0
DWIDTH 13 0
BBX 9 31 1 0
BITMAP
F800
7C00
7C00
3E00
1E00
1E00
0000
0000
0000
3F80
3F80
3F80
3F80
3F80
3F80
3F80
3F80
3F80
3F80
3F80
3F80
3F80
3F80
3F80
3F80
3F80
3F80
3F80
3F80
3F80
3F80
ENDCHAR
STARTCHAR 00ED
ENCODING 237
SWIDTH 260 0
DWIDTH 13 0
BBX 9 31 3 0
BITMAP
0F80
0F80
1F00
1E00
3E00
3C00
0000
0000
0000
FE00
FE00
FE00
FE00
FE00
FE00
FE00
FE00
FE00
FE00
FE00
FE00
FE00
FE00
FE00
FE00
FE00
FE00
FE00
FE00
FE00
FE00
ENDCHAR
STARTCHAR 00EE
ENCODING 238
SWIDTH 260 0
DWIDTH 13 0
BBX 11 32 1 0
BITMAP
0400
0E00
1F00
3F80
3FC0
7FE0
FFE0
0000
0000
0000
3F80
3F80
3F80
3F80
3F80
3F80
3F80
3F80
3F80
3F80
3F80
3F80
3F80
3F80
3F80
3F80
3F80
3F80
3F80
3F80
3F80
3F80
ENDCHAR
STARTCHAR 00EF
ENCODING 239
SWIDTH 260 0
DWIDTH 13 0
BBX 21 32 -4 0
BITMAP
3E03F0
7F07F8
7F87F8
FF87F8
FF87F8
7F87F8
7F07F8
3E01E0
000000
000000
01FC00
01FC00
01FC00
01FC00
01FC00
01FC00
01FC00
01FC00
01FC00
01FC00
01FC00
01FC00
01FC00
01FC00
01FC00
01FC00
01FC00
01FC00
01FC00
01FC00
01FC00
01FC00
ENDCHAR
STARTCHAR 00F1
ENCODING 241
SWIDTH 580 0
DWIDTH 29 0
BBX 25 45 1 0
BITMAP
00F00000
01FFE000
01FFE000
01FFE000
01FFE000
0003C000
00000000
00000000
00000000
08000000
1C003F80
3F003F80
3F803F80
7FC03F80
FFE03F80
7FF83F80
3FFC3F80
1FFE3F80
1FFFBF80
1FFFFF80
1FFFFF80
1FFFFF80
1FFFFF80
1FDFFF80
1FCFFF80
1FC3FF80
1FC1FF80
1FC0FF80
1FC03F80
1FC03F80
1FC03F80
1FC03F80
1FC03F80
1FC03F80
1FC03F80
1FC03F80
1FC03F80
1FC03F80
1FC03F80
1FC03F80
1FC03F80
1FC03F80
1FC03F80
1FC03F80
1FC03F80
ENDCHAR
STARTCHAR 00F2
ENCODING 242
SWIDTH 820 0
DWIDTH 41 0
BBX 38 46 2 -1
BITMAP
0007C00000
0007E00000
0003E00000
0001E00000
0001F00000
0000F00000
0000000000
0000000000
0000000000
0001F80000
000FFFC000
007FFFF000
00FFFFFC00
03FFFFFE00
07FFFFFF00
0FFFFFFF80
1FFF07FFC0
1FF800FFE0
3FF0003FE0
3FE0001FF0
7FC0000FF0
7F80000FF8
FF000007F8
FF000007F8
FF000003F8
FE000003F8
FE000003FC
FE000003FC
FE000003FC
FF000003F8
FF000003F8
FF000007F8
FF000007F8
7F80000FF8
7FC0000FF0
3FE0001FF0
3FF0003FE0
1FF800FFE0
1FFF07FFC0
0FFFFFFF80
07FFFFFF00
03FFFFFE00
00FFFFFC00
007FFFF000
000FFFC000
0000FC0000
ENDCHAR
STARTCHAR 00F3
ENCODING 243
SWIDTH 820 0
DWIDTH 41 0
BBX 38 46 2 -1
BITMAP
00001F8000
00001F0000
00003E0000
00003E0000
00003C0000
0000780000
0000000000
0000000000
0000000000
0001F80000
000FFFC000
007FFFF000
00FFFFFC00
03FFFFFE00
07FFFFFF00
0FFFFFFF80
1FFF07FFC0
1FF800FFE0
3FF0003FE0
3FE0001FF0
7FC0000FF0
7F80000FF8
FF000007F8
FF000007F8
FF000003F8
FE000003F8
FE000003FC
FE000003FC
FE000003FC
FF000003F8
FF000003F8
FF000007F8
FF000007F8
7F80000FF8
7FC0000FF0
3FE0001FF0
3FF0003FE0
1FF800FFE0
1FFF07FFC0
0FFFFFFF80
07FFFFFF00
03FFFFFE00
00FFFFFC00
007FFFF000
000FFFC000
0000FC0000
ENDCHAR
STARTCHAR 00F4
ENCODING 244
SWIDTH 820 0
DWIDTH 41 0
BBX 38 46 2 0
BITMAP
0000300000
0000780000
0000F80000
0001FC0000
0003FE0000
0007FF0000
000FFF8000
0000000000
0000000000
0001F80000
000FFFC000
007FFFF000
00FFFFFC00
03FFFFFE00
07FFFFFF00
0FFFFFFF80
1FFF07FFC0
1FF800FFE0
3FF0003FE0
3FE0001FF0
7FC0000FF0
7F80000FF8
FF000007F8
FF000007F8
FF000003F8
FE000003F8
FE000003FC
FE000003FC
FE000003FC
FF000003F8
FF000003F8
FF000007F8
FF000007F8
7F80000FF8
7FC0000FF0
3FE0001FF0
3FF0003FE0
1FF800FFE0
1FFF07FFC0
0FFFFFFF80
07FFFFFF00
03FFFFFE00
00FFFFFC00
007FFFF000
000FFFC000
0000FC0000
ENDCHAR
STARTCHAR 00F5
ENCODING 245
SWIDTH 820 0
DWIDTH 41 0
BBX 38 46 2 -1
BITMAP
0007800000
000FFF0000
000FFF0000
000FFF0000
000FFF0000
00001E0000
0000000000
0000000000
0000000000
0001F80000
000FFFC000
007FFFF000
00FFFFFC00
03FFFFFE00
07FFFFFF00
0FFFFFFF80
1FFF07FFC0
1FF800FFE0
3FF0003FE0
3FE0001FF0
7FC0000FF0
7F80000FF8
FF000007F8
FF000007F8
FF000003F8
FE000003F8
FE000003FC
FE000003FC
FE000003FC
FF000003F8
FF000003F8
FF000007F8
FF000007F8
7F80000FF8
7FC0000FF0
3FE0001FF0
3FF0003FE0
1FF800FFE0
1FFF07FFC0
0FFFFFFF80
07FFFFFF00
03FFFFFE00
00FFFFFC00
007FFFF000
000FFFC000
0000FC0000
ENDCHAR
STARTCHAR 00F6
ENCODING 246
SWIDTH 820 0
DWIDTH 41 0
BBX 38 47 2 -1
BITMAP
001E01E000
003F03F000
007F87F800
007F87F800
00FF87F800
007F87F800
007F87F800
003F03F000
000C00C000
0000000000
0001F80000
000FFFC000
007FFFF000
00FFFFFC00
03FFFFFE00
07FFFFFF00
0FFFFFFF80
1FFF07FFC0
1FF800FFE0
3FF0003FE0
3FE0001FF0
7FC0000FF0
7F80000FF8
FF000007F8
FF000007F8
FF000003F8
FE000003F8
FE000003FC
FE000003FC
FE000003FC
FF000003F8
FF000003F8
FF000007F8
FF000007F8
7F80000FF8
7FC0000FF0
3FE0001FF0
3FF0003FE0
1FF800FFE0
1FFF07FFC0
0FFFFFFF80
07FFFFFF00
03FFFFFE00
00FFFFFC00
007FFFF000
000FFFC000
0000FC0000
ENDCHAR
STARTCHAR 00F7
ENCODING 247
SWIDTH 580 0
DWIDTH 29 0
BBX 23 26 3 3
BITMAP
001000
007C00
00FE00
00FE00
00FE00
00FE00
007C00
001000
000000
000000
FFFFFE
FFFFFE
FFFFFE
FFFFFE
FFFFFE
FFFFFE
000000
000000
003800
007C00
00FE00
00FE00
00FE00
00FE00
007C00
001000
ENDCHAR
STARTCHAR 00F8
ENCODING 248
SWIDTH 800 0
DWIDTH 40 0
BBX 38 39 1 -2
BITMAP
00000000C0
00007C01E0
000FFFC1F0
003FFFFBF0
00FFFFFFE0
01FFFFFFE0
03FFFFFFC0
07FFFFFFC0
0FFF83FFC0
1FFC00FFE0
1FF000FFF0
3FE001FFF0
3FC003FFF8
7F8007F7F8
7F800FE7F8
7F801FC3FC
7F003F83FC
FF003F03FC
FF007E03FC
FF00FC01FC
FF01FC03FC
FF03F803FC
7F07F003FC
7F8FE003FC
7F9FC007F8
7F9F8007F8
3FFF000FF8
3FFE001FF0
1FFE003FF0
1FFC00FFE0
0FFF87FFC0
07FFFFFFC0
07FFFFFF80
0FFFFFFF00
1FFFFFFC00
3FBFFFF000
3F0FFFC000
1E00F80000
0C00000000
ENDCHAR
STARTCHAR 00F9
ENCODING 249
SWIDTH 540 0
DWIDTH 27 0
BBX 23 46 2 -1
BITMAP
03E000
03E000
01F000
00F000
00F800
007800
000000
000000
000000
000000
FF01FE
FF01FE
FF01FE
FF01FE
FF01FE
FF01FE
FF01FE
FF01FE
FF01FE
FF01FE
FF01FE
FF01FE
FF01FE
FF01FE
FF01FE
FF01FE
FF01FE
FF01FE
FF01FE
FF01FE
FF01FE
FF01FE
FF01FE
FF01FE
FF01FE
FF01FE
7F01FE
7F83FC
7FC7FC
7FFFFC
3FFFF8
1FFFF8
0FFFF0
07FFE0
03FF80
007C00
ENDCHAR
STARTCHAR 00FA
ENCODING 250
SWIDTH 540 0
DWIDTH 27 0
BBX 23 46 2 -1
BITMAP
000FC0
000F80
001F00
001F00
003E00
003C00
000000
000000
000000
000000
FF01FE
FF01FE
FF01FE
FF01FE
FF01FE
FF01FE
FF01FE
FF01FE
FF01FE
FF01FE
FF01FE
FF01FE
FF01FE
FF01FE
FF01FE
FF01FE
FF01FE
FF01FE
FF01FE
FF01FE
FF01FE
FF01FE
FF01FE
FF01FE
FF01FE
FF01FE
7F01FE
7F83FC
7FC7FC
7FFFFC
3FFFF8
1FFFF8
0FFFF0
07FFE0
03FF80
007C00
ENDCHAR
STARTCHAR 00FB
ENCODING 251
SWIDTH 540 0
DWIDTH 27 0
BBX 23 47 2 -1
BITMAP
001000
001800
003C00
007C00
00FE00
01FF00
03FF80
07FFC0
000000
000000
000000
FF01FE
FF01FE
FF01FE
FF01FE
FF01FE
FF01FE
FF01FE
FF01FE
FF01FE
FF01FE
FF01FE
FF01FE
FF01FE
FF01FE
FF01FE
FF01FE
FF01FE
FF01FE
FF01FE
FF01FE
FF01FE
FF01FE
FF01FE
FF01FE
FF01FE
FF01FE
7F01FE
7F83FC
7FC7FC
7FFFFC
3FFFF8
1FFFF8
0FFFF0
07FFE0
03FF80
007C00
ENDCHAR
STARTCHAR 00FC
ENCODING 252
SWIDTH 540 0
DWIDTH 27 0
BBX 23 47 2 -1
BITMAP
0E00F0
1F81F8
3FC3FC
7FC3FC
7FC3FC
3FC3FC
3FC3FC
1F81F8
0E0060
000000
000000
FF01FE
FF01FE
FF01FE
FF01FE
FF01FE
FF01FE
FF01FE
FF01FE
FF01FE
FF01FE
FF01FE
FF01FE
FF01FE
FF01FE
FF01FE
FF01FE
FF01FE
FF01FE
FF01FE
FF01FE
FF01FE
FF01FE
FF01FE
FF01FE
FF01FE
FF01FE
7F01FE
7F83FC
7FC7FC
7FFFFC
3FFFF8
1FFFF8
0FFFF0
07FFE0
03FF80
007C00
ENDCHAR
STARTCHAR 00FD
ENCODING 253
SWIDTH 520 0
DWIDTH 26 0
BBX 23 45 2 0
BITMAP
000F80
000F80
001F00
001E00
003E00
003C00
000000
000000
000000
000000
FF01FE
FF01FE
FF01FE
FF01FE
FF01FE
FF01FE
FF01FE
FF01FE
FF01FE
FF01FE
FF01FE
FF01FE
FF01FE
FF01FE
FF01FE
FF01FE
FF01FE
FF01FC
FF03FC
7F83FC
7FFFFC
3FFFF8
3FFFF8
1FFFF0
0FFFE0
07FF80
01FE00
00FE00
00FE00
00FE00
00FE00
00FE00
00FE00
00FE00
00FE00
ENDCHAR
STARTCHAR 00FF
ENCODING 255
SWIDTH 520 0
DWIDTH 26 0
BBX 23 46 2 0
BITMAP
0E00F0
3F81F8
3F83FC
7FC3FC
7FC7FC
7FC3FC
3F83FC
3F81F8
0E0060
000000
000000
FF01FE
FF01FE
FF01FE
FF01FE
FF01FE
FF01FE
FF01FE
FF01FE
FF01FE
FF01FE
FF01FE
FF01FE
FF01FE
FF01FE
FF01FE
FF01FE
FF01FE
FF01FC
FF03FC
7F83FC
7FFFFC
3FFFF8
3FFFF8
1FFFF0
0FFFE0
07FF80
01FE00
00FE00
00FE00
00FE00
00FE00
00FE00
00FE00
00FE00
00FE00
ENDCHAR
STARTCHAR 0100
ENCODING 256
SWIDTH 580 0
DWIDTH 29 0
BBX 26 44 2 0
BITMAP
07FFE000
07FFE000
07FFE000
07FFE000
07FFE000
00000000
00000000
00000000
007C0000
03FF8000
07FFE000
0FFFF000
1FFFF800
3FFFF800
3FFFFC00
7FC7FC00
7F81FE00
7F01FE00
7F01FE00
7F00FE00
FF00FE00
FF00FE00
FF00FE00
FF00FE00
FF00FE00
FF00FE00
FF00FE00
FF00FE00
FF00FE00
FF00FE00
FF00FE00
FF00FE00
FF00FE00
FF00FE00
FF00FE00
FF00FE00
FF00FE00
FFFFFFC0
FFFFFFC0
FFFFFFC0
FFFFFFC0
FFFFFFC0
FFFFFFC0
FFFFFFC0
ENDCHAR
STARTCHAR 0101
ENCODING 257
SWIDTH 580 0
DWIDTH 29 0
BBX 26 44 2 0
BITMAP
07FFE000
07FFE000
07FFE000
07FFE000
07FFE000
00000000
00000000
00000000
007C0000
03FF8000
07FFE000
0FFFF000
1FFFF800
3FFFF800
3FFFFC00
7FC7FC00
7F81FE00
7F01FE00
7F01FE00
7F00FE00
FF00FE00
FF00FE00
FF00FE00
FF00FE00
FF00FE00
FF00FE00
FF00FE00
FF00FE00
FF00FE00
FF00FE00
FF00FE00
FF00FE00
FF00FE00
FF00FE00
FF00FE00
FF00FE00
FF00FE00
FFFFFFC0
FFFFFFC0
FFFFFFC0
FFFFFFC0
FFFFFFC0
FFFFFFC0
FFFFFFC0
ENDCHAR
STARTCHAR 0102
ENCODING 258
SWIDTH 580 0
DWIDTH 29 0
BBX 26 44 2 0
BITMAP
03FF8000
03FF8000
01FF8000
01FF0000
00FF0000
003C0000
00000000
00000000
007C0000
03FF8000
07FFE000
0FFFF000
1FFFF800
3FFFF800
3FFFFC00
7FC7FC00
7F81FE00
7F01FE00
7F01FE00
7F00FE00
FF00FE00
FF00FE00
FF00FE00
FF00FE00
FF00FE00
FF00FE00
FF00FE00
FF00FE00
FF00FE00
FF00FE00
FF00FE00
FF00FE00
FF00FE00
FF00FE00
FF00FE00
FF00FE00
FF00FE00
FFFFFFC0
FFFFFFC0
FFFFFFC0
FFFFFFC0
FFFFFFC0
FFFFFFC0
FFFFFFC0
ENDCHAR
STARTCHAR 0103
ENCODING 259
SWIDTH 580 0
DWIDTH 29 0
BBX 26 44 2 0
BITMAP
03FF8000
03FF8000
01FF8000
01FF0000
00FF0000
003C0000
00000000
00000000
007C0000
03FF8000
07FFE000
0FFFF000
1FFFF800
3FFFF800
3FFFFC00
7FC7FC00
7F81FE00
7F01FE00
7F01FE00
7F00FE00
FF00FE00
FF00FE00
FF00FE00
FF00FE00
FF00FE00
FF00FE00
FF00FE00
FF00FE00
FF00FE00
FF00FE00
FF00FE00
FF00FE00
FF00FE00
FF00FE00
FF00FE00
FF00FE00
FF00FE00
FFFFFFC0
FFFFFFC0
FFFFFFC0
FFFFFFC0
FFFFFFC0
FFFFFFC0
FFFFFFC0
ENDCHAR
STARTCHAR 0104
ENCODING 260
SWIDTH 580 0
DWIDTH 29 0
BBX 29 46 2 -10
BITMAP
007C0000
03FF8000
07FFE000
0FFFF000
1FFFF800
3FFFF800
3FFFFC00
7FC7FC00
7F81FE00
7F01FE00
7F01FE00
7F00FE00
FF00FE00
FF00FE00
FF00FE00
FF00FE00
FF00FE00
FF00FE00
FF00FE00
FF00FE00
FF00FE00
FF00FE00
FF00FE00
FF00FE00
FF00FE00
FF00FE00
FF00FE00
FF00FE00
FF00FE00
FFFFFFC0
FFFFFFC0
FFFFFFC0
FFFFFFC0
FFFFFFC0
FFFFFFC0
FFFFFFC0
00001F00
00003E00
00007C00
00007800
00007800
00007860
00007DF0
00007FF8
00003FF0
00000FC0
ENDCHAR
STARTCHAR 0105
ENCODING 261
SWIDTH 580 0
DWIDTH 29 0
BBX 29 46 2 -10
BITMAP
007C0000
03FF8000
07FFE000
0FFFF000
1FFFF800
3FFFF800
3FFFFC00
7FC7FC00
7F81FE00
7F01FE00
7F01FE00
7F00FE00
FF00FE00
FF00FE00
FF00FE00
FF00FE00
FF00FE00
FF00FE00
FF00FE00
FF00FE00
FF00FE00
FF00FE00
FF00FE00
FF00FE00
FF00FE00
FF00FE00
FF00FE00
FF00FE00
FF00FE00
FFFFFFC0
FFFFFFC0
FFFFFFC0
FFFFFFC0
FFFFFFC0
FFFFFFC0
FFFFFFC0
00001F00
00003E00
00007C00
00007800
00007800
00007860
00007DF0
00007FF8
00003FF0
00000FC0
ENDCHAR
STARTCHAR 0106
ENCODING 262
SWIDTH 680 0
DWIDTH 34 0
BBX 31 46 2 -1
BITMAP
00001F00
00003F00
00003E00
00003C00
00007C00
00007800
00000000
00000000
00000000
0000F800
001FFF80
007FFFF0
00FFFFF8
03FFFFFC
07FFFFFE
0FFFFFFE
1FFF07FC
1FF801F8
3FF00070
3FE00020
7FC00000
7F800000
FF000000
FF000000
FF000000
FE000000
FE000000
FE000000
FE000000
FF000000
FF000000
FF000000
FF000000
7F800000
7FC00000
3FE00020
3FF00070
1FF801F8
1FFF07FC
0FFFFFFE
07FFFFFE
03FFFFFC
00FFFFF8
007FFFF0
000FFFC0
0000F800
ENDCHAR
STARTCHAR 0107
ENCODING 263
SWIDTH 680 0
DWIDTH 34 0
BBX 31 46 2 -1
BITMAP
00001F00
00003F00
00003E00
00003C00
00007C00
00007800
00000000
00000000
00000000
0000F800
001FFF80
007FFFF0
00FFFFF8
03FFFFFC
07FFFFFE
0FFFFFFE
1FFF07FC
1FF801F8
3FF00070
3FE00020
7FC00000
7F800000
FF000000
FF000000
FF000000
FE000000
FE000000
FE000000
FE000000
FF000000
FF000000
FF000000
FF000000
7F800000
7FC00000
3FE00020
3FF00070
1FF801F8
1FFF07FC
0FFFFFFE
07FFFFFE
03FFFFFC
00FFFFF8
007FFFF0
000FFFC0
0000F800
ENDCHAR
STARTCHAR 010A
ENCODING 266
SWIDTH 680 0
DWIDTH 34 0
BBX 31 48 2 -1
BITMAP
00007000
0001FC00
0001FC00
0003FE00
0003FE00
0003FE00
0001FC00
0001FC00
00007000
00000000
00000000
0000F800
001FFF80
007FFFF0
00FFFFF8
03FFFFFC
07FFFFFE
0FFFFFFE
1FFF07FC
1FF801F8
3FF00070
3FE00020
7FC00000
7F800000
FF000000
FF000000
FF000000
FE000000
FE000000
FE000000
FE000000
FF000000
FF000000
FF000000
FF000000
7F800000
7FC00000
3FE00020
3FF00070
1FF801F8
1FFF07FC
0FFFFFFE
07FFFFFE
03FFFFFC
00FFFFF8
007FFFF0
000FFFC0
0000F800
ENDCHAR
STARTCHAR 010B
ENCODING 267
SWIDTH 680 0
DWIDTH 34 0
BBX 31 48 2 -1
BITMAP
00007000
0001FC00
0001FC00
0003FE00
0003FE00
0003FE00
0001FC00
0001FC00
00007000
00000000
00000000
0000F800
001FFF80
007FFFF0
00FFFFF8
03FFFFFC
07FFFFFE
0FFFFFFE
1FFF07FC
1FF801F8
3FF00070
3FE00020
7FC00000
7F800000
FF000000
FF000000
FF000000
FE000000
FE000000
FE000000
FE000000
FF000000
FF000000
FF000000
FF000000
7F800000
7FC00000
3FE00020
3FF00070
1FF801F8
1FFF07FC
0FFFFFFE
07FFFFFE
03FFFFFC
00FFFFF8
007FFFF0
000FFFC0
0000F800
ENDCHAR
STARTCHAR 010C
ENCODING 268
SWIDTH 680 0
DWIDTH 34 0
BBX 31 46 2 -1
BITMAP
000FFF00
0007FF00
0003FE00
0001FC00
0000F800
00007000
00006000
00000000
00000000
0000F800
001FFF80
007FFFF0
00FFFFF8
03FFFFFC
07FFFFFE
0FFFFFFE
1FFF07FC
1FF801F8
3FF00070
3FE00020
7FC00000
7F800000
FF000000
FF000000
FF000000
FE000000
FE000000
FE000000
FE000000
FF000000
FF000000
FF000000
FF000000
7F800000
7FC00000
3FE00020
3FF00070
1FF801F8
1FFF07FC
0FFFFFFE
07FFFFFE
03FFFFFC
00FFFFF8
007FFFF0
000FFFC0
0000F800
ENDCHAR
STARTCHAR 010D
ENCODING 269
SWIDTH 680 0
DWIDTH 34 0
BBX 31 46 2 -1
BITMAP
000FFF00
0007FF00
0003FE00
0001FC00
0000F800
00007000
00006000
00000000
00000000
0000F800
001FFF80
007FFFF0
00FFFFF8
03FFFFFC
07FFFFFE
0FFFFFFE
1FFF07FC
1FF801F8
3FF00070
3FE00020
7FC00000
7F800000
FF000000
FF000000
FF000000
FE000000
FE000000
FE000000
FE000000
FF000000
FF000000
FF000000
FF000000
7F800000
7FC00000
3FE00020
3FF00070
1FF801F8
1FFF07FC
0FFFFFFE
07FFFFFE
03FFFFFC
00FFFFF8
007FFFF0
000FFFC0
0000F800
ENDCHAR
STARTCHAR 010E
ENCODING 270
SWIDTH 680 0
DWIDTH 34 0
BBX 30 45 3 0
BITMAP
07FFC000
03FF8000
01FF0000
00FE0000
007C0000
00380000
00100000
00100000
00000000
00000000
FFFF0000
FFFFF000
FFFFFC00
FFFFFE00
FFFFFF00
FFFFFF80
FFFFFFC0
FE01FFE0
FE007FF0
FE001FF0
FE000FF8
FE0007F8
FE0007F8
FE0003F8
FE0003FC
FE0003FC
FE0003FC
FE0003FC
FE0003FC
FE0003FC
FE0003FC
FE0003F8
FE0007F8
FE0007F8
FE000FF8
FE001FF0
FE007FF0
FE01FFE0
FFFFFFC0
FFFFFF80
FFFFFF00
FFFFFE00
FFFFFC00
FFFFF000
FFFF0000
ENDCHAR
STARTCHAR 010F
ENCODING 271
SWIDTH 680 0
DWIDTH 34 0
BBX 30 45 3 0
BITMAP
07FFC000
03FF8000
01FF0000
00FE0000
007C0000
00380000
00100000
00100000
00000000
00000000
FFFF0000
FFFFF000
FFFFFC00
FFFFFE00
FFFFFF00
FFFFFF80
FFFFFFC0
FE01FFE0
FE007FF0
FE001FF0
FE000FF8
FE0007F8
FE0007F8
FE0003F8
FE0003FC
FE0003FC
FE0003FC
FE0003FC
FE0003FC
FE0003FC
FE0003FC
FE0003F8
FE0007F8
FE0007F8
FE000FF8
FE001FF0
FE007FF0
FE01FFE0
FFFFFFC0
FFFFFF80
FFFFFF00
FFFFFE00
FFFFFC00
FFFFF000
FFFF0000
ENDCHAR
STARTCHAR 0110
ENCODING 272
SWIDTH 700 0
DWIDTH 35 0
BBX 33 35 1 0
BITMAP
1FFFF00000
1FFFFE0000
1FFFFF8000
1FFFFFC000
1FFFFFF000
1FFFFFF800
1FFFFFFC00
1FE03FFC00
1FE007FE00
1FE003FE00
1FE001FF00
1FE000FF00
1FE000FF00
1FE0007F80
FFFFC07F80
FFFFC07F80
FFFFC07F80
FFFFC07F80
FFFFC07F80
FFFFC07F80
FFFFC07F80
1FE0007F80
1FE000FF00
1FE000FF00
1FE001FF00
1FE003FE00
1FE007FE00
1FE03FFC00
1FFFFFFC00
1FFFFFF800
1FFFFFF000
1FFFFFE000
1FFFFF8000
1FFFFE0000
1FFFF00000
ENDCHAR
STARTCHAR 0111
ENCODING 273
SWIDTH 700 0
DWIDTH 35 0
BBX 33 35 1 0
BITMAP
1FFFF00000
1FFFFE0000
1FFFFF8000
1FFFFFC000
1FFFFFF000
1FFFFFF800
1FFFFFFC00
1FE03FFC00
1FE007FE00
1FE003FE00
1FE001FF00
1FE000FF00
1FE000FF00
1FE0007F80
FFFFC07F80
FFFFC07F80
FFFFC07F80
FFFFC07F80
FFFFC07F80
FFFFC07F80
FFFFC07F80
1FE0007F80
1FE000FF00
1FE000FF00
1FE001FF00
1FE003FE00
1FE007FE00
1FE03FFC00
1FFFFFFC00
1FFFFFF800
1FFFFFF000
1FFFFFE000
1FFFFF8000
1FFFFE0000
1FFFF00000
ENDCHAR
STARTCHAR 0112
ENCODING 274
SWIDTH 520 0
DWIDTH 26 0
BBX 25 44 1 0
BITMAP
0FFFC000
0FFFC000
0FFFC000
0FFFC000
0FFFC000
00000000
00000000
00000000
00000000
1FFFE000
1FFFE000
1FFFE000
1FFFE000
1FFFE000
1FFFE000
1FFFE000
1FE00000
1FE00000
1FE00000
1FE00000
1FE00000
1FE00000
1FE00000
FFFFF800
FFFFF800
FFFFF800
FFFFF800
FFFFF800
FFFFF800
FFFFF800
1FE00000
1FE00000
1FE00000
1FE00000
1FE00000
1FE00000
1FE00000
1FFFFF80
1FFFFF80
1FFFFF80
1FFFFF80
1FFFFF80
1FFFFF80
1FFFFF80
ENDCHAR
STARTCHAR 0113
ENCODING 275
SWIDTH 520 0
DWIDTH 26 0
BBX 25 44 1 0
BITMAP
0FFFC000
0FFFC000
0FFFC000
0FFFC000
0FFFC000
00000000
00000000
00000000
00000000
1FFFE000
1FFFE000
1FFFE000
1FFFE000
1FFFE000
1FFFE000
1FFFE000
1FE00000
1FE00000
1FE00000
1FE00000
1FE00000
1FE00000
1FE00000
FFFFF800
FFFFF800
FFFFF800
FFFFF800
FFFFF800
FFFFF800
FFFFF800
1FE00000
1FE00000
1FE00000
1FE00000
1FE00000
1FE00000
1FE00000
1FFFFF80
1FFFFF80
1FFFFF80
1FFFFF80
1FFFFF80
1FFFFF80
1FFFFF80
ENDCHAR
STARTCHAR 0116
ENCODING 278
SWIDTH 520 0
DWIDTH 26 0
BBX 25 47 1 0
BITMAP
00380000
00FC0000
01FE0000
01FE0000
01FF0000
01FE0000
01FE0000
00FC0000
00780000
00000000
00000000
00000000
1FFFE000
1FFFE000
1FFFE000
1FFFE000
1FFFE000
1FFFE000
1FFFE000
1FE00000
1FE00000
1FE00000
1FE00000
1FE00000
1FE00000
1FE00000
FFFFF800
FFFFF800
FFFFF800
FFFFF800
FFFFF800
FFFFF800
FFFFF800
1FE00000
1FE00000
1FE00000
1FE00000
1FE00000
1FE00000
1FE00000
1FFFFF80
1FFFFF80
1FFFFF80
1FFFFF80
1FFFFF80
1FFFFF80
1FFFFF80
ENDCHAR
STARTCHAR 0117
ENCODING 279
SWIDTH 520 0
DWIDTH 26 0
BBX 25 47 1 0
BITMAP
00380000
00FC0000
01FE0000
01FE0000
01FF0000
01FE0000
01FE0000
00FC0000
00780000
00000000
00000000
00000000
1FFFE000
1FFFE000
1FFFE000
1FFFE000
1FFFE000
1FFFE000
1FFFE000
1FE00000
1FE00000
1FE00000
1FE00000
1FE00000
1FE00000
1FE00000
FFFFF800
FFFFF800
FFFFF800
FFFFF800
FFFFF800
FFFFF800
FFFFF800
1FE00000
1FE00000
1FE00000
1FE00000
1FE00000
1FE00000
1FE00000
1FFFFF80
1FFFFF80
1FFFFF80
1FFFFF80
1FFFFF80
1FFFFF80
1FFFFF80
ENDCHAR
STARTCHAR 0118
ENCODING 280
SWIDTH 520 0
DWIDTH 26 0
BBX 27 45 1 -10
BITMAP
1FFFE000
1FFFE000
1FFFE000
1FFFE000
1FFFE000
1FFFE000
1FFFE000
1FE00000
1FE00000
1FE00000
1FE00000
1FE00000
1FE00000
1FE00000
FFFFF800
FFFFF800
FFFFF800
FFFFF800
FFFFF800
FFFFF800
FFFFF800
1FE00000
1FE00000
1FE00000
1FE00000
1FE00000
1FE00000
1FE00000
1FFFFF80
1FFFFF80
1FFFFF80
1FFFFF80
1FFFFF80
1FFFFF80
1FFFFF80
00003E00
00007800
0000F000
0000E000
0001E000
0001E080
0001FBC0
0000FFE0
00007FC0
00003F80
ENDCHAR
STARTCHAR 0119
ENCODING 281
SWIDTH 520 0
DWIDTH 26 0
BBX 27 45 1 -10
BITMAP
1FFFE000
1FFFE000
1FFFE000
1FFFE000
1FFFE000
1FFFE000
1FFFE000
1FE00000
1FE00000
1FE00000
1FE00000
1FE00000
1FE00000
1FE00000
FFFFF800
FFFFF800
FFFFF800
FFFFF800
FFFFF800
FFFFF800
FFFFF800
1FE00000
1FE00000
1FE00000
1FE00000
1FE00000
1FE00000
1FE00000
1FFFFF80
1FFFFF80
1FFFFF80
1FFFFF80
1FFFFF80
1FFFFF80
1FFFFF80
00003E00
00007800
0000F000
0000E000
0001E000
0001E080
0001FBC0
0000FFE0
00007FC0
00003F80
ENDCHAR
STARTCHAR 011A
ENCODING 282
SWIDTH 520 0
DWIDTH 26 0
BBX 25 45 1 0
BITMAP
07FF8000
03FF0000
01FE0000
01FC0000
00FC0000
00780000
00300000
00000000
00000000
00000000
1FFFE000
1FFFE000
1FFFE000
1FFFE000
1FFFE000
1FFFE000
1FFFE000
1FE00000
1FE00000
1FE00000
1FE00000
1FE00000
1FE00000
1FE00000
FFFFF800
FFFFF800
FFFFF800
FFFFF800
FFFFF800
FFFFF800
FFFFF800
1FE00000
1FE00000
1FE00000
1FE00000
1FE00000
1FE00000
1FE00000
1FFFFF80
1FFFFF80
1FFFFF80
1FFFFF80
1FFFFF80
1FFFFF80
1FFFFF80
ENDCHAR
STARTCHAR 011B
ENCODING 283
SWIDTH 520 0
DWIDTH 26 0
BBX 25 45 1 0
BITMAP
07FF8000
03FF0000
01FE0000
01FC0000
00FC0000
00780000
00300000
00000000
00000000
00000000
1FFFE000
1FFFE000
1FFFE000
1FFFE000
1FFFE000
1FFFE000
1FFFE000
1FE00000
1FE00000
1FE00000
1FE00000
1FE00000
1FE00000
1FE00000
FFFFF800
FFFFF800
FFFFF800
FFFFF800
FFFFF800
FFFFF800
FFFFF800
1FE00000
1FE00000
1FE00000
1FE00000
1FE00000
1FE00000
1FE00000
1FFFFF80
1FFFFF80
1FFFFF80
1FFFFF80
1FFFFF80
1FFFFF80
1FFFFF80
ENDCHAR
STARTCHAR 011E
ENCODING 286
SWIDTH 820 0
DWIDTH 41 0
BBX 39 45 2 -1
BITMAP
0007FF0000
0007FF0000
0007FE0000
0003FE0000
0003FC0000
0000F00000
0000000000
0000000000
0001F80000
000FFFC000
007FFFF000
00FFFFF800
03FFFFFC00
07FFFFFE00
0FFFFFFE00
1FFF07FC00
1FF800F800
3FF0007000
3FE0002000
7FC0000000
7F80000000
FF00000000
FF00000000
FF003FFFFE
FE003FFFFE
FE003FFFFE
FE003FFFFE
FE003FFFFE
FF003FFFFE
FF003FFFFE
FF00000FF0
FF00000FF0
7F80001FF0
7FC0001FE0
3FE0003FE0
3FF0007FC0
1FF800FFC0
1FFF07FF80
0FFFFFFF00
07FFFFFF00
03FFFFFE00
00FFFFF800
007FFFF000
000FFFC000
0000FC0000
ENDCHAR
STARTCHAR 011F
ENCODING 287
SWIDTH 820 0
DWIDTH 41 0
BBX 39 45 2 -1
BITMAP
0007FF0000
0007FF0000
0007FE0000
0003FE0000
0003FC0000
0000F00000
0000000000
0000000000
0001F80000
000FFFC000
007FFFF000
00FFFFF800
03FFFFFC00
07FFFFFE00
0FFFFFFE00
1FFF07FC00
1FF800F800
3FF0007000
3FE0002000
7FC0000000
7F80000000
FF00000000
FF00000000
FF003FFFFE
FE003FFFFE
FE003FFFFE
FE003FFFFE
FE003FFFFE
FF003FFFFE
FF003FFFFE
FF00000FF0
FF00000FF0
7F80001FF0
7FC0001FE0
3FE0003FE0
3FF0007FC0
1FF800FFC0
1FFF07FF80
0FFFFFFF00
07FFFFFF00
03FFFFFE00
00FFFFF800
007FFFF000
000FFFC000
0000FC0000
ENDCHAR
STARTCHAR 0120
ENCODING 288
SWIDTH 820 0
DWIDTH 41 0
BBX 39 48 2 -1
BITMAP
0000600000
0001F80000
0001FC0000
0003FE0000
0003FE0000
0003FE0000
0001FC0000
0001FC0000
0000700000
0000000000
0000000000
0001F80000
000FFFC000
007FFFF000
00FFFFF800
03FFFFFC00
07FFFFFE00
0FFFFFFE00
1FFF07FC00
1FF800F800
3FF0007000
3FE0002000
7FC0000000
7F80000000
FF00000000
FF00000000
FF003FFFFE
FE003FFFFE
FE003FFFFE
FE003FFFFE
FE003FFFFE
FF003FFFFE
FF003FFFFE
FF00000FF0
FF00000FF0
7F80001FF0
7FC0001FE0
3FE0003FE0
3FF0007FC0
1FF800FFC0
1FFF07FF80
0FFFFFFF00
07FFFFFF00
03FFFFFE00
00FFFFF800
007FFFF000
000FFFC000
0000FC0000
ENDCHAR
STARTCHAR 0121
ENCODING 289
SWIDTH 820 0
DWIDTH 41 0
BBX 39 48 2 -1
BITMAP
0000600000
0001F80000
0001FC0000
0003FE0000
0003FE0000
0003FE0000
0001FC0000
0001FC0000
0000700000
0000000000
0000000000
0001F80000
000FFFC000
007FFFF000
00FFFFF800
03FFFFFC00
07FFFFFE00
0FFFFFFE00
1FFF07FC00
1FF800F800
3FF0007000
3FE0002000
7FC0000000
7F80000000
FF00000000
FF00000000
FF003FFFFE
FE003FFFFE
FE003FFFFE
FE003FFFFE
FE003FFFFE
FF003FFFFE
FF003FFFFE
FF00000FF0
FF00000FF0
7F80001FF0
7FC0001FE0
3FE0003FE0
3FF0007FC0
1FF800FFC0
1FFF07FF80
0FFFFFFF00
07FFFFFF00
03FFFFFE00
00FFFFF800
007FFFF000
000FFFC000
0000FC0000
ENDCHAR
STARTCHAR 0124
ENCODING 292
SWIDTH 580 0
DWIDTH 29 0
BBX 26 46 1 0
BITMAP
00020000
00030000
00078000
000F8000
001FC000
003FE000
007FF000
00FFF800
00000000
00000000
00000000
1FE03FC0
1FE03FC0
1FE03FC0
1FE03FC0
1FE03FC0
1FE03FC0
1FE03FC0
1FE03FC0
1FE03FC0
1FE03FC0
1FE03FC0
1FE03FC0
1FE03FC0
1FE03FC0
1FE03FC0
FFFFFFC0
FFFFFFC0
FFFFFFC0
FFFFFFC0
FFFFFFC0
FFFFFFC0
FFFFFFC0
FFFFFFC0
1FE03FC0
1FE03FC0
1FE03FC0
1FE03FC0
1FE03FC0
1FE03FC0
1FE03FC0
1FE03FC0
1FE03FC0
1FE03FC0
1FE03FC0
1FE03FC0
ENDCHAR
STARTCHAR 0125
ENCODING 293
SWIDTH 580 0
DWIDTH 29 0
BBX 26 46 1 0
BITMAP
00020000
00030000
00078000
000F8000
001FC000
003FE000
007FF000
00FFF800
00000000
00000000
00000000
1FE03FC0
1FE03FC0
1FE03FC0
1FE03FC0
1FE03FC0
1FE03FC0
1FE03FC0
1FE03FC0
1FE03FC0
1FE03FC0
1FE03FC0
1FE03FC0
1FE03FC0
1FE03FC0
1FE03FC0
FFFFFFC0
FFFFFFC0
FFFFFFC0
FFFFFFC0
FFFFFFC0
FFFFFFC0
FFFFFFC0
FFFFFFC0
1FE03FC0
1FE03FC0
1FE03FC0
1FE03FC0
1FE03FC0
1FE03FC0
1FE03FC0
1FE03FC0
1FE03FC0
1FE03FC0
1FE03FC0
1FE03FC0
ENDCHAR
STARTCHAR 0128
ENCODING 296
SWIDTH 260 0
DWIDTH 13 0
BBX 12 31 0 0
BITMAP
FE10
FFF0
FFF0
FFF0
87F0
0000
0000
0000
0000
1FC0
1FC0
1FC0
1FC0
1FC0
1FC0
1FC0
1FC0
1FC0
1FC0
1FC0
1FC0
1FC0
1FC0
1FC0
1FC0
1FC0
1FC0
1FC0
1FC0
1FC0
1FC0
ENDCHAR
STARTCHAR 0129
ENCODING 297
SWIDTH 260 0
DWIDTH 13 0
BBX 12 31 0 0
BITMAP
FE10
FFF0
FFF0
FFF0
87F0
0000
0000
0000
0000
1FC0
1FC0
1FC0
1FC0
1FC0
1FC0
1FC0
1FC0
1FC0
1FC0
1FC0
1FC0
1FC0
1FC0
1FC0
1FC0
1FC0
1FC0
1FC0
1FC0
1FC0
1FC0
ENDCHAR
STARTCHAR 012A
ENCODING 298
SWIDTH 260 0
DWIDTH 13 0
BBX 15 31 -1 0
BITMAP
FFFE
FFFE
FFFE
FFFE
FFFE
FFFE
0000
0000
0000
0FE0
0FE0
0FE0
0FE0
0FE0
0FE0
0FE0
0FE0
0FE0
0FE0
0FE0
0FE0
0FE0
0FE0
0FE0
0FE0
0FE0
0FE0
0FE0
0FE0
0FE0
0FE0
ENDCHAR
STARTCHAR 012B
ENCODING 299
SWIDTH 260 0
DWIDTH 13 0
BBX 15 31 -1 0
BITMAP
FFFE
FFFE
FFFE
FFFE
FFFE
FFFE
0000
0000
0000
0FE0
0FE0
0FE0
0FE0
0FE0
0FE0
0FE0
0FE0
0FE0
0FE0
0FE0
0FE0
0FE0
0FE0
0FE0
0FE0
0FE0
0FE0
0FE0
0FE0
0FE0
0FE0
ENDCHAR
STARTCHAR 012E
ENCODING 302
SWIDTH 240 0
DWIDTH 12 0
BBX 15 50 -1 -9
BITMAP
0100
0300
0380
0380
0780
FFFE
7FFC
3FF0
1FE0
0FE0
1FE0
1FE0
1C70
1010
0000
0000
0000
0000
0FE0
0FE0
0FE0
0FE0
0FE0
0FE0
0FE0
0FE0
0FE0
0FE0
0FE0
0FE0
0FE0
0FE0
0FE0
0FE0
0FE0
0FE0
0FE0
0FE0
0FE0
0FE0
0F80
1E00
3C00
3C00
3C00
3C30
3EF8
3FF8
1FF0
0FE0
ENDCHAR
STARTCHAR 012F
ENCODING 303
SWIDTH 240 0
DWIDTH 12 0
BBX 15 50 -1 -9
BITMAP
0100
0300
0380
0380
0780
FFFE
7FFC
3FF0
1FE0
0FE0
1FE0
1FE0
1C70
1010
0000
0000
0000
0000
0FE0
0FE0
0FE0
0FE0
0FE0
0FE0
0FE0
0FE0
0FE0
0FE0
0FE0
0FE0
0FE0
0FE0
0FE0
0FE0
0FE0
0FE0
0FE0
0FE0
0FE0
0FE0
0F80
1E00
3C00
3C00
3C00
3C30
3EF8
3FF8
1FF0
0FE0
ENDCHAR
STARTCHAR 0130
ENCODING 304
SWIDTH 260 0
DWIDTH 13 0
BBX 9 33 2 0
BITMAP
3E00
7F00
7F80
7F80
FF80
7F80
7F00
3F00
0000
0000
0000
7F00
7F00
7F00
7F00
7F00
7F00
7F00
7F00
7F00
7F00
7F00
7F00
7F00
7F00
7F00
7F00
7F00
7F00
7F00
7F00
7F00
7F00
ENDCHAR
STARTCHAR 0139
ENCODING 313
SWIDTH 460 0
DWIDTH 23 0
BBX 19 45 3 0
BITMAP
0FC000
0F8000
1F0000
1F0000
3E0000
3C0000
000000
000000
000000
000000
FE0000
FE0000
FE0000
FE0000
FE0000
FE0000
FE0000
FE0000
FE0000
FE0000
FE0000
FE0000
FE0000
FE0000
FE0000
FE0000
FE0000
FE0000
FE0000
FE0000
FE0000
FE0000
FE0000
FE0000
FE0000
FE0000
FE0000
FE0000
FFFFE0
FFFFE0
FFFFE0
FFFFE0
FFFFE0
FFFFE0
FFFFE0
ENDCHAR
STARTCHAR 013A
ENCODING 314
SWIDTH 460 0
DWIDTH 23 0
BBX 19 45 3 0
BITMAP
0FC000
0F8000
1F0000
1F0000
3E0000
3C0000
000000
000000
000000
000000
FE0000
FE0000
FE0000
FE0000
FE0000
FE0000
FE0000
FE0000
FE0000
FE0000
FE0000
FE0000
FE0000
FE0000
FE0000
FE0000
FE0000
FE0000
FE0000
FE0000
FE0000
FE0000
FE0000
FE0000
FE0000
FE0000
FE0000
FE0000
FFFFE0
FFFFE0
FFFFE0
FFFFE0
FFFFE0
FFFFE0
FFFFE0
ENDCHAR
STARTCHAR 013D
ENCODING 317
SWIDTH 460 0
DWIDTH 23 0
BBX 22 45 0 0
BITMAP
FFF800
7FF000
3FE000
1FC000
0F8000
070000
030000
000000
000000
000000
1FC000
1FC000
1FC000
1FC000
1FC000
1FC000
1FC000
1FC000
1FC000
1FC000
1FC000
1FC000
1FC000
1FC000
1FC000
1FC000
1FC000
1FC000
1FC000
1FC000
1FC000
1FC000
1FC000
1FC000
1FC000
1FC000
1FC000
1FC000
1FFFFC
1FFFFC
1FFFFC
1FFFFC
1FFFFC
1FFFFC
1FFFFC
ENDCHAR
STARTCHAR 013E
ENCODING 318
SWIDTH 460 0
DWIDTH 23 0
BBX 22 45 0 0
BITMAP
FFF800
7FF000
3FE000
1FC000
0F8000
070000
030000
000000
000000
000000
1FC000
1FC000
1FC000
1FC000
1FC000
1FC000
1FC000
1FC000
1FC000
1FC000
1FC000
1FC000
1FC000
1FC000
1FC000
1FC000
1FC000
1FC000
1FC000
1FC000
1FC000
1FC000
1FC000
1FC000
1FC000
1FC000
1FC000
1FC000
1FFFFC
1FFFFC
1FFFFC
1FFFFC
1FFFFC
1FFFFC
1FFFFC
ENDCHAR
STARTCHAR 0141
ENCODING 321
SWIDTH 520 0
DWIDTH 26 0
BBX 24 35 1 0
BITMAP
07F000
07F000
07F000
07F000
07F000
07F000
07F000
07F000
07F000
07F000
07F040
07F1C0
07F7E0
07FFF0
07FFC0
07FF00
07FC00
0FF000
3FF000
FFF000
FFF000
77F000
67F000
07F000
07F000
07F000
07F000
07F000
07FFFF
07FFFF
07FFFF
07FFFF
07FFFF
07FFFF
07FFFF
ENDCHAR
STARTCHAR 0142
ENCODING 322
SWIDTH 520 0
DWIDTH 26 0
BBX 24 35 1 0
BITMAP
07F000
07F000
07F000
07F000
07F000
07F000
07F000
07F000
07F000
07F000
07F040
07F1C0
07F7E0
07FFF0
07FFC0
07FF00
07FC00
0FF000
3FF000
FFF000
FFF000
77F000
67F000
07F000
07F000
07F000
07F000
07F000
07FFFF
07FFFF
07FFFF
07FFFF
07FFFF
07FFFF
07FFFF
ENDCHAR
STARTCHAR 0143
ENCODING 323
SWIDTH 580 0
DWIDTH 29 0
BBX 25 45 1 0
BITMAP
0003F000
0003E000
0007C000
0007C000
00078000
000F0000
00000000
00000000
00000000
08000000
1C003F80
3F003F80
3F803F80
7FC03F80
FFE03F80
7FF83F80
3FFC3F80
1FFE3F80
1FFFBF80
1FFFFF80
1FFFFF80
1FFFFF80
1FFFFF80
1FDFFF80
1FCFFF80
1FC3FF80
1FC1FF80
1FC0FF80
1FC03F80
1FC03F80
1FC03F80
1FC03F80
1FC03F80
1FC03F80
1FC03F80
1FC03F80
1FC03F80
1FC03F80
1FC03F80
1FC03F80
1FC03F80
1FC03F80
1FC03F80
1FC03F80
1FC03F80
ENDCHAR
STARTCHAR 0144
ENCODING 324
SWIDTH 580 0
DWIDTH 29 0
BBX 25 45 1 0
BITMAP
0003F000
0003E000
0007C000
0007C000
00078000
000F0000
00000000
00000000
00000000
08000000
1C003F80
3F003F80
3F803F80
7FC03F80
FFE03F80
7FF83F80
3FFC3F80
1FFE3F80
1FFFBF80
1FFFFF80
1FFFFF80
1FFFFF80
1FFFFF80
1FDFFF80
1FCFFF80
1FC3FF80
1FC1FF80
1FC0FF80
1FC03F80
1FC03F80
1FC03F80
1FC03F80
1FC03F80
1FC03F80
1FC03F80
1FC03F80
1FC03F80
1FC03F80
1FC03F80
1FC03F80
1FC03F80
1FC03F80
1FC03F80
1FC03F80
1FC03F80
ENDCHAR
STARTCHAR 0147
ENCODING 327
SWIDTH 580 0
DWIDTH 29 0
BBX 25 45 1 0
BITMAP
00FFF000
00FFE000
007FC000
003F8000
001F0000
000E0000
00060000
00000000
00000000
08000000
1C003F80
3F003F80
3F803F80
7FC03F80
FFE03F80
7FF83F80
3FFC3F80
1FFE3F80
1FFFBF80
1FFFFF80
1FFFFF80
1FFFFF80
1FFFFF80
1FDFFF80
1FCFFF80
1FC3FF80
1FC1FF80
1FC0FF80
1FC03F80
1FC03F80
1FC03F80
1FC03F80
1FC03F80
1FC03F80
1FC03F80
1FC03F80
1FC03F80
1FC03F80
1FC03F80
1FC03F80
1FC03F80
1FC03F80
1FC03F80
1FC03F80
1FC03F80
ENDCHAR
STARTCHAR 0148
ENCODING 328
SWIDTH 580 0
DWIDTH 29 0
BBX 25 45 1 0
BITMAP
00FFF000
00FFE000
007FC000
003F8000
001F0000
000E0000
00060000
00000000
00000000
08000000
1C003F80
3F003F80
3F803F80
7FC03F80
FFE03F80
7FF83F80
3FFC3F80
1FFE3F80
1FFFBF80
1FFFFF80
1FFFFF80
1FFFFF80
1FFFFF80
1FDFFF80
1FCFFF80
1FC3FF80
1FC1FF80
1FC0FF80
1FC03F80
1FC03F80
1FC03F80
1FC03F80
1FC03F80
1FC03F80
1FC03F80
1FC03F80
1FC03F80
1FC03F80
1FC03F80
1FC03F80
1FC03F80
1FC03F80
1FC03F80
1FC03F80
1FC03F80
ENDCHAR
STARTCHAR 014C
ENCODING 332
SWIDTH 820 0
DWIDTH 41 0
BBX 38 45 2 -1
BITMAP
000FFFC000
000FFFC000
000FFFC000
000FFFC000
000FFFC000
0000000000
0000000000
0000000000
0001F80000
000FFFC000
007FFFF000
00FFFFFC00
03FFFFFE00
07FFFFFF00
0FFFFFFF80
1FFF07FFC0
1FF800FFE0
3FF0003FE0
3FE0001FF0
7FC0000FF0
7F80000FF8
FF000007F8
FF000007F8
FF000003F8
FE000003F8
FE000003FC
FE000003FC
FE000003FC
FF000003F8
FF000003F8
FF000007F8
FF000007F8
7F80000FF8
7FC0000FF0
3FE0001FF0
3FF0003FE0
1FF800FFE0
1FFF07FFC0
0FFFFFFF80
07FFFFFF00
03FFFFFE00
00FFFFFC00
007FFFF000
000FFFC000
0000FC0000
ENDCHAR
STARTCHAR 014D
ENCODING 333
SWIDTH 820 0
DWIDTH 41 0
BBX 38 45 2 -1
BITMAP
000FFFC000
000FFFC000
000FFFC000
000FFFC000
000FFFC000
0000000000
0000000000
0000000000
0001F80000
000FFFC000
007FFFF000
00FFFFFC00
03FFFFFE00
07FFFFFF00
0FFFFFFF80
1FFF07FFC0
1FF800FFE0
3FF0003FE0
3FE0001FF0
7FC0000FF0
7F80000FF8
FF000007F8
FF000007F8
FF000003F8
FE000003F8
FE000003FC
FE000003FC
FE000003FC
FF000003F8
FF000003F8
FF000007F8
FF000007F8
7F80000FF8
7FC0000FF0
3FE0001FF0
3FF0003FE0
1FF800FFE0
1FFF07FFC0
0FFFFFFF80
07FFFFFF00
03FFFFFE00
00FFFFFC00
007FFFF000
000FFFC000
0000FC0000
ENDCHAR
STARTCHAR 0150
ENCODING 336
SWIDTH 820 0
DWIDTH 41 0
BBX 38 46 2 -1
BITMAP
0003F1F000
0003E3F000
0003C3E000
0007C3C000
000787C000
000F878000
0000000000
0000000000
0000000000
0001F80000
000FFFC000
007FFFF000
00FFFFFC00
03FFFFFE00
07FFFFFF00
0FFFFFFF80
1FFF07FFC0
1FF800FFE0
3FF0003FE0
3FE0001FF0
7FC0000FF0
7F80000FF8
FF000007F8
FF000007F8
FF000003F8
FE000003F8
FE000003FC
FE000003FC
FE000003FC
FF000003F8
FF000003F8
FF000007F8
FF000007F8
7F80000FF8
7FC0000FF0
3FE0001FF0
3FF0003FE0
1FF800FFE0
1FFF07FFC0
0FFFFFFF80
07FFFFFF00
03FFFFFE00
00FFFFFC00
007FFFF000
000FFFC000
0000FC0000
ENDCHAR
STARTCHAR 0151
ENCODING 337
SWIDTH 820 0
DWIDTH 41 0
BBX 38 46 2 -1
BITMAP
0003F1F000
0003E3F000
0003C3E000
0007C3C000
000787C000
000F878000
0000000000
0000000000
0000000000
0001F80000
000FFFC000
007FFFF000
00FFFFFC00
03FFFFFE00
07FFFFFF00
0FFFFFFF80
1FFF07FFC0
1FF800FFE0
3FF0003FE0
3FE0001FF0
7FC0000FF0
7F80000FF8
FF000007F8
FF000007F8
FF000003F8
FE000003F8
FE000003FC
FE000003FC
FE000003FC
FF000003F8
FF000003F8
FF000007F8
FF000007F8
7F80000FF8
7FC0000FF0
3FE0001FF0
3FF0003FE0
1FF800FFE0
1FFF07FFC0
0FFFFFFF80
07FFFFFF00
03FFFFFE00
00FFFFFC00
007FFFF000
000FFFC000
0000FC0000
ENDCHAR
STARTCHAR 0154
ENCODING 340
SWIDTH 620 0
DWIDTH 31 0
BBX 29 45 1 0
BITMAP
0001F800
0001F000
0003E000
0003E000
0007C000
00078000
00000000
00000000
00000000
00000000
1FFFF000
1FFFFE00
1FFFFF80
1FFFFFC0
1FFFFFE0
1FFFFFE0
1FFFFFF0
1FE01FF0
1FE00FF0
1FE007F0
1FE007F8
1FE007F8
1FE007F0
1FE00FF0
1FE01FF0
FFFFFFF0
FFFFFFE0
FFFFFFC0
FFFFFFC0
FFFFFF00
FFFFFF80
FFFFFFC0
1FE07FC0
1FE03FE0
1FE01FE0
1FE01FE0
1FE00FE0
1FE00FE0
1FE00FE0
1FE00FE0
1FE00FE0
1FE00FE0
1FE00FE0
1FE00FE0
1FE00FE0
ENDCHAR
STARTCHAR 0155
ENCODING 341
SWIDTH 620 0
DWIDTH 31 0
BBX 29 45 1 0
BITMAP
0001F800
0001F000
0003E000
0003E000
0007C000
00078000
00000000
00000000
00000000
00000000
1FFFF000
1FFFFE00
1FFFFF80
1FFFFFC0
1FFFFFE0
1FFFFFE0
1FFFFFF0
1FE01FF0
1FE00FF0
1FE007F0
1FE007F8
1FE007F8
1FE007F0
1FE00FF0
1FE01FF0
FFFFFFF0
FFFFFFE0
FFFFFFC0
FFFFFFC0
FFFFFF00
FFFFFF80
FFFFFFC0
1FE07FC0
1FE03FE0
1FE01FE0
1FE01FE0
1FE00FE0
1FE00FE0
1FE00FE0
1FE00FE0
1FE00FE0
1FE00FE0
1FE00FE0
1FE00FE0
1FE00FE0
ENDCHAR
STARTCHAR 0158
ENCODING 344
SWIDTH 620 0
DWIDTH 31 0
BBX 29 45 1 0
BITMAP
00FFF800
007FF000
003FE000
001FC000
000F8000
00070000
00030000
00000000
00000000
00000000
1FFFF000
1FFFFE00
1FFFFF80
1FFFFFC0
1FFFFFE0
1FFFFFE0
1FFFFFF0
1FE01FF0
1FE00FF0
1FE007F0
1FE007F8
1FE007F8
1FE007F0
1FE00FF0
1FE01FF0
FFFFFFF0
FFFFFFE0
FFFFFFC0
FFFFFFC0
FFFFFF00
FFFFFF80
FFFFFFC0
1FE07FC0
1FE03FE0
1FE01FE0
1FE01FE0
1FE00FE0
1FE00FE0
1FE00FE0
1FE00FE0
1FE00FE0
1FE00FE0
1FE00FE0
1FE00FE0
1FE00FE0
ENDCHAR
STARTCHAR 0159
ENCODING 345
SWIDTH 620 0
DWIDTH 31 0
BBX 29 45 1 0
BITMAP
00FFF800
007FF000
003FE000
001FC000
000F8000
00070000
00030000
00000000
00000000
00000000
1FFFF000
1FFFFE00
1FFFFF80
1FFFFFC0
1FFFFFE0
1FFFFFE0
1FFFFFF0
1FE01FF0
1FE00FF0
1FE007F0
1FE007F8
1FE007F8
1FE007F0
1FE00FF0
1FE01FF0
FFFFFFF0
FFFFFFE0
FFFFFFC0
FFFFFFC0
FFFFFF00
FFFFFF80
FFFFFFC0
1FE07FC0
1FE03FE0
1FE01FE0
1FE01FE0
1FE00FE0
1FE00FE0
1FE00FE0
1FE00FE0
1FE00FE0
1FE00FE0
1FE00FE0
1FE00FE0
1FE00FE0
ENDCHAR
STARTCHAR 015A
ENCODING 346
SWIDTH 520 0
DWIDTH 26 0
BBX 23 46 2 -1
BITMAP
000F80
001F00
001F00
003E00
003C00
007C00
000000
000000
000000
00FC00
07FF80
0FFFC0
1FFFE0
3FFFF0
3FFFF8
7FFFF8
7FCFFC
7F83FC
7F03F0
7F0180
7F8000
7FC000
3FE000
3FF800
1FFC00
0FFF00
07FF80
03FFE0
01FFF0
007FF8
003FF8
000FFC
0007FC
0003FC
0201FE
1E01FE
FF01FC
FF03FC
FFCFFC
7FFFFC
7FFFF8
3FFFF8
1FFFF0
0FFFE0
03FF80
007C00
ENDCHAR
STARTCHAR 015B
ENCODING 347
SWIDTH 520 0
DWIDTH 26 0
BBX 23 46 2 -1
BITMAP
000F80
001F00
001F00
003E00
003C00
007C00
000000
000000
000000
00FC00
07FF80
0FFFC0
1FFFE0
3FFFF0
3FFFF8
7FFFF8
7FCFFC
7F83FC
7F03F0
7F0180
7F8000
7FC000
3FE000
3FF800
1FFC00
0FFF00
07FF80
03FFE0
01FFF0
007FF8
003FF8
000FFC
0007FC
0003FC
0201FE
1E01FE
FF01FC
FF03FC
FFCFFC
7FFFFC
7FFFF8
3FFFF8
1FFFF0
0FFFE0
03FF80
007C00
ENDCHAR
STARTCHAR 015E
ENCODING 350
SWIDTH 520 0
DWIDTH 26 0
BBX 23 47 2 -11
BITMAP
00FC00
07FF80
0FFFC0
1FFFE0
3FFFF0
3FFFF8
7FFFF8
7FCFFC
7F83FC
7F03F0
7F0180
7F8000
7FC000
3FE000
3FF800
1FFC00
0FFF00
07FF80
03FFE0
01FFF0
007FF8
003FF8
000FFC
0007FC
0003FC
0201FE
1E01FE
FF01FC
FF03FC
FFCFFC
7FFFFC
7FFFF8
3FFFF8
1FFFF0
0FFFE0
03FF80
007C00
007800
007800
007E00
001E00
000E00
030F00
07FE00
0FFE00
07FC00
01F800
ENDCHAR
STARTCHAR 015F
ENCODING 351
SWIDTH 520 0
DWIDTH 26 0
BBX 23 47 2 -11
BITMAP
00FC00
07FF80
0FFFC0
1FFFE0
3FFFF0
3FFFF8
7FFFF8
7FCFFC
7F83FC
7F03F0
7F0180
7F8000
7FC000
3FE000
3FF800
1FFC00
0FFF00
07FF80
03FFE0
01FFF0
007FF8
003FF8
000FFC
0007FC
0003FC
0201FE
1E01FE
FF01FC
FF03FC
FFCFFC
7FFFFC
7FFFF8
3FFFF8
1FFFF0
0FFFE0
03FF80
007C00
007800
007800
007E00
001E00
000E00
030F00
07FE00
0FFE00
07FC00
01F800
ENDCHAR
STARTCHAR 0160
ENCODING 352
SWIDTH 520 0
DWIDTH 26 0
BBX 23 46 2 -1
BITMAP
07FF80
03FF00
01FE00
01FC00
00FC00
007800
003000
000000
000000
00FC00
07FF80
0FFFC0
1FFFE0
3FFFF0
3FFFF8
7FFFF8
7FCFFC
7F83FC
7F03F0
7F0180
7F8000
7FC000
3FE000
3FF800
1FFC00
0FFF00
07FF80
03FFE0
01FFF0
007FF8
003FF8
000FFC
0007FC
0003FC
0201FE
1E01FE
FF01FC
FF03FC
FFCFFC
7FFFFC
7FFFF8
3FFFF8
1FFFF0
0FFFE0
03FF80
007C00
ENDCHAR
STARTCHAR 0161
ENCODING 353
SWIDTH 520 0
DWIDTH 26 0
BBX 23 46 2 -1
BITMAP
07FF80
03FF00
01FE00
01FC00
00FC00
007800
003000
000000
000000
00FC00
07FF80
0FFFC0
1FFFE0
3FFFF0
3FFFF8
7FFFF8
7FCFFC
7F83FC
7F03F0
7F0180
7F8000
7FC000
3FE000
3FF800
1FFC00
0FFF00
07FF80
03FFE0
01FFF0
007FF8
003FF8
000FFC
0007FC
0003FC
0201FE
1E01FE
FF01FC
FF03FC
FFCFFC
7FFFFC
7FFFF8
3FFFF8
1FFFF0
0FFFE0
03FF80
007C00
ENDCHAR
STARTCHAR 0162
ENCODING 354
SWIDTH 520 0
DWIDTH 26 0
BBX 24 46 1 -11
BITMAP
FFFFFF
FFFFFF
FFFFFF
FFFFFF
FFFFFF
FFFFFF
FFFFFF
007F00
007F00
007F00
007F00
007F00
007F00
007F00
007F00
007F00
007F00
007F00
007F00
007F00
007F00
007F00
007F00
007F00
007F00
007F00
007F00
007F00
007F00
007F00
007F00
007F00
007F00
007F00
007F00
001C00
003C00
003C00
003E00
000F00
010700
030F00
07FF00
07FF00
03FE00
00FC00
ENDCHAR
STARTCHAR 0163
ENCODING 355
SWIDTH 520 0
DWIDTH 26 0
BBX 24 46 1 -11
BITMAP
FFFFFF
FFFFFF
FFFFFF
FFFFFF
FFFFFF
FFFFFF
FFFFFF
007F00
007F00
007F00
007F00
007F00
007F00
007F00
007F00
007F00
007F00
007F00
007F00
007F00
007F00
007F00
007F00
007F00
007F00
007F00
007F00
007F00
007F00
007F00
007F00
007F00
007F00
007F00
007F00
001C00
003C00
003C00
003E00
000F00
010700
030F00
07FF00
07FF00
03FE00
00FC00
ENDCHAR
STARTCHAR 0164
ENCODING 356
SWIDTH 520 0
DWIDTH 26 0
BBX 24 45 1 0
BITMAP
03FFC0
01FFC0
00FF80
007F00
003E00
001C00
001800
000000
000000
000000
FFFFFF
FFFFFF
FFFFFF
FFFFFF
FFFFFF
FFFFFF
FFFFFF
007F00
007F00
007F00
007F00
007F00
007F00
007F00
007F00
007F00
007F00
007F00
007F00
007F00
007F00
007F00
007F00
007F00
007F00
007F00
007F00
007F00
007F00
007F00
007F00
007F00
007F00
007F00
007F00
ENDCHAR
STARTCHAR 0165
ENCODING 357
SWIDTH 520 0
DWIDTH 26 0
BBX 24 45 1 0
BITMAP
03FFC0
01FFC0
00FF80
007F00
003E00
001C00
001800
000000
000000
000000
FFFFFF
FFFFFF
FFFFFF
FFFFFF
FFFFFF
FFFFFF
FFFFFF
007F00
007F00
007F00
007F00
007F00
007F00
007F00
007F00
007F00
007F00
007F00
007F00
007F00
007F00
007F00
007F00
007F00
007F00
007F00
007F00
007F00
007F00
007F00
007F00
007F00
007F00
007F00
007F00
ENDCHAR
STARTCHAR 0168
ENCODING 360
SWIDTH 540 0
DWIDTH 27 0
BBX 23 46 2 -1
BITMAP
03C000
07FF80
07FF80
07FF80
07FF80
000F00
000000
000000
000000
000000
FF01FE
FF01FE
FF01FE
FF01FE
FF01FE
FF01FE
FF01FE
FF01FE
FF01FE
FF01FE
FF01FE
FF01FE
FF01FE
FF01FE
FF01FE
FF01FE
FF01FE
FF01FE
FF01FE
FF01FE
FF01FE
FF01FE
FF01FE
FF01FE
FF01FE
FF01FE
7F01FE
7F83FC
7FC7FC
7FFFFC
3FFFF8
1FFFF8
0FFFF0
07FFE0
03FF80
007C00
ENDCHAR
STARTCHAR 0169
ENCODING 361
SWIDTH 540 0
DWIDTH 27 0
BBX 23 46 2 -1
BITMAP
03C000
07FF80
07FF80
07FF80
07FF80
000F00
000000
000000
000000
000000
FF01FE
FF01FE
FF01FE
FF01FE
FF01FE
FF01FE
FF01FE
FF01FE
FF01FE
FF01FE
FF01FE
FF01FE
FF01FE
FF01FE
FF01FE
FF01FE
FF01FE
FF01FE
FF01FE
FF01FE
FF01FE
FF01FE
FF01FE
FF01FE
FF01FE
FF01FE
7F01FE
7F83FC
7FC7FC
7FFFFC
3FFFF8
1FFFF8
0FFFF0
07FFE0
03FF80
007C00
ENDCHAR
STARTCHAR 016A
ENCODING 362
SWIDTH 540 0
DWIDTH 27 0
BBX 23 45 2 -1
BITMAP
0FFFE0
0FFFE0
0FFFE0
0FFFE0
0FFFE0
000000
000000
000000
000000
FF01FE
FF01FE
FF01FE
FF01FE
FF01FE
FF01FE
FF01FE
FF01FE
FF01FE
FF01FE
FF01FE
FF01FE
FF01FE
FF01FE
FF01FE
FF01FE
FF01FE
FF01FE
FF01FE
FF01FE
FF01FE
FF01FE
FF01FE
FF01FE
FF01FE
FF01FE
7F01FE
7F83FC
7FC7FC
7FFFFC
3FFFF8
1FFFF8
0FFFF0
07FFE0
03FF80
007C00
ENDCHAR
STARTCHAR 016B
ENCODING 363
SWIDTH 540 0
DWIDTH 27 0
BBX 23 45 2 -1
BITMAP
0FFFE0
0FFFE0
0FFFE0
0FFFE0
0FFFE0
000000
000000
000000
000000
FF01FE
FF01FE
FF01FE
FF01FE
FF01FE
FF01FE
FF01FE
FF01FE
FF01FE
FF01FE
FF01FE
FF01FE
FF01FE
FF01FE
FF01FE
FF01FE
FF01FE
FF01FE
FF01FE
FF01FE
FF01FE
FF01FE
FF01FE
FF01FE
FF01FE
FF01FE
7F01FE
7F83FC
7FC7FC
7FFFFC
3FFFF8
1FFFF8
0FFFF0
07FFE0
03FF80
007C00
ENDCHAR
STARTCHAR 016E
ENCODING 366
SWIDTH 540 0
DWIDTH 27 0
BBX 23 49 2 -1
BITMAP
007C00
00FE00
01FF00
01C780
03C380
03C380
01C780
01FF00
00FF00
007C00
000000
000000
000000
FF01FE
FF01FE
FF01FE
FF01FE
FF01FE
FF01FE
FF01FE
FF01FE
FF01FE
FF01FE
FF01FE
FF01FE
FF01FE
FF01FE
FF01FE
FF01FE
FF01FE
FF01FE
FF01FE
FF01FE
FF01FE
FF01FE
FF01FE
FF01FE
FF01FE
FF01FE
7F01FE
7F83FC
7FC7FC
7FFFFC
3FFFF8
1FFFF8
0FFFF0
07FFE0
03FF80
007C00
ENDCHAR
STARTCHAR 016F
ENCODING 367
SWIDTH 540 0
DWIDTH 27 0
BBX 23 49 2 -1
BITMAP
007C00
00FE00
01FF00
01C780
03C380
03C380
01C780
01FF00
00FF00
007C00
000000
000000
000000
FF01FE
FF01FE
FF01FE
FF01FE
FF01FE
FF01FE
FF01FE
FF01FE
FF01FE
FF01FE
FF01FE
FF01FE
FF01FE
FF01FE
FF01FE
FF01FE
FF01FE
FF01FE
FF01FE
FF01FE
FF01FE
FF01FE
FF01FE
FF01FE
FF01FE
FF01FE
7F01FE
7F83FC
7FC7FC
7FFFFC
3FFFF8
1FFFF8
0FFFF0
07FFE0
03FF80
007C00
ENDCHAR
STARTCHAR 0170
ENCODING 368
SWIDTH 540 0
DWIDTH 27 0
BBX 23 46 2 -1
BITMAP
01F8F8
01F1F0
03E1F0
03E3E0
03C3E0
0783C0
000000
000000
000000
000000
FF01FE
FF01FE
FF01FE
FF01FE
FF01FE
FF01FE
FF01FE
FF01FE
FF01FE
FF01FE
FF01FE
FF01FE
FF01FE
FF01FE
FF01FE
FF01FE
FF01FE
FF01FE
FF01FE
FF01FE
FF01FE
FF01FE
FF01FE
FF01FE
FF01FE
FF01FE
7F01FE
7F83FC
7FC7FC
7FFFFC
3FFFF8
1FFFF8
0FFFF0
07FFE0
03FF80
007C00
ENDCHAR
STARTCHAR 0171
ENCODING 369
SWIDTH 540 0
DWIDTH 27 0
BBX 23 46 2 -1
BITMAP
01F8F8
01F1F0
03E1F0
03E3E0
03C3E0
0783C0
000000
000000
000000
000000
FF01FE
FF01FE
FF01FE
FF01FE
FF01FE
FF01FE
FF01FE
FF01FE
FF01FE
FF01FE
FF01FE
FF01FE
FF01FE
FF01FE
FF01FE
FF01FE
FF01FE
FF01FE
FF01FE
FF01FE
FF01FE
FF01FE
FF01FE
FF01FE
FF01FE
FF01FE
7F01FE
7F83FC
7FC7FC
7FFFFC
3FFFF8
1FFFF8
0FFFF0
07FFE0
03FF80
007C00
ENDCHAR
STARTCHAR 0172
ENCODING 370
SWIDTH 540 0
DWIDTH 27 0
BBX 23 45 2 -10
BITMAP
FF01FE
FF01FE
FF01FE
FF01FE
FF01FE
FF01FE
FF01FE
FF01FE
FF01FE
FF01FE
FF01FE
FF01FE
FF01FE
FF01FE
FF01FE
FF01FE
FF01FE
FF01FE
FF01FE
FF01FE
FF01FE
FF01FE
FF01FE
FF01FE
FF01FE
FF01FE
7F01FE
7F83FC
7FC7FC
7FFFFC
3FFFF8
1FFFF8
1FFFF0
07FFE0
03FF80
007C00
00F000
01E000
01E000
01E000
01E180
01FFC0
01FFC0
00FF80
003F00
ENDCHAR
STARTCHAR 0173
ENCODING 371
SWIDTH 540 0
DWIDTH 27 0
BBX 23 45 2 -10
BITMAP
FF01FE
FF01FE
FF01FE
FF01FE
FF01FE
FF01FE
FF01FE
FF01FE
FF01FE
FF01FE
FF01FE
FF01FE
FF01FE
FF01FE
FF01FE
FF01FE
FF01FE
FF01FE
FF01FE
FF01FE
FF01FE
FF01FE
FF01FE
FF01FE
FF01FE
FF01FE
7F01FE
7F83FC
7FC7FC
7FFFFC
3FFFF8
1FFFF8
1FFFF0
07FFE0
03FF80
007C00
00F000
01E000
01E000
01E000
01E180
01FFC0
01FFC0
00FF80
003F00
ENDCHAR
STARTCHAR 0176
ENCODING 374
SWIDTH 520 0
DWIDTH 26 0
BBX 23 46 2 0
BITMAP
001000
003000
007800
007C00
00FE00
01FF00
03FF80
07FFC0
000000
000000
000000
FF01FE
FF01FE
FF01FE
FF01FE
FF01FE
FF01FE
FF01FE
FF01FE
FF01FE
FF01FE
FF01FE
FF01FE
FF01FE
FF01FE
FF01FE
FF01FE
FF01FE
FF01FC
FF03FC
7F83FC
7FFFFC
3FFFF8
3FFFF8
1FFFF0
0FFFE0
07FF80
01FE00
00FE00
00FE00
00FE00
00FE00
00FE00
00FE00
00FE00
00FE00
ENDCHAR
STARTCHAR 0177
ENCODING 375
SWIDTH 520 0
DWIDTH 26 0
BBX 23 46 2 0
BITMAP
001000
003000
007800
007C00
00FE00
01FF00
03FF80
07FFC0
000000
000000
000000
FF01FE
FF01FE
FF01FE
FF01FE
FF01FE
FF01FE
FF01FE
FF01FE
FF01FE
FF01FE
FF01FE
FF01FE
FF01FE
FF01FE
FF01FE
FF01FE
FF01FE
FF01FC
FF03FC
7F83FC
7FFFFC
3FFFF8
3FFFF8
1FFFF0
0FFFE0
07FF80
01FE00
00FE00
00FE00
00FE00
00FE00
00FE00
00FE00
00FE00
00FE00
ENDCHAR
STARTCHAR 0178
ENCODING 376
SWIDTH 520 0
DWIDTH 26 0
BBX 23 46 2 0
BITMAP
0E00F0
3F81F8
3F83FC
7FC3FC
7FC7FC
7FC3FC
3F83FC
3F81F8
0E0060
000000
000000
FF01FE
FF01FE
FF01FE
FF01FE
FF01FE
FF01FE
FF01FE
FF01FE
FF01FE
FF01FE
FF01FE
FF01FE
FF01FE
FF01FE
FF01FE
FF01FE
FF01FE
FF01FC
FF03FC
7F83FC
7FFFFC
3FFFF8
3FFFF8
1FFFF0
0FFFE0
07FF80
01FE00
00FE00
00FE00
00FE00
00FE00
00FE00
00FE00
00FE00
00FE00
ENDCHAR
STARTCHAR 0179
ENCODING 377
SWIDTH 540 0
DWIDTH 27 0
BBX 25 45 1 0
BITMAP
0007E000
0007C000
000F8000
000F8000
000F0000
001E0000
00000000
00000000
00000000
00000000
7FFFFF80
7FFFFF80
7FFFFF80
7FFFFF80
7FFFFF00
7FFFFE00
7FFFFE00
0003FC00
0003FC00
0007F800
000FF800
000FF000
001FE000
001FE000
003FC000
003FC000
007F8000
00FF0000
00FF0000
01FE0000
01FE0000
03FC0000
07FC0000
07F80000
0FF00000
0FF00000
1FE00000
3FE00000
3FFFFF00
7FFFFF00
7FFFFF00
FFFFFF00
FFFFFF00
FFFFFF00
FFFFFF00
ENDCHAR
STARTCHAR 017A
ENCODING 378
SWIDTH 540 0
DWIDTH 27 0
BBX 25 45 1 0
BITMAP
0007E000
0007C000
000F8000
000F8000
000F0000
001E0000
00000000
00000000
00000000
00000000
7FFFFF80
7FFFFF80
7FFFFF80
7FFFFF80
7FFFFF00
7FFFFE00
7FFFFE00
0003FC00
0003FC00
0007F800
000FF800
000FF000
001FE000
001FE000
003FC000
003FC000
007F8000
00FF0000
00FF0000
01FE0000
01FE0000
03FC0000
07FC0000
07F80000
0FF00000
0FF00000
1FE00000
3FE00000
3FFFFF00
7FFFFF00
7FFFFF00
FFFFFF00
FFFFFF00
FFFFFF00
FFFFFF00
ENDCHAR
STARTCHAR 017B
ENCODING 379
SWIDTH 540 0
DWIDTH 27 0
BBX 25 47 1 0
BITMAP
000C0000
003F0000
007F8000
007F8000
007F8000
007F8000
007F8000
003F0000
001E0000
00000000
00000000
00000000
7FFFFF80
7FFFFF80
7FFFFF80
7FFFFF80
7FFFFF00
7FFFFE00
7FFFFE00
0003FC00
0003FC00
0007F800
000FF800
000FF000
001FE000
001FE000
003FC000
003FC000
007F8000
00FF0000
00FF0000
01FE0000
01FE0000
03FC0000
07FC0000
07F80000
0FF00000
0FF00000
1FE00000
3FE00000
3FFFFF00
7FFFFF00
7FFFFF00
FFFFFF00
FFFFFF00
FFFFFF00
FFFFFF00
ENDCHAR
STARTCHAR 017C
ENCODING 380
SWIDTH 540 0
DWIDTH 27 0
BBX 25 47 1 0
BITMAP
000C0000
003F0000
007F8000
007F8000
007F8000
007F8000
007F8000
003F0000
001E0000
00000000
00000000
00000000
7FFFFF80
7FFFFF80
7FFFFF80
7FFFFF80
7FFFFF00
7FFFFE00
7FFFFE00
0003FC00
0003FC00
0007F800
000FF800
000FF000
001FE000
001FE000
003FC000
003FC000
007F8000
00FF0000
00FF0000
01FE0000
01FE0000
03FC0000
07FC0000
07F80000
0FF00000
0FF00000
1FE00000
3FE00000
3FFFFF00
7FFFFF00
7FFFFF00
FFFFFF00
FFFFFF00
FFFFFF00
FFFFFF00
ENDCHAR
STARTCHAR 017D
ENCODING 381
SWIDTH 540 0
DWIDTH 27 0
BBX 25 45 1 0
BITMAP
01FFE000
01FFC000
00FF8000
007F0000
003E0000
001C0000
000C0000
00000000
00000000
00000000
7FFFFF80
7FFFFF80
7FFFFF80
7FFFFF80
7FFFFF00
7FFFFE00
7FFFFE00
0003FC00
0003FC00
0007F800
000FF800
000FF000
001FE000
001FE000
003FC000
003FC000
007F8000
00FF0000
00FF0000
01FE0000
01FE0000
03FC0000
07FC0000
07F80000
0FF00000
0FF00000
1FE00000
3FE00000
3FFFFF00
7FFFFF00
7FFFFF00
FFFFFF00
FFFFFF00
FFFFFF00
FFFFFF00
ENDCHAR
STARTCHAR 017E
ENCODING 382
SWIDTH 540 0
DWIDTH 27 0
BBX 25 45 1 0
BITMAP
01FFE000
01FFC000
00FF8000
007F0000
003E0000
001C0000
000C0000
00000000
00000000
00000000
7FFFFF80
7FFFFF80
7FFFFF80
7FFFFF80
7FFFFF00
7FFFFE00
7FFFFE00
0003FC00
0003FC00
0007F800
000FF800
000FF000
001FE000
001FE000
003FC000
003FC000
007F8000
00FF0000
00FF0000
01FE0000
01FE0000
03FC0000
07FC0000
07F80000
0FF00000
0FF00000
1FE00000
3FE00000
3FFFFF00
7FFFFF00
7FFFFF00
FFFFFF00
FFFFFF00
FFFFFF00
FFFFFF00
ENDCHAR
STARTCHAR 01A0
ENCODING 416
SWIDTH 820 0
DWIDTH 41 0
BBX 38 40 2 -1
BITMAP
00000001F0
00000001F0
00000001F0
0001F801E0
000FFFC1E0
007FFFF1E0
00FFFFFDE0
03FFFFFE00
07FFFFFF00
0FFFFFFF80
1FFF07FFC0
1FF800FFE0
3FF0003FE0
3FE0001FF0
7FC0000FF0
7F80000FF8
FF000007F8
FF000007F8
FF000003F8
FE000003F8
FE000003FC
FE000003FC
FE000003FC
FF000003F8
FF000003F8
FF000007F8
FF000007F8
7F80000FF8
7FC0000FF0
3FE0001FF0
3FF0003FE0
1FF800FFE0
1FFF07FFC0
0FFFFFFF80
07FFFFFF00
03FFFFFE00
00FFFFFC00
007FFFF000
000FFFC000
0000FC0000
ENDCHAR
STARTCHAR 01A1
ENCODING 417
SWIDTH 820 0
DWIDTH 41 0
BBX 38 40 2 -1
BITMAP
00000001F0
00000001F0
00000001F0
0001F801E0
000FFFC1E0
007FFFF1E0
00FFFFFDE0
03FFFFFE00
07FFFFFF00
0FFFFFFF80
1FFF07FFC0
1FF800FFE0
3FF0003FE0
3FE0001FF0
7FC0000FF0
7F80000FF8
FF000007F8
FF000007F8
FF000003F8
FE000003F8
FE000003FC
FE000003FC
FE000003FC
FF000003F8
FF000003F8
FF000007F8
FF000007F8
7F80000FF8
7FC0000FF0
3FE0001FF0
3FF0003FE0
1FF800FFE0
1FFF07FFC0
0FFFFFFF80
07FFFFFF00
03FFFFFE00
00FFFFFC00
007FFFF000
000FFFC000
0000FC0000
ENDCHAR
STARTCHAR 01AF
ENCODING 431
SWIDTH 540 0
DWIDTH 27 0
BBX 29 40 2 -1
BITMAP
000000F8
000000F8
000000F8
000000F0
FF01FEF0
FF01FEF0
FF01FEF0
FF01FE00
FF01FE00
FF01FE00
FF01FE00
FF01FE00
FF01FE00
FF01FE00
FF01FE00
FF01FE00
FF01FE00
FF01FE00
FF01FE00
FF01FE00
FF01FE00
FF01FE00
FF01FE00
FF01FE00
FF01FE00
FF01FE00
FF01FE00
FF01FE00
FF01FE00
FF01FE00
7F01FE00
7F83FC00
7FC7FC00
7FFFFC00
3FFFF800
1FFFF800
0FFFF000
07FFE000
03FF8000
007C0000
ENDCHAR
STARTCHAR 01B0
ENCODING 432
SWIDTH 540 0
DWIDTH 27 0
BBX 29 40 2 -1
BITMAP
000000F8
000000F8
000000F8
000000F0
FF01FEF0
FF01FEF0
FF01FEF0
FF01FE00
FF01FE00
FF01FE00
FF01FE00
FF01FE00
FF01FE00
FF01FE00
FF01FE00
FF01FE00
FF01FE00
FF01FE00
FF01FE00
FF01FE00
FF01FE00
FF01FE00
FF01FE00
FF01FE00
FF01FE00
FF01FE00
FF01FE00
FF01FE00
FF01FE00
FF01FE00
7F01FE00
7F83FC00
7FC7FC00
7FFFFC00
3FFFF800
1FFFF800
0FFFF000
07FFE000
03FF8000
007C0000
ENDCHAR
STARTCHAR 01CD
ENCODING 461
SWIDTH 580 0
DWIDTH 29 0
BBX 26 45 2 0
BITMAP
03FFC000
01FF8000
01FF0000
00FE0000
007C0000
003C0000
00180000
00000000
00000000
007C0000
03FF8000
07FFE000
0FFFF000
1FFFF800
3FFFF800
3FFFFC00
7FC7FC00
7F81FE00
7F01FE00
7F01FE00
7F00FE00
FF00FE00
FF00FE00
FF00FE00
FF00FE00
FF00FE00
FF00FE00
FF00FE00
FF00FE00
FF00FE00
FF00FE00
FF00FE00
FF00FE00
FF00FE00
FF00FE00
FF00FE00
FF00FE00
FF00FE00
FFFFFFC0
FFFFFFC0
FFFFFFC0
FFFFFFC0
FFFFFFC0
FFFFFFC0
FFFFFFC0
ENDCHAR
STARTCHAR 01CE
ENCODING 462
SWIDTH 580 0
DWIDTH 29 0
BBX 26 45 2 0
BITMAP
03FFC000
01FF8000
01FF0000
00FE0000
007C0000
003C0000
00180000
00000000
00000000
007C0000
03FF8000
07FFE000
0FFFF000
1FFFF800
3FFFF800
3FFFFC00
7FC7FC00
7F81FE00
7F01FE00
7F01FE00
7F00FE00
FF00FE00
FF00FE00
FF00FE00
FF00FE00
FF00FE00
FF00FE00
FF00FE00
FF00FE00
FF00FE00
FF00FE00
FF00FE00
FF00FE00
FF00FE00
FF00FE00
FF00FE00
FF00FE00
FF00FE00
FFFFFFC0
FFFFFFC0
FFFFFFC0
FFFFFFC0
FFFFFFC0
FFFFFFC0
FFFFFFC0
ENDCHAR
STARTCHAR 01CF
ENCODING 463
SWIDTH 260 0
DWIDTH 13 0
BBX 11 31 1 0
BITMAP
FFE0
7FC0
3FC0
3F80
1F00
0E00
0400
0000
0000
3F80
3F80
3F80
3F80
3F80
3F80
3F80
3F80
3F80
3F80
3F80
3F80
3F80
3F80
3F80
3F80
3F80
3F80
3F80
3F80
3F80
3F80
ENDCHAR
STARTCHAR 01D0
ENCODING 464
SWIDTH 260 0
DWIDTH 13 0
BBX 11 31 1 0
BITMAP
FFE0
7FC0
3FC0
3F80
1F00
0E00
0400
0000
0000
3F80
3F80
3F80
3F80
3F80
3F80
3F80
3F80
3F80
3F80
3F80
3F80
3F80
3F80
3F80
3F80
3F80
3F80
3F80
3F80
3F80
3F80
ENDCHAR
STARTCHAR 01D1
ENCODING 465
SWIDTH 820 0
DWIDTH 41 0
BBX 38 46 2 -1
BITMAP
0007FF8000
0007FF0000
0003FE0000
0001FC0000
0000F80000
0000700000
0000300000
0000000000
0000000000
0001F80000
000FFFC000
007FFFF000
00FFFFFC00
03FFFFFE00
07FFFFFF00
0FFFFFFF80
1FFF07FFC0
1FF800FFE0
3FF0003FE0
3FE0001FF0
7FC0000FF0
7F80000FF8
FF000007F8
FF000007F8
FF000003F8
FE000003F8
FE000003FC
FE000003FC
FE000003FC
FF000003F8
FF000003F8
FF000007F8
FF000007F8
7F80000FF8
7FC0000FF0
3FE0001FF0
3FF0003FE0
1FF800FFE0
1FFF07FFC0
0FFFFFFF80
07FFFFFF00
03FFFFFE00
00FFFFFC00
007FFFF000
000FFFC000
0000FC0000
ENDCHAR
STARTCHAR 01D2
ENCODING 466
SWIDTH 820 0
DWIDTH 41 0
BBX 38 46 2 -1
BITMAP
0007FF8000
0007FF0000
0003FE0000
0001FC0000
0000F80000
0000700000
0000300000
0000000000
0000000000
0001F80000
000FFFC000
007FFFF000
00FFFFFC00
03FFFFFE00
07FFFFFF00
0FFFFFFF80
1FFF07FFC0
1FF800FFE0
3FF0003FE0
3FE0001FF0
7FC0000FF0
7F80000FF8
FF000007F8
FF000007F8
FF000003F8
FE000003F8
FE000003FC
FE000003FC
FE000003FC
FF000003F8
FF000003F8
FF000007F8
FF000007F8
7F80000FF8
7FC0000FF0
3FE0001FF0
3FF0003FE0
1FF800FFE0
1FFF07FFC0
0FFFFFFF80
07FFFFFF00
03FFFFFE00
00FFFFFC00
007FFFF000
000FFFC000
0000FC0000
ENDCHAR
STARTCHAR 01D3
ENCODING 467
SWIDTH 540 0
DWIDTH 27 0
BBX 23 46 2 -1
BITMAP
03FFC0
03FF80
01FF00
00FE00
007C00
003800
001800
000000
000000
000000
FF01FE
FF01FE
FF01FE
FF01FE
FF01FE
FF01FE
FF01FE
FF01FE
FF01FE
FF01FE
FF01FE
FF01FE
FF01FE
FF01FE
FF01FE
FF01FE
FF01FE
FF01FE
FF01FE
FF01FE
FF01FE
FF01FE
FF01FE
FF01FE
FF01FE
FF01FE
7F01FE
7F83FC
7FC7FC
7FFFFC
3FFFF8
1FFFF8
0FFFF0
07FFE0
03FF80
007C00
ENDCHAR
STARTCHAR 01D4
ENCODING 468
SWIDTH 540 0
DWIDTH 27 0
BBX 23 46 2 -1
BITMAP
03FFC0
03FF80
01FF00
00FE00
007C00
003800
001800
000000
000000
000000
FF01FE
FF01FE
FF01FE
FF01FE
FF01FE
FF01FE
FF01FE
FF01FE
FF01FE
FF01FE
FF01FE
FF01FE
FF01FE
FF01FE
FF01FE
FF01FE
FF01FE
FF01FE
FF01FE
FF01FE
FF01FE
FF01FE
FF01FE
FF01FE
FF01FE
FF01FE
7F01FE
7F83FC
7FC7FC
7FFFFC
3FFFF8
1FFFF8
0FFFF0
07FFE0
03FF80
007C00
ENDCHAR
STARTCHAR 02C6
ENCODING 710
SWIDTH 320 0
DWIDTH 16 0
BBX 13 7 0 39
BITMAP
0600
0F00
1F80
1FC0
3FE0
7FF0
FFF8
ENDCHAR
STARTCHAR 02C7
ENCODING 711
SWIDTH 240 0
DWIDTH 12 0
BBX 12 7 0 37
BITMAP
FFF0
7FF0
3FE0
1FC0
0F80
0F00
0600
ENDCHAR
STARTCHAR 02D8
ENCODING 728
SWIDTH 280 0
DWIDTH 14 0
BBX 11 6 0 38
BITMAP
FFE0
FFE0
FFE0
7FC0
3F80
0F00
ENDCHAR
STARTCHAR 02D9
ENCODING 729
SWIDTH 160 0
DWIDTH 8 0
BBX 9 9 0 38
BITMAP
1C00
7F00
7F00
FF80
FF80
FF80
7F00
7F00
1C00
ENDCHAR
STARTCHAR 02DA
ENCODING 730
SWIDTH 200 0
DWIDTH 10 0
BBX 10 10 0 38
BITMAP
1F00
7F80
7FC0
F1C0
E1C0
E1C0
F1C0
7FC0
7F80
1F00
ENDCHAR
STARTCHAR 02DB
ENCODING 731
SWIDTH 220 0
DWIDTH 11 0
BBX 12 11 0 -10
BITMAP
0780
3E00
7C00
7800
F000
F000
F0C0
FFE0
7FF0
7FE0
1F80
ENDCHAR
STARTCHAR 02DC
ENCODING 732
SWIDTH 220 0
DWIDTH 11 0
BBX 12 6 0 39
BITMAP
7800
FFF0
FFF0
FFF0
FFF0
01E0
ENDCHAR
STARTCHAR 02DD
ENCODING 733
SWIDTH 320 0
DWIDTH 16 0
BBX 16 6 0 39
BITMAP
1F1F
3E1F
3E3E
7C3C
787C
F878
ENDCHAR
STARTCHAR 0300
ENCODING 768
SWIDTH 0 0
DWIDTH 0 0
BBX 8 6 -8 39
BITMAP
F8
7C
7C
3E
1E
1F
ENDCHAR
STARTCHAR 0301
ENCODING 769
SWIDTH 0 0
DWIDTH 0 0
BBX 8 6 -8 39
BITMAP
3F
3E
3C
7C
78
F8
ENDCHAR
STARTCHAR 0302
ENCODING 770
SWIDTH 0 0
DWIDTH 0 0
BBX 13 7 -13 39
BITMAP
0300
0780
0FC0
1FC0
3FE0
7FF0
FFF8
ENDCHAR
STARTCHAR 0303
ENCODING 771
SWIDTH 0 0
DWIDTH 0 0
BBX 12 6 -12 39
BITMAP
7800
FFF0
FFF0
FFF0
FFF0
01E0
ENDCHAR
STARTCHAR 0304
ENCODING 772
SWIDTH 0 0
DWIDTH 0 0
BBX 14 5 -14 39
BITMAP
FFFC
FFFC
FFFC
FFFC
FFFC
ENDCHAR
STARTCHAR 0306
ENCODING 774
SWIDTH 0 0
DWIDTH 0 0
BBX 11 6 -11 38
BITMAP
FFE0
FFE0
FFC0
7FC0
3F80
1F00
ENDCHAR
STARTCHAR 0307
ENCODING 775
SWIDTH 0 0
DWIDTH 0 0
BBX 8 9 -8 38
BITMAP
3C
7E
FF
FF
FF
FF
FF
7E
18
ENDCHAR
STARTCHAR 0308
ENCODING 776
SWIDTH 0 0
DWIDTH 0 0
BBX 21 9 -21 37
BITMAP
1C01E0
7F03F0
7F07F8
FF87F8
FF87F8
FF87F8
7F07F8
7F03F0
1C00C0
ENDCHAR
STARTCHAR 0309
ENCODING 777
SWIDTH 0 0
DWIDTH 0 0
BBX 6 9 -6 38
BITMAP
7C
3C
7C
7C
78
F8
F8
F8
78
ENDCHAR
STARTCHAR 030A
ENCODING 778
SWIDTH 0 0
DWIDTH 0 0
BBX 10 10 -10 38
BITMAP
3E00
7F80
FF80
E3C0
E1C0
E1C0
E3C0
FF80
7F80
3F00
ENDCHAR
STARTCHAR 030B
ENCODING 779
SWIDTH 0 0
DWIDTH 0 0
BBX 16 6 -16 39
BITMAP
3E3F
7C3E
7C7C
F87C
F0F8
F0F0
ENDCHAR
STARTCHAR 030C
ENCODING 780
SWIDTH 0 0
DWIDTH 0 0
BBX 12 7 -12 37
BITMAP
FFF0
FFE0
7FC0
3F80
1F00
0F00
0600
ENDCHAR
STARTCHAR 031B
ENCODING 795
SWIDTH 0 0
DWIDTH 0 0
BBX 6 7 -6 32
BITMAP
FC
FC
F8
F8
F8
F8
F0
ENDCHAR
STARTCHAR 0323
ENCODING 803
SWIDTH 0 0
DWIDTH 0 0
BBX 9 9 -9 -14
BITMAP
1C00
3F00
7F80
FF80
FF80
FF80
7F80
3F00
1C00
ENDCHAR
STARTCHAR 0326
ENCODING 806
SWIDTH 0 0
DWIDTH 0 0
BBX 8 8 -8 -11
BITMAP
3F
3E
3E
7C
7C
F8
F8
F0
ENDCHAR
STARTCHAR 0327
ENCODING 807
SWIDTH 0 0
DWIDTH 0 0
BBX 11 11 -11 -11
BITMAP
0780
0700
0780
07C0
01E0
01E0
61E0
FFE0
FFC0
7FC0
3F00
ENDCHAR
STARTCHAR 0328
ENCODING 808
SWIDTH 0 0
DWIDTH 0 0
BBX 12 11 -12 -10
BITMAP
07C0
3F00
7C00
7800
F000
F000
F0C0
FDE0
7FF0
7FE0
1F80
ENDCHAR
STARTCHAR 0335
ENCODING 821
SWIDTH 0 0
DWIDTH 0 0
BBX 17 6 -17 7
BITMAP
FFFF80
FFFF80
FFFF80
FFFF80
FFFF80
FFFF80
ENDCHAR
STARTCHAR 1EA0
ENCODING 7840
SWIDTH 580 0
DWIDTH 29 0
BBX 26 50 2 -14
BITMAP
007C0000
03FF8000
07FFE000
0FFFF000
1FFFF800
3FFFF800
3FFFFC00
7FC7FC00
7F81FE00
7F01FE00
7F01FE00
7F00FE00
FF00FE00
FF00FE00
FF00FE00
FF00FE00
FF00FE00
FF00FE00
FF00FE00
FF00FE00
FF00FE00
FF00FE00
FF00FE00
FF00FE00
FF00FE00
FF00FE00
FF00FE00
FF00FE00
FF00FE00
FFFFFFC0
FFFFFFC0
FFFFFFC0
FFFFFFC0
FFFFFFC0
FFFFFFC0
FFFFFFC0
00000000
00000000
00000000
00000000
00000000
00380000
007E0000
00FF0000
00FF0000
00FF0000
00FF0000
00FF0000
007E0000
001C0000
ENDCHAR
STARTCHAR 1EA1
ENCODING 7841
SWIDTH 580 0
DWIDTH 29 0
BBX 26 50 2 -14
BITMAP
007C0000
03FF8000
07FFE000
0FFFF000
1FFFF800
3FFFF800
3FFFFC00
7FC7FC00
7F81FE00
7F01FE00
7F01FE00
7F00FE00
FF00FE00
FF00FE00
FF00FE00
FF00FE00
FF00FE00
FF00FE00
FF00FE00
FF00FE00
FF00FE00
FF00FE00
FF00FE00
FF00FE00
FF00FE00
FF00FE00
FF00FE00
FF00FE00
FF00FE00
FFFFFFC0
FFFFFFC0
FFFFFFC0
FFFFFFC0
FFFFFFC0
FFFFFFC0
FFFFFFC0
00000000
00000000
00000000
00000000
00000000
00380000
007E0000
00FF0000
00FF0000
00FF0000
00FF0000
00FF0000
007E0000
001C0000
ENDCHAR
STARTCHAR 1EA2
ENCODING 7842
SWIDTH 580 0
DWIDTH 29 0
BBX 26 47 2 0
BITMAP
003C0000
003C0000
003C0000
003C0000
007C0000
00780000
00780000
00780000
007C0000
00000000
00000000
007C0000
03FF8000
07FFE000
0FFFF000
1FFFF800
3FFFF800
3FFFFC00
7FC7FC00
7F81FE00
7F01FE00
7F01FE00
7F00FE00
FF00FE00
FF00FE00
FF00FE00
FF00FE00
FF00FE00
FF00FE00
FF00FE00
FF00FE00
FF00FE00
FF00FE00
FF00FE00
FF00FE00
FF00FE00
FF00FE00
FF00FE00
FF00FE00
FF00FE00
FFFFFFC0
FFFFFFC0
FFFFFFC0
FFFFFFC0
FFFFFFC0
FFFFFFC0
FFFFFFC0
ENDCHAR
STARTCHAR 1EA3
ENCODING 7843
SWIDTH 580 0
DWIDTH 29 0
BBX 26 47 2 0
BITMAP
003C0000
003C0000
003C0000
003C0000
007C0000
00780000
00780000
00780000
007C0000
00000000
00000000
007C0000
03FF8000
07FFE000
0FFFF000
1FFFF800
3FFFF800
3FFFFC00
7FC7FC00
7F81FE00
7F01FE00
7F01FE00
7F00FE00
FF00FE00
FF00FE00
FF00FE00
FF00FE00
FF00FE00
FF00FE00
FF00FE00
FF00FE00
FF00FE00
FF00FE00
FF00FE00
FF00FE00
FF00FE00
FF00FE00
FF00FE00
FF00FE00
FF00FE00
FFFFFFC0
FFFFFFC0
FFFFFFC0
FFFFFFC0
FFFFFFC0
FFFFFFC0
FFFFFFC0
ENDCHAR
STARTCHAR 1EA4
ENCODING 7844
SWIDTH 580 0
DWIDTH 29 0
BBX 26 48 2 0
BITMAP
00001F80
00001F00
00003E00
00183E00
003C3C00
007E7800
00FE0000
01FF0000
03FF8000
03FFC000
00000000
00000000
007C0000
03FF8000
07FFE000
0FFFF000
1FFFF800
3FFFF800
3FFFFC00
7FC7FC00
7F81FE00
7F01FE00
7F01FE00
7F00FE00
FF00FE00
FF00FE00
FF00FE00
FF00FE00
FF00FE00
FF00FE00
FF00FE00
FF00FE00
FF00FE00
FF00FE00
FF00FE00
FF00FE00
FF00FE00
FF00FE00
FF00FE00
FF00FE00
FF00FE00
FFFFFFC0
FFFFFFC0
FFFFFFC0
FFFFFFC0
FFFFFFC0
FFFFFFC0
FFFFFFC0
ENDCHAR
STARTCHAR 1EA5
ENCODING 7845
SWIDTH 580 0
DWIDTH 29 0
BBX 26 48 2 0
BITMAP
00001F80
00001F00
00003E00
00183E00
003C3C00
007E7800
00FE0000
01FF0000
03FF8000
03FFC000
00000000
00000000
007C0000
03FF8000
07FFE000
0FFFF000
1FFFF800
3FFFF800
3FFFFC00
7FC7FC00
7F81FE00
7F01FE00
7F01FE00
7F00FE00
FF00FE00
FF00FE00
FF00FE00
FF00FE00
FF00FE00
FF00FE00
FF00FE00
FF00FE00
FF00FE00
FF00FE00
FF00FE00
FF00FE00
FF00FE00
FF00FE00
FF00FE00
FF00FE00
FF00FE00
FFFFFFC0
FFFFFFC0
FFFFFFC0
FFFFFFC0
FFFFFFC0
FFFFFFC0
FFFFFFC0
ENDCHAR
STARTCHAR 1EA6
ENCODING 7846
SWIDTH 580 0
DWIDTH 29 0
BBX 27 48 1 0
BITMAP
F8000000
7C000000
7C000000
3E0C0000
1E1E0000
1F3F0000
007F0000
00FF8000
01FFC000
01FFE000
00000000
00000000
003E0000
01FFC000
03FFF000
07FFF800
0FFFFC00
1FFFFC00
1FFFFE00
3FE3FE00
3FC0FF00
3F80FF00
3F80FF00
3F807F00
7F807F00
7F807F00
7F807F00
7F807F00
7F807F00
7F807F00
7F807F00
7F807F00
7F807F00
7F807F00
7F807F00
7F807F00
7F807F00
7F807F00
7F807F00
7F807F00
7F807F00
7FFFFFE0
7FFFFFE0
7FFFFFE0
7FFFFFE0
7FFFFFE0
7FFFFFE0
7FFFFFE0
ENDCHAR
STARTCHAR 1EA7
ENCODING 7847
SWIDTH 580 0
DWIDTH 29 0
BBX 27 48 1 0
BITMAP
F8000000
7C000000
7C000000
3E0C0000
1E1E0000
1F3F0000
007F0000
00FF8000
01FFC000
01FFE000
00000000
00000000
003E0000
01FFC000
03FFF000
07FFF800
0FFFFC00
1FFFFC00
1FFFFE00
3FE3FE00
3FC0FF00
3F80FF00
3F80FF00
3F807F00
7F807F00
7F807F00
7F807F00
7F807F00
7F807F00
7F807F00
7F807F00
7F807F00
7F807F00
7F807F00
7F807F00
7F807F00
7F807F00
7F807F00
7F807F00
7F807F00
7F807F00
7FFFFFE0
7FFFFFE0
7FFFFFE0
7FFFFFE0
7FFFFFE0
7FFFFFE0
7FFFFFE0
ENDCHAR
STARTCHAR 1EA8
ENCODING 7848
SWIDTH 580 0
DWIDTH 29 0
BBX 26 51 2 0
BITMAP
00003C00
00003C00
00003C00
00007C00
00007C00
00007800
00187800
003C7800
007E7C00
00FE0000
01FF0000
03FF8000
03FFC000
00000000
00000000
007C0000
03FF8000
07FFE000
0FFFF000
1FFFF800
3FFFF800
3FFFFC00
7FC7FC00
7F81FE00
7F01FE00
7F01FE00
7F00FE00
FF00FE00
FF00FE00
FF00FE00
FF00FE00
FF00FE00
FF00FE00
FF00FE00
FF00FE00
FF00FE00
FF00FE00
FF00FE00
FF00FE00
FF00FE00
FF00FE00
FF00FE00
FF00FE00
FF00FE00
FFFFFFC0
FFFFFFC0
FFFFFFC0
FFFFFFC0
FFFFFFC0
FFFFFFC0
FFFFFFC0
ENDCHAR
STARTCHAR 1EA9
ENCODING 7849
SWIDTH 580 0
DWIDTH 29 0
BBX 26 51 2 0
BITMAP
00003C00
00003C00
00003C00
00007C00
00007C00
00007800
00187800
003C7800
007E7C00
00FE0000
01FF0000
03FF8000
03FFC000
00000000
00000000
007C0000
03FF8000
07FFE000
0FFFF000
1FFFF800
3FFFF800
3FFFFC00
7FC7FC00
7F81FE00
7F01FE00
7F01FE00
7F00FE00
FF00FE00
FF00FE00
FF00FE00
FF00FE00
FF00FE00
FF00FE00
FF00FE00
FF00FE00
FF00FE00
FF00FE00
FF00FE00
FF00FE00
FF00FE00
FF00FE00
FF00FE00
FF00FE00
FF00FE00
FFFFFFC0
FFFFFFC0
FFFFFFC0
FFFFFFC0
FFFFFFC0
FFFFFFC0
FFFFFFC0
ENDCHAR
STARTCHAR 1EAA
ENCODING 7850
SWIDTH 580 0
DWIDTH 29 0
BBX 28 48 2 0
BITMAP
0000FE10
0000FFF0
0000FFF0
0018FFF0
003C83F0
007E0000
00FE0000
01FF0000
03FF8000
03FFC000
00000000
00000000
007C0000
03FF8000
07FFE000
0FFFF000
1FFFF800
3FFFF800
3FFFFC00
7FC7FC00
7F81FE00
7F01FE00
7F01FE00
7F00FE00
FF00FE00
FF00FE00
FF00FE00
FF00FE00
FF00FE00
FF00FE00
FF00FE00
FF00FE00
FF00FE00
FF00FE00
FF00FE00
FF00FE00
FF00FE00
FF00FE00
FF00FE00
FF00FE00
FF00FE00
FFFFFFC0
FFFFFFC0
FFFFFFC0
FFFFFFC0
FFFFFFC0
FFFFFFC0
FFFFFFC0
ENDCHAR
STARTCHAR 1EAB
ENCODING 7851
SWIDTH 580 0
DWIDTH 29 0
BBX 28 48 2 0
BITMAP
0000FE10
0000FFF0
0000FFF0
0018FFF0
003C83F0
007E0000
00FE0000
01FF0000
03FF8000
03FFC000
00000000
00000000
007C0000
03FF8000
07FFE000
0FFFF000
1FFFF800
3FFFF800
3FFFFC00
7FC7FC00
7F81FE00
7F01FE00
7F01FE00
7F00FE00
FF00FE00
FF00FE00
FF00FE00
FF00FE00
FF00FE00
FF00FE00
FF00FE00
FF00FE00
FF00FE00
FF00FE00
FF00FE00
FF00FE00
FF00FE00
FF00FE00
FF00FE00
FF00FE00
FF00FE00
FFFFFFC0
FFFFFFC0
FFFFFFC0
FFFFFFC0
FFFFFFC0
FFFFFFC0
FFFFFFC0
ENDCHAR
STARTCHAR 1EAC
ENCODING 7852
SWIDTH 580 0
DWIDTH 29 0
BBX 26 59 2 -13
BITMAP
00180000
003C0000
007E0000
00FE0000
01FF0000
03FF8000
03FFC000
00000000
00000000
007C0000
03FF8000
07FFE000
0FFFF000
1FFFF800
3FFFF800
3FFFFC00
7FC7FC00
7F81FE00
7F01FE00
7F01FE00
7F00FE00
FF00FE00
FF00FE00
FF00FE00
FF00FE00
FF00FE00
FF00FE00
FF00FE00
FF00FE00
FF00FE00
FF00FE00
FF00FE00
FF00FE00
FF00FE00
FF00FE00
FF00FE00
FF00FE00
FF00FE00
FFFFFFC0
FFFFFFC0
FFFFFFC0
FFFFFFC0
FFFFFFC0
FFFFFFC0
FFFFFFC0
00000000
00000000
00000000
00000000
00000000
00380000
007E0000
00FF0000
00FF0000
00FF0000
00FF0000
00FF0000
007E0000
001C0000
ENDCHAR
STARTCHAR 1EAD
ENCODING 7853
SWIDTH 580 0
DWIDTH 29 0
BBX 26 59 2 -13
BITMAP
00180000
003C0000
007E0000
00FE0000
01FF0000
03FF8000
03FFC000
00000000
00000000
007C0000
03FF8000
07FFE000
0FFFF000
1FFFF800
3FFFF800
3FFFFC00
7FC7FC00
7F81FE00
7F01FE00
7F01FE00
7F00FE00
FF00FE00
FF00FE00
FF00FE00
FF00FE00
FF00FE00
FF00FE00
FF00FE00
FF00FE00
FF00FE00
FF00FE00
FF00FE00
FF00FE00
FF00FE00
FF00FE00
FF00FE00
FF00FE00
FF00FE00
FFFFFFC0
FFFFFFC0
FFFFFFC0
FFFFFFC0
FFFFFFC0
FFFFFFC0
FFFFFFC0
00000000
00000000
00000000
00000000
00000000
00380000
007E0000
00FF0000
00FF0000
00FF0000
00FF0000
00FF0000
007E0000
001C0000
ENDCHAR
STARTCHAR 1EAE
ENCODING 7854
SWIDTH 580 0
DWIDTH 29 0
BBX 26 48 2 0
BITMAP
000007C0
000007C0
00000F80
00000F00
03FF9F00
03FF9E00
01FF8000
01FF0000
00FF0000
003C0000
00000000
00000000
007C0000
03FF8000
07FFE000
0FFFF000
1FFFF800
3FFFF800
3FFFFC00
7FC7FC00
7F81FE00
7F01FE00
7F01FE00
7F00FE00
FF00FE00
FF00FE00
FF00FE00
FF00FE00
FF00FE00
FF00FE00
FF00FE00
FF00FE00
FF00FE00
FF00FE00
FF00FE00
FF00FE00
FF00FE00
FF00FE00
FF00FE00
FF00FE00
FF00FE00
FFFFFFC0
FFFFFFC0
FFFFFFC0
FFFFFFC0
FFFFFFC0
FFFFFFC0
FFFFFFC0
ENDCHAR
STARTCHAR 1EAF
ENCODING 7855
SWIDTH 580 0
DWIDTH 29 0
BBX 26 48 2 0
BITMAP
000007C0
000007C0
00000F80
00000F00
03FF9F00
03FF9E00
01FF8000
01FF0000
00FF0000
003C0000
00000000
00000000
007C0000
03FF8000
07FFE000
0FFFF000
1FFFF800
3FFFF800
3FFFFC00
7FC7FC00
7F81FE00
7F01FE00
7F01FE00
7F00FE00
FF00FE00
FF00FE00
FF00FE00
FF00FE00
FF00FE00
FF00FE00
FF00FE00
FF00FE00
FF00FE00
FF00FE00
FF00FE00
FF00FE00
FF00FE00
FF00FE00
FF00FE00
FF00FE00
FF00FE00
FFFFFFC0
FFFFFFC0
FFFFFFC0
FFFFFFC0
FFFFFFC0
FFFFFFC0
FFFFFFC0
ENDCHAR
STARTCHAR 1EB0
ENCODING 7856
SWIDTH 580 0
DWIDTH 29 0
BBX 28 48 0 0
BITMAP
F8000000
F8000000
7C000000
3C000000
3EFFE000
1EFFE000
007FE000
007FC000
003F8000
000F0000
00000000
00000000
001F0000
00FFE000
01FFF800
03FFFC00
07FFFE00
0FFFFE00
0FFFFF00
1FF1FF00
1FE07F80
1FC07F80
1FC07F80
1FC03F80
3FC03F80
3FC03F80
3FC03F80
3FC03F80
3FC03F80
3FC03F80
3FC03F80
3FC03F80
3FC03F80
3FC03F80
3FC03F80
3FC03F80
3FC03F80
3FC03F80
3FC03F80
3FC03F80
3FC03F80
3FFFFFF0
3FFFFFF0
3FFFFFF0
3FFFFFF0
3FFFFFF0
3FFFFFF0
3FFFFFF0
ENDCHAR
STARTCHAR 1EB1
ENCODING 7857
SWIDTH 580 0
DWIDTH 29 0
BBX 28 48 0 0
BITMAP
F8000000
F8000000
7C000000
3C000000
3EFFE000
1EFFE000
007FE000
007FC000
003F8000
000F0000
00000000
00000000
001F0000
00FFE000
01FFF800
03FFFC00
07FFFE00
0FFFFE00
0FFFFF00
1FF1FF00
1FE07F80
1FC07F80
1FC07F80
1FC03F80
3FC03F80
3FC03F80
3FC03F80
3FC03F80
3FC03F80
3FC03F80
3FC03F80
3FC03F80
3FC03F80
3FC03F80
3FC03F80
3FC03F80
3FC03F80
3FC03F80
3FC03F80
3FC03F80
3FC03F80
3FFFFFF0
3FFFFFF0
3FFFFFF0
3FFFFFF0
3FFFFFF0
3FFFFFF0
3FFFFFF0
ENDCHAR
STARTCHAR 1EB2
ENCODING 7858
SWIDTH 580 0
DWIDTH 29 0
BBX 26 50 2 0
BITMAP
00000F00
00000F00
00000F80
00000F00
00000F00
00001F00
03FF9E00
03FF9E00
01FF9F00
01FF0F00
00FE0000
003C0000
00000000
00000000
007C0000
03FF8000
07FFE000
0FFFF000
1FFFF800
3FFFF800
3FFFFC00
7FC7FC00
7F81FE00
7F01FE00
7F01FE00
7F00FE00
FF00FE00
FF00FE00
FF00FE00
FF00FE00
FF00FE00
FF00FE00
FF00FE00
FF00FE00
FF00FE00
FF00FE00
FF00FE00
FF00FE00
FF00FE00
FF00FE00
FF00FE00
FF00FE00
FF00FE00
FFFFFFC0
FFFFFFC0
FFFFFFC0
FFFFFFC0
FFFFFFC0
FFFFFFC0
FFFFFFC0
ENDCHAR
STARTCHAR 1EB3
ENCODING 7859
SWIDTH 580 0
DWIDTH 29 0
BBX 26 50 2 0
BITMAP
00000F00
00000F00
00000F80
00000F00
00000F00
00001F00
03FF9E00
03FF9E00
01FF9F00
01FF0F00
00FE0000
003C0000
00000000
00000000
007C0000
03FF8000
07FFE000
0FFFF000
1FFFF800
3FFFF800
3FFFFC00
7FC7FC00
7F81FE00
7F01FE00
7F01FE00
7F00FE00
FF00FE00
FF00FE00
FF00FE00
FF00FE00
FF00FE00
FF00FE00
FF00FE00
FF00FE00
FF00FE00
FF00FE00
FF00FE00
FF00FE00
FF00FE00
FF00FE00
FF00FE00
FF00FE00
FF00FE00
FFFFFFC0
FFFFFFC0
FFFFFFC0
FFFFFFC0
FFFFFFC0
FFFFFFC0
FFFFFFC0
ENDCHAR
STARTCHAR 1EB4
ENCODING 7860
SWIDTH 580 0
DWIDTH 29 0
BBX 26 51 2 0
BITMAP
00040000
003FCC00
003FFC00
003FFC00
003FFC00
0020FC00
00000000
03FF8000
03FF8000
01FF8000
01FF0000
00FE0000
003C0000
00000000
00000000
007C0000
03FF8000
07FFE000
0FFFF000
1FFFF800
3FFFF800
3FFFFC00
7FC7FC00
7F81FE00
7F01FE00
7F01FE00
7F00FE00
FF00FE00
FF00FE00
FF00FE00
FF00FE00
FF00FE00
FF00FE00
FF00FE00
FF00FE00
FF00FE00
FF00FE00
FF00FE00
FF00FE00
FF00FE00
FF00FE00
FF00FE00
FF00FE00
FF00FE00
FFFFFFC0
FFFFFFC0
FFFFFFC0
FFFFFFC0
FFFFFFC0
FFFFFFC0
FFFFFFC0
ENDCHAR
STARTCHAR 1EB5
ENCODING 7861
SWIDTH 580 0
DWIDTH 29 0
BBX 26 51 2 0
BITMAP
00040000
003FCC00
003FFC00
003FFC00
003FFC00
0020FC00
00000000
03FF8000
03FF8000
01FF8000
01FF0000
00FE0000
003C0000
00000000
00000000
007C0000
03FF8000
07FFE000
0FFFF000
1FFFF800
3FFFF800
3FFFFC00
7FC7FC00
7F81FE00
7F01FE00
7F01FE00
7F00FE00
FF00FE00
FF00FE00
FF00FE00
FF00FE00
FF00FE00
FF00FE00
FF00FE00
FF00FE00
FF00FE00
FF00FE00
FF00FE00
FF00FE00
FF00FE00
FF00FE00
FF00FE00
FF00FE00
FF00FE00
FFFFFFC0
FFFFFFC0
FFFFFFC0
FFFFFFC0
FFFFFFC0
FFFFFFC0
FFFFFFC0
ENDCHAR
STARTCHAR 1EB6
ENCODING 7862
SWIDTH 580 0
DWIDTH 29 0
BBX 26 58 2 -14
BITMAP
03FF8000
03FF8000
01FF8000
01FF0000
00FF0000
003C0000
00000000
00000000
007C0000
03FF8000
07FFE000
0FFFF000
1FFFF800
3FFFF800
3FFFFC00
7FC7FC00
7F81FE00
7F01FE00
7F01FE00
7F00FE00
FF00FE00
FF00FE00
FF00FE00
FF00FE00
FF00FE00
FF00FE00
FF00FE00
FF00FE00
FF00FE00
FF00FE00
FF00FE00
FF00FE00
FF00FE00
FF00FE00
FF00FE00
FF00FE00
FF00FE00
FFFFFFC0
FFFFFFC0
FFFFFFC0
FFFFFFC0
FFFFFFC0
FFFFFFC0
FFFFFFC0
00000000
00000000
00000000
00000000
00000000
00380000
007E0000
00FF0000
00FF0000
00FF0000
00FF0000
00FF0000
007E0000
001C0000
ENDCHAR
STARTCHAR 1EB7
ENCODING 7863
SWIDTH 580 0
DWIDTH 29 0
BBX 26 58 2 -14
BITMAP
03FF8000
03FF8000
01FF8000
01FF0000
00FF0000
003C0000
00000000
00000000
007C0000
03FF8000
07FFE000
0FFFF000
1FFFF800
3FFFF800
3FFFFC00
7FC7FC00
7F81FE00
7F01FE00
7F01FE00
7F00FE00
FF00FE00
FF00FE00
FF00FE00
FF00FE00
FF00FE00
FF00FE00
FF00FE00
FF00FE00
FF00FE00
FF00FE00
FF00FE00
FF00FE00
FF00FE00
FF00FE00
FF00FE00
FF00FE00
FF00FE00
FFFFFFC0
FFFFFFC0
FFFFFFC0
FFFFFFC0
FFFFFFC0
FFFFFFC0
FFFFFFC0
00000000
00000000
00000000
00000000
00000000
00380000
007E0000
00FF0000
00FF0000
00FF0000
00FF0000
00FF0000
007E0000
001C0000
ENDCHAR
STARTCHAR 1EB8
ENCODING 7864
SWIDTH 520 0
DWIDTH 26 0
BBX 25 49 1 -14
BITMAP
1FFFE000
1FFFE000
1FFFE000
1FFFE000
1FFFE000
1FFFE000
1FFFE000
1FE00000
1FE00000
1FE00000
1FE00000
1FE00000
1FE00000
1FE00000
FFFFF800
FFFFF800
FFFFF800
FFFFF800
FFFFF800
FFFFF800
FFFFF800
1FE00000
1FE00000
1FE00000
1FE00000
1FE00000
1FE00000
1FE00000
1FFFFF80
1FFFFF80
1FFFFF80
1FFFFF80
1FFFFF80
1FFFFF80
1FFFFF80
00000000
00000000
00000000
00000000
00000000
00070000
001F8000
003FC000
003FE000
003FE000
003FE000
003FC000
001F8000
00070000
ENDCHAR
STARTCHAR 1EB9
ENCODING 7865
SWIDTH 520 0
DWIDTH 26 0
BBX 25 49 1 -14
BITMAP
1FFFE000
1FFFE000
1FFFE000
1FFFE000
1FFFE000
1FFFE000
1FFFE000
1FE00000
1FE00000
1FE00000
1FE00000
1FE00000
1FE00000
1FE00000
FFFFF800
FFFFF800
FFFFF800
FFFFF800
FFFFF800
FFFFF800
FFFFF800
1FE00000
1FE00000
1FE00000
1FE00000
1FE00000
1FE00000
1FE00000
1FFFFF80
1FFFFF80
1FFFFF80
1FFFFF80
1FFFFF80
1FFFFF80
1FFFFF80
00000000
00000000
00000000
00000000
00000000
00070000
001F8000
003FC000
003FE000
003FE000
003FE000
003FC000
001F8000
00070000
ENDCHAR
STARTCHAR 1EBA
ENCODING 7866
SWIDTH 520 0
DWIDTH 26 0
BBX 25 47 1 0
BITMAP
00780000
007C0000
00780000
00780000
00F80000
00F00000
00F00000
00F00000
00F80000
00000000
00000000
00000000
1FFFE000
1FFFE000
1FFFE000
1FFFE000
1FFFE000
1FFFE000
1FFFE000
1FE00000
1FE00000
1FE00000
1FE00000
1FE00000
1FE00000
1FE00000
FFFFF800
FFFFF800
FFFFF800
FFFFF800
FFFFF800
FFFFF800
FFFFF800
1FE00000
1FE00000
1FE00000
1FE00000
1FE00000
1FE00000
1FE00000
1FFFFF80
1FFFFF80
1FFFFF80
1FFFFF80
1FFFFF80
1FFFFF80
1FFFFF80
ENDCHAR
STARTCHAR 1EBB
ENCODING 7867
SWIDTH 520 0
DWIDTH 26 0
BBX 25 47 1 0
BITMAP
00780000
007C0000
00780000
00780000
00F80000
00F00000
00F00000
00F00000
00F80000
00000000
00000000
00000000
1FFFE000
1FFFE000
1FFFE000
1FFFE000
1FFFE000
1FFFE000
1FFFE000
1FE00000
1FE00000
1FE00000
1FE00000
1FE00000
1FE00000
1FE00000
FFFFF800
FFFFF800
FFFFF800
FFFFF800
FFFFF800
FFFFF800
FFFFF800
1FE00000
1FE00000
1FE00000
1FE00000
1FE00000
1FE00000
1FE00000
1FFFFF80
1FFFFF80
1FFFFF80
1FFFFF80
1FFFFF80
1FFFFF80
1FFFFF80
ENDCHAR
STARTCHAR 1EBC
ENCODING 7868
SWIDTH 520 0
DWIDTH 26 0
BBX 25 45 1 0
BITMAP
07C00000
0FFF0000
0FFF0000
0FFF0000
0FFF0000
001E0000
00000000
00000000
00000000
00000000
1FFFE000
1FFFE000
1FFFE000
1FFFE000
1FFFE000
1FFFE000
1FFFE000
1FE00000
1FE00000
1FE00000
1FE00000
1FE00000
1FE00000
1FE00000
FFFFF800
FFFFF800
FFFFF800
FFFFF800
FFFFF800
FFFFF800
FFFFF800
1FE00000
1FE00000
1FE00000
1FE00000
1FE00000
1FE00000
1FE00000
1FFFFF80
1FFFFF80
1FFFFF80
1FFFFF80
1FFFFF80
1FFFFF80
1FFFFF80
ENDCHAR
STARTCHAR 1EBD
ENCODING 7869
SWIDTH 520 0
DWIDTH 26 0
BBX 25 45 1 0
BITMAP
07C00000
0FFF0000
0FFF0000
0FFF0000
0FFF0000
001E0000
00000000
00000000
00000000
00000000
1FFFE000
1FFFE000
1FFFE000
1FFFE000
1FFFE000
1FFFE000
1FFFE000
1FE00000
1FE00000
1FE00000
1FE00000
1FE00000
1FE00000
1FE00000
FFFFF800
FFFFF800
FFFFF800
FFFFF800
FFFFF800
FFFFF800
FFFFF800
1FE00000
1FE00000
1FE00000
1FE00000
1FE00000
1FE00000
1FE00000
1FFFFF80
1FFFFF80
1FFFFF80
1FFFFF80
1FFFFF80
1FFFFF80
1FFFFF80
ENDCHAR
STARTCHAR 1EBE
ENCODING 7870
SWIDTH 520 0
DWIDTH 26 0
BBX 25 48 1 0
BITMAP
00003F00
00003E00
00003C00
00307C00
00787800
00FCF000
01FE0000
03FE0000
03FF0000
07FF8000
00000000
00000000
00000000
1FFFE000
1FFFE000
1FFFE000
1FFFE000
1FFFE000
1FFFE000
1FFFE000
1FE00000
1FE00000
1FE00000
1FE00000
1FE00000
1FE00000
1FE00000
FFFFF800
FFFFF800
FFFFF800
FFFFF800
FFFFF800
FFFFF800
FFFFF800
1FE00000
1FE00000
1FE00000
1FE00000
1FE00000
1FE00000
1FE00000
1FFFFF80
1FFFFF80
1FFFFF80
1FFFFF80
1FFFFF80
1FFFFF80
1FFFFF80
ENDCHAR
STARTCHAR 1EBF
ENCODING 7871
SWIDTH 520 0
DWIDTH 26 0
BBX 25 48 1 0
BITMAP
00003F00
00003E00
00003C00
00307C00
00787800
00FCF000
01FE0000
03FE0000
03FF0000
07FF8000
00000000
00000000
00000000
1FFFE000
1FFFE000
1FFFE000
1FFFE000
1FFFE000
1FFFE000
1FFFE000
1FE00000
1FE00000
1FE00000
1FE00000
1FE00000
1FE00000
1FE00000
FFFFF800
FFFFF800
FFFFF800
FFFFF800
FFFFF800
FFFFF800
FFFFF800
1FE00000
1FE00000
1FE00000
1FE00000
1FE00000
1FE00000
1FE00000
1FFFFF80
1FFFFF80
1FFFFF80
1FFFFF80
1FFFFF80
1FFFFF80
1FFFFF80
ENDCHAR
STARTCHAR 1EC0
ENCODING 7872
SWIDTH 520 0
DWIDTH 26 0
BBX 27 48 -1 0
BITMAP
FC000000
7C000000
7C000000
3E0C0000
1E1E0000
1F3F0000
007F8000
00FF8000
00FFC000
01FFE000
00000000
00000000
00000000
07FFF800
07FFF800
07FFF800
07FFF800
07FFF800
07FFF800
07FFF800
07F80000
07F80000
07F80000
07F80000
07F80000
07F80000
07F80000
3FFFFE00
3FFFFE00
3FFFFE00
3FFFFE00
3FFFFE00
3FFFFE00
3FFFFE00
07F80000
07F80000
07F80000
07F80000
07F80000
07F80000
07F80000
07FFFFE0
07FFFFE0
07FFFFE0
07FFFFE0
07FFFFE0
07FFFFE0
07FFFFE0
ENDCHAR
STARTCHAR 1EC1
ENCODING 7873
SWIDTH 520 0
DWIDTH 26 0
BBX 27 48 -1 0
BITMAP
FC000000
7C000000
7C000000
3E0C0000
1E1E0000
1F3F0000
007F8000
00FF8000
00FFC000
01FFE000
00000000
00000000
00000000
07FFF800
07FFF800
07FFF800
07FFF800
07FFF800
07FFF800
07FFF800
07F80000
07F80000
07F80000
07F80000
07F80000
07F80000
07F80000
3FFFFE00
3FFFFE00
3FFFFE00
3FFFFE00
3FFFFE00
3FFFFE00
3FFFFE00
07F80000
07F80000
07F80000
07F80000
07F80000
07F80000
07F80000
07FFFFE0
07FFFFE0
07FFFFE0
07FFFFE0
07FFFFE0
07FFFFE0
07FFFFE0
ENDCHAR
STARTCHAR 1EC2
ENCODING 7874
SWIDTH 520 0
DWIDTH 26 0
BBX 25 51 1 0
BITMAP
00007800
00007C00
00007800
00007800
0000F800
0000F000
0030F000
0078F000
00FCF800
01FE0000
03FE0000
03FF0000
07FF8000
00000000
00000000
00000000
1FFFE000
1FFFE000
1FFFE000
1FFFE000
1FFFE000
1FFFE000
1FFFE000
1FE00000
1FE00000
1FE00000
1FE00000
1FE00000
1FE00000
1FE00000
FFFFF800
FFFFF800
FFFFF800
FFFFF800
FFFFF800
FFFFF800
FFFFF800
1FE00000
1FE00000
1FE00000
1FE00000
1FE00000
1FE00000
1FE00000
1FFFFF80
1FFFFF80
1FFFFF80
1FFFFF80
1FFFFF80
1FFFFF80
1FFFFF80
ENDCHAR
STARTCHAR 1EC3
ENCODING 7875
SWIDTH 520 0
DWIDTH 26 0
BBX 25 51 1 0
BITMAP
00007800
00007C00
00007800
00007800
0000F800
0000F000
0030F000
0078F000
00FCF800
01FE0000
03FE0000
03FF0000
07FF8000
00000000
00000000
00000000
1FFFE000
1FFFE000
1FFFE000
1FFFE000
1FFFE000
1FFFE000
1FFFE000
1FE00000
1FE00000
1FE00000
1FE00000
1FE00000
1FE00000
1FE00000
FFFFF800
FFFFF800
FFFFF800
FFFFF800
FFFFF800
FFFFF800
FFFFF800
1FE00000
1FE00000
1FE00000
1FE00000
1FE00000
1FE00000
1FE00000
1FFFFF80
1FFFFF80
1FFFFF80
1FFFFF80
1FFFFF80
1FFFFF80
1FFFFF80
ENDCHAR
STARTCHAR 1EC4
ENCODING 7876
SWIDTH 520 0
DWIDTH 26 0
BBX 28 48 1 0
BITMAP
0000FC30
0000FFF0
0000FFF0
0030FFF0
007887F0
00FC0000
01FE0000
03FE0000
03FF0000
07FF8000
00000000
00000000
00000000
1FFFE000
1FFFE000
1FFFE000
1FFFE000
1FFFE000
1FFFE000
1FFFE000
1FE00000
1FE00000
1FE00000
1FE00000
1FE00000
1FE00000
1FE00000
FFFFF800
FFFFF800
FFFFF800
FFFFF800
FFFFF800
FFFFF800
FFFFF800
1FE00000
1FE00000
1FE00000
1FE00000
1FE00000
1FE00000
1FE00000
1FFFFF80
1FFFFF80
1FFFFF80
1FFFFF80
1FFFFF80
1FFFFF80
1FFFFF80
ENDCHAR
STARTCHAR 1EC5
ENCODING 7877
SWIDTH 520 0
DWIDTH 26 0
BBX 28 48 1 0
BITMAP
0000FC30
0000FFF0
0000FFF0
0030FFF0
007887F0
00FC0000
01FE0000
03FE0000
03FF0000
07FF8000
00000000
00000000
00000000
1FFFE000
1FFFE000
1FFFE000
1FFFE000
1FFFE000
1FFFE000
1FFFE000
1FE00000
1FE00000
1FE00000
1FE00000
1FE00000
1FE00000
1FE00000
FFFFF800
FFFFF800
FFFFF800
FFFFF800
FFFFF800
FFFFF800
FFFFF800
1FE00000
1FE00000
1FE00000
1FE00000
1FE00000
1FE00000
1FE00000
1FFFFF80
1FFFFF80
1FFFFF80
1FFFFF80
1FFFFF80
1FFFFF80
1FFFFF80
ENDCHAR
STARTCHAR 1EC6
ENCODING 7878
SWIDTH 520 0
DWIDTH 26 0
BBX 25 59 1 -13
BITMAP
00300000
00780000
00FC0000
01FE0000
03FE0000
03FF0000
07FF8000
00000000
00000000
00000000
1FFFE000
1FFFE000
1FFFE000
1FFFE000
1FFFE000
1FFFE000
1FFFE000
1FE00000
1FE00000
1FE00000
1FE00000
1FE00000
1FE00000
1FE00000
FFFFF800
FFFFF800
FFFFF800
FFFFF800
FFFFF800
FFFFF800
FFFFF800
1FE00000
1FE00000
1FE00000
1FE00000
1FE00000
1FE00000
1FE00000
1FFFFF80
1FFFFF80
1FFFFF80
1FFFFF80
1FFFFF80
1FFFFF80
1FFFFF80
00000000
00000000
00000000
00000000
00000000
00070000
001F8000
003FC000
003FE000
003FE000
003FE000
003FC000
001F8000
00070000
ENDCHAR
STARTCHAR 1EC7
ENCODING 7879
SWIDTH 520 0
DWIDTH 26 0
BBX 25 59 1 -13
BITMAP
00300000
00780000
00FC0000
01FE0000
03FE0000
03FF0000
07FF8000
00000000
00000000
00000000
1FFFE000
1FFFE000
1FFFE000
1FFFE000
1FFFE000
1FFFE000
1FFFE000
1FE00000
1FE00000
1FE00000
1FE00000
1FE00000
1FE00000
1FE00000
FFFFF800
FFFFF800
FFFFF800
FFFFF800
FFFFF800
FFFFF800
FFFFF800
1FE00000
1FE00000
1FE00000
1FE00000
1FE00000
1FE00000
1FE00000
1FFFFF80
1FFFFF80
1FFFFF80
1FFFFF80
1FFFFF80
1FFFFF80
1FFFFF80
00000000
00000000
00000000
00000000
00000000
00070000
001F8000
003FC000
003FE000
003FE000
003FE000
003FC000
001F8000
00070000
ENDCHAR
STARTCHAR 1EC8
ENCODING 7880
SWIDTH 260 0
DWIDTH 13 0
BBX 7 34 3 0
BITMAP
7C
3C
3C
3C
7C
78
78
78
78
7C
00
00
FE
FE
FE
FE
FE
FE
FE
FE
FE
FE
FE
FE
FE
FE
FE
FE
FE
FE
FE
FE
FE
FE
ENDCHAR
STARTCHAR 1EC9
ENCODING 7881
SWIDTH 260 0
DWIDTH 13 0
BBX 7 34 3 0
BITMAP
7C
3C
3C
3C
7C
78
78
78
78
7C
00
00
FE
FE
FE
FE
FE
FE
FE
FE
FE
FE
FE
FE
FE
FE
FE
FE
FE
FE
FE
FE
FE
FE
ENDCHAR
STARTCHAR 1ECA
ENCODING 7882
SWIDTH 240 0
DWIDTH 12 0
BBX 15 54 -1 -13
BITMAP
0100
0300
0380
0380
0780
FFFE
7FFC
3FF0
1FE0
0FE0
1FE0
1FE0
1C70
1010
0000
0000
0000
0000
0FE0
0FE0
0FE0
0FE0
0FE0
0FE0
0FE0
0FE0
0FE0
0FE0
0FE0
0FE0
0FE0
0FE0
0FE0
0FE0
0FE0
0FE0
0FE0
0FE0
0FE0
0FE0
0000
0000
0000
0000
0000
0380
0FC0
1FE0
1FF0
1FF0
1FF0
1FE0
0FC0
0380
ENDCHAR
STARTCHAR 1ECB
ENCODING 7883
SWIDTH 240 0
DWIDTH 12 0
BBX 15 54 -1 -13
BITMAP
0100
0300
0380
0380
0780
FFFE
7FFC
3FF0
1FE0
0FE0
1FE0
1FE0
1C70
1010
0000
0000
0000
0000
0FE0
0FE0
0FE0
0FE0
0FE0
0FE0
0FE0
0FE0
0FE0
0FE0
0FE0
0FE0
0FE0
0FE0
0FE0
0FE0
0FE0
0FE0
0FE0
0FE0
0FE0
0FE0
0000
0000
0000
0000
0000
0380
0FC0
1FE0
1FF0
1FF0
1FF0
1FE0
0FC0
0380
ENDCHAR
STARTCHAR 1ECC
ENCODING 7884
SWIDTH 820 0
DWIDTH 41 0
BBX 38 50 2 -14
BITMAP
0001F80000
000FFFC000
007FFFF000
00FFFFFC00
03FFFFFE00
07FFFFFF00
0FFFFFFF80
1FFF07FFC0
1FF800FFE0
3FF0003FE0
3FE0001FF0
7FC0000FF0
7F80000FF8
FF000007F8
FF000007F8
FF000003F8
FE000003F8
FE000003FC
FE000003FC
FE000003FC
FF000003F8
FF000003F8
FF000007F8
FF000007F8
7F80000FF8
7FC0000FF0
3FE0001FF0
3FF0003FE0
1FF800FFE0
1FFF07FFC0
0FFFFFFF80
07FFFFFF00
03FFFFFE00
00FFFFFC00
007FFFF000
000FFFC000
0000FC0000
0000000000
0000000000
0000000000
0000000000
0000700000
0000FC0000
0001FE0000
0001FE0000
0003FE0000
0001FE0000
0001FE0000
0000FC0000
0000700000
ENDCHAR
STARTCHAR 1ECD
ENCODING 7885
SWIDTH 820 0
DWIDTH 41 0
BBX 38 50 2 -14
BITMAP
0001F80000
000FFFC000
007FFFF000
00FFFFFC00
03FFFFFE00
07FFFFFF00
0FFFFFFF80
1FFF07FFC0
1FF800FFE0
3FF0003FE0
3FE0001FF0
7FC0000FF0
7F80000FF8
FF000007F8
FF000007F8
FF000003F8
FE000003F8
FE000003FC
FE000003FC
FE000003FC
FF000003F8
FF000003F8
FF000007F8
FF000007F8
7F80000FF8
7FC0000FF0
3FE0001FF0
3FF0003FE0
1FF800FFE0
1FFF07FFC0
0FFFFFFF80
07FFFFFF00
03FFFFFE00
00FFFFFC00
007FFFF000
000FFFC000
0000FC0000
0000000000
0000000000
0000000000
0000000000
0000700000
0000FC0000
0001FE0000
0001FE0000
0003FE0000
0001FE0000
0001FE0000
0000FC0000
0000700000
ENDCHAR
STARTCHAR 1ECE
ENCODING 7886
SWIDTH 820 0
DWIDTH 41 0
BBX 38 48 2 -1
BITMAP
0000780000
0000780000
0000780000
0000780000
0000F80000
0000F00000
0000F00000
0000F00000
0000F80000
0000000000
0000000000
0001F80000
000FFFC000
007FFFF000
00FFFFFC00
03FFFFFE00
07FFFFFF00
0FFFFFFF80
1FFF07FFC0
1FF800FFE0
3FF0003FE0
3FE0001FF0
7FC0000FF0
7F80000FF8
FF000007F8
FF000007F8
FF000003F8
FE000003F8
FE000003FC
FE000003FC
FE000003FC
FF000003F8
FF000003F8
FF000007F8
FF000007F8
7F80000FF8
7FC0000FF0
3FE0001FF0
3FF0003FE0
1FF800FFE0
1FFF07FFC0
0FFFFFFF80
07FFFFFF00
03FFFFFE00
00FFFFFC00
007FFFF000
000FFFC000
0000FC0000
ENDCHAR
STARTCHAR 1ECF
ENCODING 7887
SWIDTH 820 0
DWIDTH 41 0
BBX 38 48 2 -1
BITMAP
0000780000
0000780000
0000780000
0000780000
0000F80000
0000F00000
0000F00000
0000F00000
0000F80000
0000000000
0000000000
0001F80000
000FFFC000
007FFFF000
00FFFFFC00
03FFFFFE00
07FFFFFF00
0FFFFFFF80
1FFF07FFC0
1FF800FFE0
3FF0003FE0
3FE0001FF0
7FC0000FF0
7F80000FF8
FF000007F8
FF000007F8
FF000003F8
FE000003F8
FE000003FC
FE000003FC
FE000003FC
FF000003F8
FF000003F8
FF000007F8
FF000007F8
7F80000FF8
7FC0000FF0
3FE0001FF0
3FF0003FE0
1FF800FFE0
1FFF07FFC0
0FFFFFFF80
07FFFFFF00
03FFFFFE00
00FFFFFC00
007FFFF000
000FFFC000
0000FC0000
ENDCHAR
STARTCHAR 1ED0
ENCODING 7888
SWIDTH 820 0
DWIDTH 41 0
BBX 38 49 2 -1
BITMAP
0000003E00
0000003E00
0000007C00
0000307800
000078F800
0000F8F000
0001FC0000
0003FE0000
0007FF0000
000FFF8000
0000000000
0000000000
0001F80000
000FFFC000
007FFFF000
00FFFFFC00
03FFFFFE00
07FFFFFF00
0FFFFFFF80
1FFF07FFC0
1FF800FFE0
3FF0003FE0
3FE0001FF0
7FC0000FF0
7F80000FF8
FF000007F8
FF000007F8
FF000003F8
FE000003F8
FE000003FC
FE000003FC
FE000003FC
FF000003F8
FF000003F8
FF000007F8
FF000007F8
7F80000FF8
7FC0000FF0
3FE0001FF0
3FF0003FE0
1FF800FFE0
1FFF07FFC0
0FFFFFFF80
07FFFFFF00
03FFFFFE00
00FFFFFC00
007FFFF000
000FFFC000
0000FC0000
ENDCHAR
STARTCHAR 1ED1
ENCODING 7889
SWIDTH 820 0
DWIDTH 41 0
BBX 38 49 2 -1
BITMAP
0000003E00
0000003E00
0000007C00
0000307800
000078F800
0000F8F000
0001FC0000
0003FE0000
0007FF0000
000FFF8000
0000000000
0000000000
0001F80000
000FFFC000
007FFFF000
00FFFFFC00
03FFFFFE00
07FFFFFF00
0FFFFFFF80
1FFF07FFC0
1FF800FFE0
3FF0003FE0
3FE0001FF0
7FC0000FF0
7F80000FF8
FF000007F8
FF000007F8
FF000003F8
FE000003F8
FE000003FC
FE000003FC
FE000003FC
FF000003F8
FF000003F8
FF000007F8
FF000007F8
7F80000FF8
7FC0000FF0
3FE0001FF0
3FF0003FE0
1FF800FFE0
1FFF07FFC0
0FFFFFFF80
07FFFFFF00
03FFFFFE00
00FFFFFC00
007FFFF000
000FFFC000
0000FC0000
ENDCHAR
STARTCHAR 1ED2
ENCODING 7890
SWIDTH 820 0
DWIDTH 41 0
BBX 38 49 2 -1
BITMAP
03E0000000
01F0000000
01F0000000
00F8300000
0078780000
0078F80000
0001FC0000
0003FE0000
0007FF0000
000FFF8000
0000000000
0000000000
0001F80000
000FFFC000
007FFFF000
00FFFFFC00
03FFFFFE00
07FFFFFF00
0FFFFFFF80
1FFF07FFC0
1FF800FFE0
3FF0003FE0
3FE0001FF0
7FC0000FF0
7F80000FF8
FF000007F8
FF000007F8
FF000003F8
FE000003F8
FE000003FC
FE000003FC
FE000003FC
FF000003F8
FF000003F8
FF000007F8
FF000007F8
7F80000FF8
7FC0000FF0
3FE0001FF0
3FF0003FE0
1FF800FFE0
1FFF07FFC0
0FFFFFFF80
07FFFFFF00
03FFFFFE00
00FFFFFC00
007FFFF000
000FFFC000
0000FC0000
ENDCHAR
STARTCHAR 1ED3
ENCODING 7891
SWIDTH 820 0
DWIDTH 41 0
BBX 38 49 2 -1
BITMAP
03E0000000
01F0000000
01F0000000
00F8300000
0078780000
0078F80000
0001FC0000
0003FE0000
0007FF0000
000FFF8000
0000000000
0000000000
0001F80000
000FFFC000
007FFFF000
00FFFFFC00
03FFFFFE00
07FFFFFF00
0FFFFFFF80
1FFF07FFC0
1FF800FFE0
3FF0003FE0
3FE0001FF0
7FC0000FF0
7F80000FF8
FF000007F8
FF000007F8
FF000003F8
FE000003F8
FE000003FC
FE000003FC
FE000003FC
FF000003F8
FF000003F8
FF000007F8
FF000007F8
7F80000FF8
7FC0000FF0
3FE0001FF0
3FF0003FE0
1FF800FFE0
1FFF07FFC0
0FFFFFFF80
07FFFFFF00
03FFFFFE00
00FFFFFC00
007FFFF000
000FFFC000
0000FC0000
ENDCHAR
STARTCHAR 1ED4
ENCODING 7892
SWIDTH 820 0
DWIDTH 41 0
BBX 38 52 2 -1
BITMAP
0000007800
0000007800
0000007800
000000F800
000000F000
000000F000
000030F000
000078F000
0000F8F000
0001FC0000
0003FE0000
0007FF0000
000FFF8000
0000000000
0000000000
0001F80000
000FFFC000
007FFFF000
00FFFFFC00
03FFFFFE00
07FFFFFF00
0FFFFFFF80
1FFF07FFC0
1FF800FFE0
3FF0003FE0
3FE0001FF0
7FC0000FF0
7F80000FF8
FF000007F8
FF000007F8
FF000003F8
FE000003F8
FE000003FC
FE000003FC
FE000003FC
FF000003F8
FF000003F8
FF000007F8
FF000007F8
7F80000FF8
7FC0000FF0
3FE0001FF0
3FF0003FE0
1FF800FFE0
1FFF07FFC0
0FFFFFFF80
07FFFFFF00
03FFFFFE00
00FFFFFC00
007FFFF000
000FFFC000
0000FC0000
ENDCHAR
STARTCHAR 1ED5
ENCODING 7893
SWIDTH 820 0
DWIDTH 41 0
BBX 38 52 2 -1
BITMAP
0000007800
0000007800
0000007800
000000F800
000000F000
000000F000
000030F000
000078F000
0000F8F000
0001FC0000
0003FE0000
0007FF0000
000FFF8000
0000000000
0000000000
0001F80000
000FFFC000
007FFFF000
00FFFFFC00
03FFFFFE00
07FFFFFF00
0FFFFFFF80
1FFF07FFC0
1FF800FFE0
3FF0003FE0
3FE0001FF0
7FC0000FF0
7F80000FF8
FF000007F8
FF000007F8
FF000003F8
FE000003F8
FE000003FC
FE000003FC
FE000003FC
FF000003F8
FF000003F8
FF000007F8
FF000007F8
7F80000FF8
7FC0000FF0
3FE0001FF0
3FF0003FE0
1FF800FFE0
1FFF07FFC0
0FFFFFFF80
07FFFFFF00
03FFFFFE00
00FFFFFC00
007FFFF000
000FFFC000
0000FC0000
ENDCHAR
STARTCHAR 1ED6
ENCODING 7894
SWIDTH 820 0
DWIDTH 41 0
BBX 38 49 2 -1
BITMAP
000001FC20
000001FFE0
000001FFE0
000031FFE0
0000790FE0
0000F80000
0001FC0000
0003FE0000
0007FF0000
000FFF8000
0000000000
0000000000
0001F80000
000FFFC000
007FFFF000
00FFFFFC00
03FFFFFE00
07FFFFFF00
0FFFFFFF80
1FFF07FFC0
1FF800FFE0
3FF0003FE0
3FE0001FF0
7FC0000FF0
7F80000FF8
FF000007F8
FF000007F8
FF000003F8
FE000003F8
FE000003FC
FE000003FC
FE000003FC
FF000003F8
FF000003F8
FF000007F8
FF000007F8
7F80000FF8
7FC0000FF0
3FE0001FF0
3FF0003FE0
1FF800FFE0
1FFF07FFC0
0FFFFFFF80
07FFFFFF00
03FFFFFE00
00FFFFFC00
007FFFF000
000FFFC000
0000FC0000
ENDCHAR
STARTCHAR 1ED7
ENCODING 7895
SWIDTH 820 0
DWIDTH 41 0
BBX 38 49 2 -1
BITMAP
000001FC20
000001FFE0
000001FFE0
000031FFE0
0000790FE0
0000F80000
0001FC0000
0003FE0000
0007FF0000
000FFF8000
0000000000
0000000000
0001F80000
000FFFC000
007FFFF000
00FFFFFC00
03FFFFFE00
07FFFFFF00
0FFFFFFF80
1FFF07FFC0
1FF800FFE0
3FF0003FE0
3FE0001FF0
7FC0000FF0
7F80000FF8
FF000007F8
FF000007F8
FF000003F8
FE000003F8
FE000003FC
FE000003FC
FE000003FC
FF000003F8
FF000003F8
FF000007F8
FF000007F8
7F80000FF8
7FC0000FF0
3FE0001FF0
3FF0003FE0
1FF800FFE0
1FFF07FFC0
0FFFFFFF80
07FFFFFF00
03FFFFFE00
00FFFFFC00
007FFFF000
000FFFC000
0000FC0000
ENDCHAR
STARTCHAR 1ED8
ENCODING 7896
SWIDTH 820 0
DWIDTH 41 0
BBX 38 59 2 -13
BITMAP
0000300000
0000780000
0000F80000
0001FC0000
0003FE0000
0007FF0000
000FFF8000
0000000000
0000000000
0001F80000
000FFFC000
007FFFF000
00FFFFFC00
03FFFFFE00
07FFFFFF00
0FFFFFFF80
1FFF07FFC0
1FF800FFE0
3FF0003FE0
3FE0001FF0
7FC0000FF0
7F80000FF8
FF000007F8
FF000007F8
FF000003F8
FE000003F8
FE000003FC
FE000003FC
FE000003FC
FF000003F8
FF000003F8
FF000007F8
FF000007F8
7F80000FF8
7FC0000FF0
3FE0001FF0
3FF0003FE0
1FF800FFE0
1FFF07FFC0
0FFFFFFF80
07FFFFFF00
03FFFFFE00
00FFFFFC00
007FFFF000
000FFFC000
0000FC0000
0000000000
0000000000
0000000000
0000000000
0000700000
0000FC0000
0001FE0000
0001FE0000
0003FE0000
0001FE0000
0001FE0000
0000FC0000
0000700000
ENDCHAR
STARTCHAR 1ED9
ENCODING 7897
SWIDTH 820 0
DWIDTH 41 0
BBX 38 59 2 -13
BITMAP
0000300000
0000780000
0000F80000
0001FC0000
0003FE0000
0007FF0000
000FFF8000
0000000000
0000000000
0001F80000
000FFFC000
007FFFF000
00FFFFFC00
03FFFFFE00
07FFFFFF00
0FFFFFFF80
1FFF07FFC0
1FF800FFE0
3FF0003FE0
3FE0001FF0
7FC0000FF0
7F80000FF8
FF000007F8
FF000007F8
FF000003F8
FE000003F8
FE000003FC
FE000003FC
FE000003FC
FF000003F8
FF000003F8
FF000007F8
FF000007F8
7F80000FF8
7FC0000FF0
3FE0001FF0
3FF0003FE0
1FF800FFE0
1FFF07FFC0
0FFFFFFF80
07FFFFFF00
03FFFFFE00
00FFFFFC00
007FFFF000
000FFFC000
0000FC0000
0000000000
0000000000
0000000000
0000000000
0000700000
0000FC0000
0001FE0000
0001FE0000
0003FE0000
0001FE0000
0001FE0000
0000FC0000
0000700000
ENDCHAR
STARTCHAR 1EDA
ENCODING 7898
SWIDTH 820 0
DWIDTH 41 0
BBX 38 46 2 -1
BITMAP
00001F8000
00001F0000
00003E0000
00003E0000
00003C0000
0000780000
00000001F0
00000001F0
00000001F0
0001F801E0
000FFFC1E0
007FFFF1E0
00FFFFFDE0
03FFFFFE00
07FFFFFF00
0FFFFFFF80
1FFF07FFC0
1FF800FFE0
3FF0003FE0
3FE0001FF0
7FC0000FF0
7F80000FF8
FF000007F8
FF000007F8
FF000003F8
FE000003F8
FE000003FC
FE000003FC
FE000003FC
FF000003F8
FF000003F8
FF000007F8
FF000007F8
7F80000FF8
7FC0000FF0
3FE0001FF0
3FF0003FE0
1FF800FFE0
1FFF07FFC0
0FFFFFFF80
07FFFFFF00
03FFFFFE00
00FFFFFC00
007FFFF000
000FFFC000
0000FC0000
ENDCHAR
STARTCHAR 1EDB
ENCODING 7899
SWIDTH 820 0
DWIDTH 41 0
BBX 38 46 2 -1
BITMAP
00001F8000
00001F0000
00003E0000
00003E0000
00003C0000
0000780000
00000001F0
00000001F0
00000001F0
0001F801E0
000FFFC1E0
007FFFF1E0
00FFFFFDE0
03FFFFFE00
07FFFFFF00
0FFFFFFF80
1FFF07FFC0
1FF800FFE0
3FF0003FE0
3FE0001FF0
7FC0000FF0
7F80000FF8
FF000007F8
FF000007F8
FF000003F8
FE000003F8
FE000003FC
FE000003FC
FE000003FC
FF000003F8
FF000003F8
FF000007F8
FF000007F8
7F80000FF8
7FC0000FF0
3FE0001FF0
3FF0003FE0
1FF800FFE0
1FFF07FFC0
0FFFFFFF80
07FFFFFF00
03FFFFFE00
00FFFFFC00
007FFFF000
000FFFC000
0000FC0000
ENDCHAR
STARTCHAR 1EDC
ENCODING 7900
SWIDTH 820 0
DWIDTH 41 0
BBX 38 46 2 -1
BITMAP
0007C00000
0007E00000
0003E00000
0001E00000
0001F00000
0000F00000
00000001F0
00000001F0
00000001F0
0001F801E0
000FFFC1E0
007FFFF1E0
00FFFFFDE0
03FFFFFE00
07FFFFFF00
0FFFFFFF80
1FFF07FFC0
1FF800FFE0
3FF0003FE0
3FE0001FF0
7FC0000FF0
7F80000FF8
FF000007F8
FF000007F8
FF000003F8
FE000003F8
FE000003FC
FE000003FC
FE000003FC
FF000003F8
FF000003F8
FF000007F8
FF000007F8
7F80000FF8
7FC0000FF0
3FE0001FF0
3FF0003FE0
1FF800FFE0
1FFF07FFC0
0FFFFFFF80
07FFFFFF00
03FFFFFE00
00FFFFFC00
007FFFF000
000FFFC000
0000FC0000
ENDCHAR
STARTCHAR 1EDD
ENCODING 7901
SWIDTH 820 0
DWIDTH 41 0
BBX 38 46 2 -1
BITMAP
0007C00000
0007E00000
0003E00000
0001E00000
0001F00000
0000F00000
00000001F0
00000001F0
00000001F0
0001F801E0
000FFFC1E0
007FFFF1E0
00FFFFFDE0
03FFFFFE00
07FFFFFF00
0FFFFFFF80
1FFF07FFC0
1FF800FFE0
3FF0003FE0
3FE0001FF0
7FC0000FF0
7F80000FF8
FF000007F8
FF000007F8
FF000003F8
FE000003F8
FE000003FC
FE000003FC
FE000003FC
FF000003F8
FF000003F8
FF000007F8
FF000007F8
7F80000FF8
7FC0000FF0
3FE0001FF0
3FF0003FE0
1FF800FFE0
1FFF07FFC0
0FFFFFFF80
07FFFFFF00
03FFFFFE00
00FFFFFC00
007FFFF000
000FFFC000
0000FC0000
ENDCHAR
STARTCHAR 1EDE
ENCODING 7902
SWIDTH 820 0
DWIDTH 41 0
BBX 38 48 2 -1
BITMAP
0000780000
0000780000
0000780000
0000780000
0000F80000
0000F00000
0000F00000
0000F00000
0000F801F0
00000001F0
00000001F0
0001F801E0
000FFFC1E0
007FFFF1E0
00FFFFFDE0
03FFFFFE00
07FFFFFF00
0FFFFFFF80
1FFF07FFC0
1FF800FFE0
3FF0003FE0
3FE0001FF0
7FC0000FF0
7F80000FF8
FF000007F8
FF000007F8
FF000003F8
FE000003F8
FE000003FC
FE000003FC
FE000003FC
FF000003F8
FF000003F8
FF000007F8
FF000007F8
7F80000FF8
7FC0000FF0
3FE0001FF0
3FF0003FE0
1FF800FFE0
1FFF07FFC0
0FFFFFFF80
07FFFFFF00
03FFFFFE00
00FFFFFC00
007FFFF000
000FFFC000
0000FC0000
ENDCHAR
STARTCHAR 1EDF
ENCODING 7903
SWIDTH 820 0
DWIDTH 41 0
BBX 38 48 2 -1
BITMAP
0000780000
0000780000
0000780000
0000780000
0000F80000
0000F00000
0000F00000
0000F00000
0000F801F0
00000001F0
00000001F0
0001F801E0
000FFFC1E0
007FFFF1E0
00FFFFFDE0
03FFFFFE00
07FFFFFF00
0FFFFFFF80
1FFF07FFC0
1FF800FFE0
3FF0003FE0
3FE0001FF0
7FC0000FF0
7F80000FF8
FF000007F8
FF000007F8
FF000003F8
FE000003F8
FE000003FC
FE000003FC
FE000003FC
FF000003F8
FF000003F8
FF000007F8
FF000007F8
7F80000FF8
7FC0000FF0
3FE0001FF0
3FF0003FE0
1FF800FFE0
1FFF07FFC0
0FFFFFFF80
07FFFFFF00
03FFFFFE00
00FFFFFC00
007FFFF000
000FFFC000
0000FC0000
ENDCHAR
STARTCHAR 1EE0
ENCODING 7904
SWIDTH 820 0
DWIDTH 41 0
BBX 38 46 2 -1
BITMAP
0007800000
000FFF0000
000FFF0000
000FFF0000
000FFF0000
00001E0000
00000001F0
00000001F0
00000001F0
0001F801E0
000FFFC1E0
007FFFF1E0
00FFFFFDE0
03FFFFFE00
07FFFFFF00
0FFFFFFF80
1FFF07FFC0
1FF800FFE0
3FF0003FE0
3FE0001FF0
7FC0000FF0
7F80000FF8
FF000007F8
FF000007F8
FF000003F8
FE000003F8
FE000003FC
FE000003FC
FE000003FC
FF000003F8
FF000003F8
FF000007F8
FF000007F8
7F80000FF8
7FC0000FF0
3FE0001FF0
3FF0003FE0
1FF800FFE0
1FFF07FFC0
0FFFFFFF80
07FFFFFF00
03FFFFFE00
00FFFFFC00
007FFFF000
000FFFC000
0000FC0000
ENDCHAR
STARTCHAR 1EE1
ENCODING 7905
SWIDTH 820 0
DWIDTH 41 0
BBX 38 46 2 -1
BITMAP
0007800000
000FFF0000
000FFF0000
000FFF0000
000FFF0000
00001E0000
00000001F0
00000001F0
00000001F0
0001F801E0
000FFFC1E0
007FFFF1E0
00FFFFFDE0
03FFFFFE00
07FFFFFF00
0FFFFFFF80
1FFF07FFC0
1FF800FFE0
3FF0003FE0
3FE0001FF0
7FC0000FF0
7F80000FF8
FF000007F8
FF000007F8
FF000003F8
FE000003F8
FE000003FC
FE000003FC
FE000003FC
FF000003F8
FF000003F8
FF000007F8
FF000007F8
7F80000FF8
7FC0000FF0
3FE0001FF0
3FF0003FE0
1FF800FFE0
1FFF07FFC0
0FFFFFFF80
07FFFFFF00
03FFFFFE00
00FFFFFC00
007FFFF000
000FFFC000
0000FC0000
ENDCHAR
STARTCHAR 1EE2
ENCODING 7906
SWIDTH 820 0
DWIDTH 41 0
BBX 38 53 2 -14
BITMAP
00000001F0
00000001F0
00000001F0
0001F801E0
000FFFC1E0
007FFFF1E0
00FFFFFDE0
03FFFFFE00
07FFFFFF00
0FFFFFFF80
1FFF07FFC0
1FF800FFE0
3FF0003FE0
3FE0001FF0
7FC0000FF0
7F80000FF8
FF000007F8
FF000007F8
FF000003F8
FE000003F8
FE000003FC
FE000003FC
FE000003FC
FF000003F8
FF000003F8
FF000007F8
FF000007F8
7F80000FF8
7FC0000FF0
3FE0001FF0
3FF0003FE0
1FF800FFE0
1FFF07FFC0
0FFFFFFF80
07FFFFFF00
03FFFFFE00
00FFFFFC00
007FFFF000
000FFFC000
0000FC0000
0000000000
0000000000
0000000000
0000000000
0000700000
0000FC0000
0001FE0000
0001FE0000
0003FE0000
0001FE0000
0001FE0000
0000FC0000
0000700000
ENDCHAR
STARTCHAR 1EE3
ENCODING 7907
SWIDTH 820 0
DWIDTH 41 0
BBX 38 53 2 -14
BITMAP
00000001F0
00000001F0
00000001F0
0001F801E0
000FFFC1E0
007FFFF1E0
00FFFFFDE0
03FFFFFE00
07FFFFFF00
0FFFFFFF80
1FFF07FFC0
1FF800FFE0
3FF0003FE0
3FE0001FF0
7FC0000FF0
7F80000FF8
FF000007F8
FF000007F8
FF000003F8
FE000003F8
FE000003FC
FE000003FC
FE000003FC
FF000003F8
FF000003F8
FF000007F8
FF000007F8
7F80000FF8
7FC0000FF0
3FE0001FF0
3FF0003FE0
1FF800FFE0
1FFF07FFC0
0FFFFFFF80
07FFFFFF00
03FFFFFE00
00FFFFFC00
007FFFF000
000FFFC000
0000FC0000
0000000000
0000000000
0000000000
0000000000
0000700000
0000FC0000
0001FE0000
0001FE0000
0003FE0000
0001FE0000
0001FE0000
0000FC0000
0000700000
ENDCHAR
STARTCHAR 1EE4
ENCODING 7908
SWIDTH 540 0
DWIDTH 27 0
BBX 23 49 2 -14
BITMAP
FF01FE
FF01FE
FF01FE
FF01FE
FF01FE
FF01FE
FF01FE
FF01FE
FF01FE
FF01FE
FF01FE
FF01FE
FF01FE
FF01FE
FF01FE
FF01FE
FF01FE
FF01FE
FF01FE
FF01FE
FF01FE
FF01FE
FF01FE
FF01FE
FF01FE
FF01FE
7F01FE
7F83FC
7FC7FC
7FFFFC
3FFFF8
1FFFF8
0FFFF0
07FFE0
03FF80
007C00
000000
000000
000000
000000
003800
00FE00
00FE00
01FF00
01FF00
01FF00
00FE00
00FE00
003800
ENDCHAR
STARTCHAR 1EE5
ENCODING 7909
SWIDTH 540 0
DWIDTH 27 0
BBX 23 49 2 -14
BITMAP
FF01FE
FF01FE
FF01FE
FF01FE
FF01FE
FF01FE
FF01FE
FF01FE
FF01FE
FF01FE
FF01FE
FF01FE
FF01FE
FF01FE
FF01FE
FF01FE
FF01FE
FF01FE
FF01FE
FF01FE
FF01FE
FF01FE
FF01FE
FF01FE
FF01FE
FF01FE
7F01FE
7F83FC
7FC7FC
7FFFFC
3FFFF8
1FFFF8
0FFFF0
07FFE0
03FF80
007C00
000000
000000
000000
000000
003800
00FE00
00FE00
01FF00
01FF00
01FF00
00FE00
00FE00
003800
ENDCHAR
STARTCHAR 1EE6
ENCODING 7910
SWIDTH 540 0
DWIDTH 27 0
BBX 23 48 2 -1
BITMAP
003C00
003C00
003C00
007C00
007800
007800
007800
007800
007800
000000
000000
000000
FF01FE
FF01FE
FF01FE
FF01FE
FF01FE
FF01FE
FF01FE
FF01FE
FF01FE
FF01FE
FF01FE
FF01FE
FF01FE
FF01FE
FF01FE
FF01FE
FF01FE
FF01FE
FF01FE
FF01FE
FF01FE
FF01FE
FF01FE
FF01FE
FF01FE
FF01FE
7F01FE
7F83FC
7FC7FC
7FFFFC
3FFFF8
1FFFF8
0FFFF0
07FFE0
03FF80
007C00
ENDCHAR
STARTCHAR 1EE7
ENCODING 7911
SWIDTH 540 0
DWIDTH 27 0
BBX 23 48 2 -1
BITMAP
003C00
003C00
003C00
007C00
007800
007800
007800
007800
007800
000000
000000
000000
FF01FE
FF01FE
FF01FE
FF01FE
FF01FE
FF01FE
FF01FE
FF01FE
FF01FE
FF01FE
FF01FE
FF01FE
FF01FE
FF01FE
FF01FE
FF01FE
FF01FE
FF01FE
FF01FE
FF01FE
FF01FE
FF01FE
FF01FE
FF01FE
FF01FE
FF01FE
7F01FE
7F83FC
7FC7FC
7FFFFC
3FFFF8
1FFFF8
0FFFF0
07FFE0
03FF80
007C00
ENDCHAR
STARTCHAR 1EE8
ENCODING 7912
SWIDTH 540 0
DWIDTH 27 0
BBX 29 46 2 -1
BITMAP
000FC000
000F8000
001F0000
001F0000
003E0000
003C0000
000000F8
000000F8
000000F8
000000F0
FF01FEF0
FF01FEF0
FF01FEF0
FF01FE00
FF01FE00
FF01FE00
FF01FE00
FF01FE00
FF01FE00
FF01FE00
FF01FE00
FF01FE00
FF01FE00
FF01FE00
FF01FE00
FF01FE00
FF01FE00
FF01FE00
FF01FE00
FF01FE00
FF01FE00
FF01FE00
FF01FE00
FF01FE00
FF01FE00
FF01FE00
7F01FE00
7F83FC00
7FC7FC00
7FFFFC00
3FFFF800
1FFFF800
0FFFF000
07FFE000
03FF8000
007C0000
ENDCHAR
STARTCHAR 1EE9
ENCODING 7913
SWIDTH 540 0
DWIDTH 27 0
BBX 29 46 2 -1
BITMAP
000FC000
000F8000
001F0000
001F0000
003E0000
003C0000
000000F8
000000F8
000000F8
000000F0
FF01FEF0
FF01FEF0
FF01FEF0
FF01FE00
FF01FE00
FF01FE00
FF01FE00
FF01FE00
FF01FE00
FF01FE00
FF01FE00
FF01FE00
FF01FE00
FF01FE00
FF01FE00
FF01FE00
FF01FE00
FF01FE00
FF01FE00
FF01FE00
FF01FE00
FF01FE00
FF01FE00
FF01FE00
FF01FE00
FF01FE00
7F01FE00
7F83FC00
7FC7FC00
7FFFFC00
3FFFF800
1FFFF800
0FFFF000
07FFE000
03FF8000
007C0000
ENDCHAR
STARTCHAR 1EEA
ENCODING 7914
SWIDTH 540 0
DWIDTH 27 0
BBX 29 46 2 -1
BITMAP
03E00000
03E00000
01F00000
00F00000
00F80000
00780000
000000F8
000000F8
000000F8
000000F0
FF01FEF0
FF01FEF0
FF01FEF0
FF01FE00
FF01FE00
FF01FE00
FF01FE00
FF01FE00
FF01FE00
FF01FE00
FF01FE00
FF01FE00
FF01FE00
FF01FE00
FF01FE00
FF01FE00
FF01FE00
FF01FE00
FF01FE00
FF01FE00
FF01FE00
FF01FE00
FF01FE00
FF01FE00
FF01FE00
FF01FE00
7F01FE00
7F83FC00
7FC7FC00
7FFFFC00
3FFFF800
1FFFF800
0FFFF000
07FFE000
03FF8000
007C0000
ENDCHAR
STARTCHAR 1EEB
ENCODING 7915
SWIDTH 540 0
DWIDTH 27 0
BBX 29 46 2 -1
BITMAP
03E00000
03E00000
01F00000
00F00000
00F80000
00780000
000000F8
000000F8
000000F8
000000F0
FF01FEF0
FF01FEF0
FF01FEF0
FF01FE00
FF01FE00
FF01FE00
FF01FE00
FF01FE00
FF01FE00
FF01FE00
FF01FE00
FF01FE00
FF01FE00
FF01FE00
FF01FE00
FF01FE00
FF01FE00
FF01FE00
FF01FE00
FF01FE00
FF01FE00
FF01FE00
FF01FE00
FF01FE00
FF01FE00
FF01FE00
7F01FE00
7F83FC00
7FC7FC00
7FFFFC00
3FFFF800
1FFFF800
0FFFF000
07FFE000
03FF8000
007C0000
ENDCHAR
STARTCHAR 1EEC
ENCODING 7916
SWIDTH 540 0
DWIDTH 27 0
BBX 29 48 2 -1
BITMAP
003C0000
003C0000
003C0000
007C0000
00780000
00780000
00780000
00780000
007800F8
000000F8
000000F8
000000F0
FF01FEF0
FF01FEF0
FF01FEF0
FF01FE00
FF01FE00
FF01FE00
FF01FE00
FF01FE00
FF01FE00
FF01FE00
FF01FE00
FF01FE00
FF01FE00
FF01FE00
FF01FE00
FF01FE00
FF01FE00
FF01FE00
FF01FE00
FF01FE00
FF01FE00
FF01FE00
FF01FE00
FF01FE00
FF01FE00
FF01FE00
7F01FE00
7F83FC00
7FC7FC00
7FFFFC00
3FFFF800
1FFFF800
0FFFF000
07FFE000
03FF8000
007C0000
ENDCHAR
STARTCHAR 1EED
ENCODING 7917
SWIDTH 540 0
DWIDTH 27 0
BBX 29 48 2 -1
BITMAP
003C0000
003C0000
003C0000
007C0000
00780000
00780000
00780000
00780000
007800F8
000000F8
000000F8
000000F0
FF01FEF0
FF01FEF0
FF01FEF0
FF01FE00
FF01FE00
FF01FE00
FF01FE00
FF01FE00
FF01FE00
FF01FE00
FF01FE00
FF01FE00
FF01FE00
FF01FE00
FF01FE00
FF01FE00
FF01FE00
FF01FE00
FF01FE00
FF01FE00
FF01FE00
FF01FE00
FF01FE00
FF01FE00
FF01FE00
FF01FE00
7F01FE00
7F83FC00
7FC7FC00
7FFFFC00
3FFFF800
1FFFF800
0FFFF000
07FFE000
03FF8000
007C0000
ENDCHAR
STARTCHAR 1EEE
ENCODING 7918
SWIDTH 540 0
DWIDTH 27 0
BBX 29 46 2 -1
BITMAP
03C00000
07FF8000
07FF8000
07FF8000
07FF8000
000F0000
000000F8
000000F8
000000F8
000000F0
FF01FEF0
FF01FEF0
FF01FEF0
FF01FE00
FF01FE00
FF01FE00
FF01FE00
FF01FE00
FF01FE00
FF01FE00
FF01FE00
FF01FE00
FF01FE00
FF01FE00
FF01FE00
FF01FE00
FF01FE00
FF01FE00
FF01FE00
FF01FE00
FF01FE00
FF01FE00
FF01FE00
FF01FE00
FF01FE00
FF01FE00
7F01FE00
7F83FC00
7FC7FC00
7FFFFC00
3FFFF800
1FFFF800
0FFFF000
07FFE000
03FF8000
007C0000
ENDCHAR
STARTCHAR 1EEF
ENCODING 7919
SWIDTH 540 0
DWIDTH 27 0
BBX 29 46 2 -1
BITMAP
03C00000
07FF8000
07FF8000
07FF8000
07FF8000
000F0000
000000F8
000000F8
000000F8
000000F0
FF01FEF0
FF01FEF0
FF01FEF0
FF01FE00
FF01FE00
FF01FE00
FF01FE00
FF01FE00
FF01FE00
FF01FE00
FF01FE00
FF01FE00
FF01FE00
FF01FE00
FF01FE00
FF01FE00
FF01FE00
FF01FE00
FF01FE00
FF01FE00
FF01FE00
FF01FE00
FF01FE00
FF01FE00
FF01FE00
FF01FE00
7F01FE00
7F83FC00
7FC7FC00
7FFFFC00
3FFFF800
1FFFF800
0FFFF000
07FFE000
03FF8000
007C0000
ENDCHAR
STARTCHAR 1EF0
ENCODING 7920
SWIDTH 540 0
DWIDTH 27 0
BBX 29 53 2 -14
BITMAP
000000F8
000000F8
000000F8
000000F0
FF01FEF0
FF01FEF0
FF01FEF0
FF01FE00
FF01FE00
FF01FE00
FF01FE00
FF01FE00
FF01FE00
FF01FE00
FF01FE00
FF01FE00
FF01FE00
FF01FE00
FF01FE00
FF01FE00
FF01FE00
FF01FE00
FF01FE00
FF01FE00
FF01FE00
FF01FE00
FF01FE00
FF01FE00
FF01FE00
FF01FE00
7F01FE00
7F83FC00
7FC7FC00
7FFFFC00
3FFFF800
1FFFF800
0FFFF000
07FFE000
03FF8000
007C0000
00000000
00000000
00000000
00000000
00380000
00FE0000
00FE0000
01FF0000
01FF0000
01FF0000
00FE0000
00FE0000
00380000
ENDCHAR
STARTCHAR 1EF1
ENCODING 7921
SWIDTH 540 0
DWIDTH 27 0
BBX 29 53 2 -14
BITMAP
000000F8
000000F8
000000F8
000000F0
FF01FEF0
FF01FEF0
FF01FEF0
FF01FE00
FF01FE00
FF01FE00
FF01FE00
FF01FE00
FF01FE00
FF01FE00
FF01FE00
FF01FE00
FF01FE00
FF01FE00
FF01FE00
FF01FE00
FF01FE00
FF01FE00
FF01FE00
FF01FE00
FF01FE00
FF01FE00
FF01FE00
FF01FE00
FF01FE00
FF01FE00
7F01FE00
7F83FC00
7FC7FC00
7FFFFC00
3FFFF800
1FFFF800
0FFFF000
07FFE000
03FF8000
007C0000
00000000
00000000
00000000
00000000
00380000
00FE0000
00FE0000
01FF0000
01FF0000
01FF0000
00FE0000
00FE0000
00380000
ENDCHAR
STARTCHAR 1EF2
ENCODING 7922
SWIDTH 520 0
DWIDTH 26 0
BBX 23 45 2 0
BITMAP
07E000
03E000
01F000
01F000
00F800
007800
000000
000000
000000
000000
FF01FE
FF01FE
FF01FE
FF01FE
FF01FE
FF01FE
FF01FE
FF01FE
FF01FE
FF01FE
FF01FE
FF01FE
FF01FE
FF01FE
FF01FE
FF01FE
FF01FE
FF01FC
FF03FC
7F83FC
7FFFFC
3FFFF8
3FFFF8
1FFFF0
0FFFE0
07FF80
01FE00
00FE00
00FE00
00FE00
00FE00
00FE00
00FE00
00FE00
00FE00
ENDCHAR
STARTCHAR 1EF3
ENCODING 7923
SWIDTH 520 0
DWIDTH 26 0
BBX 23 45 2 0
BITMAP
07E000
03E000
01F000
01F000
00F800
007800
000000
000000
000000
000000
FF01FE
FF01FE
FF01FE
FF01FE
FF01FE
FF01FE
FF01FE
FF01FE
FF01FE
FF01FE
FF01FE
FF01FE
FF01FE
FF01FE
FF01FE
FF01FE
FF01FE
FF01FC
FF03FC
7F83FC
7FFFFC
3FFFF8
3FFFF8
1FFFF0
0FFFE0
07FF80
01FE00
00FE00
00FE00
00FE00
00FE00
00FE00
00FE00
00FE00
00FE00
ENDCHAR
STARTCHAR 1EF4
ENCODING 7924
SWIDTH 520 0
DWIDTH 26 0
BBX 23 49 2 -14
BITMAP
FF01FE
FF01FE
FF01FE
FF01FE
FF01FE
FF01FE
FF01FE
FF01FE
FF01FE
FF01FE
FF01FE
FF01FE
FF01FE
FF01FE
FF01FE
FF01FE
FF01FE
FF01FC
FF03FC
7F83FC
7FFFFC
3FFFF8
3FFFF8
1FFFF0
0FFFE0
07FF80
01FE00
00FE00
00FE00
00FE00
00FE00
00FE00
00FE00
00FE00
00FE00
000000
000000
000000
000000
000000
003800
00FE00
00FE00
01FF00
01FF00
01FF00
00FE00
00FE00
003800
ENDCHAR
STARTCHAR 1EF5
ENCODING 7925
SWIDTH 520 0
DWIDTH 26 0
BBX 23 49 2 -14
BITMAP
FF01FE
FF01FE
FF01FE
FF01FE
FF01FE
FF01FE
FF01FE
FF01FE
FF01FE
FF01FE
FF01FE
FF01FE
FF01FE
FF01FE
FF01FE
FF01FE
FF01FE
FF01FC
FF03FC
7F83FC
7FFFFC
3FFFF8
3FFFF8
1FFFF0
0FFFE0
07FF80
01FE00
00FE00
00FE00
00FE00
00FE00
00FE00
00FE00
00FE00
00FE00
000000
000000
000000
000000
000000
003800
00FE00
00FE00
01FF00
01FF00
01FF00
00FE00
00FE00
003800
ENDCHAR
STARTCHAR 1EF6
ENCODING 7926
SWIDTH 520 0
DWIDTH 26 0
BBX 23 47 2 0
BITMAP
007C00
003C00
003C00
007C00
007800
00F800
00F800
007800
007800
000000
000000
000000
FF01FE
FF01FE
FF01FE
FF01FE
FF01FE
FF01FE
FF01FE
FF01FE
FF01FE
FF01FE
FF01FE
FF01FE
FF01FE
FF01FE
FF01FE
FF01FE
FF01FE
FF01FC
FF03FC
7F83FC
7FFFFC
3FFFF8
3FFFF8
1FFFF0
0FFFE0
07FF80
01FE00
00FE00
00FE00
00FE00
00FE00
00FE00
00FE00
00FE00
00FE00
ENDCHAR
STARTCHAR 1EF7
ENCODING 7927
SWIDTH 520 0
DWIDTH 26 0
BBX 23 47 2 0
BITMAP
007C00
003C00
003C00
007C00
007800
00F800
00F800
007800
007800
000000
000000
000000
FF01FE
FF01FE
FF01FE
FF01FE
FF01FE
FF01FE
FF01FE
FF01FE
FF01FE
FF01FE
FF01FE
FF01FE
FF01FE
FF01FE
FF01FE
FF01FE
FF01FE
FF01FC
FF03FC
7F83FC
7FFFFC
3FFFF8
3FFFF8
1FFFF0
0FFFE0
07FF80
01FE00
00FE00
00FE00
00FE00
00FE00
00FE00
00FE00
00FE00
00FE00
ENDCHAR
STARTCHAR 1EF8
ENCODING 7928
SWIDTH 520 0
DWIDTH 26 0
BBX 23 45 2 0
BITMAP
03C000
07FF80
07FF80
07FF80
07FF80
000E00
000000
000000
000000
000000
FF01FE
FF01FE
FF01FE
FF01FE
FF01FE
FF01FE
FF01FE
FF01FE
FF01FE
FF01FE
FF01FE
FF01FE
FF01FE
FF01FE
FF01FE
FF01FE
FF01FE
FF01FC
FF03FC
7F83FC
7FFFFC
3FFFF8
3FFFF8
1FFFF0
0FFFE0
07FF80
01FE00
00FE00
00FE00
00FE00
00FE00
00FE00
00FE00
00FE00
00FE00
ENDCHAR
STARTCHAR 1EF9
ENCODING 7929
SWIDTH 520 0
DWIDTH 26 0
BBX 23 45 2 0
BITMAP
03C000
07FF80
07FF80
07FF80
07FF80
000E00
000000
000000
000000
000000
FF01FE
FF01FE
FF01FE
FF01FE
FF01FE
FF01FE
FF01FE
FF01FE
FF01FE
FF01FE
FF01FE
FF01FE
FF01FE
FF01FE
FF01FE
FF01FE
FF01FE
FF01FC
FF03FC
7F83FC
7FFFFC
3FFFF8
3FFFF8
1FFFF0
0FFFE0
07FF80
01FE00
00FE00
00FE00
00FE00
00FE00
00FE00
00FE00
00FE00
00FE00
ENDCHAR
STARTCHAR 2013
ENCODING 8211
SWIDTH 560 0
DWIDTH 28 0
BBX 23 5 3 10
BITMAP
FFFFFE
FFFFFE
FFFFFE
FFFFFE
FFFFFE
ENDCHAR
STARTCHAR 2014
ENCODING 8212
SWIDTH 840 0
DWIDTH 42 0
BBX 36 5 3 10
BITMAP
FFFFFFFFF0
FFFFFFFFF0
FFFFFFFFF0
FFFFFFFFF0
FFFFFFFFF0
ENDCHAR
STARTCHAR 2018
ENCODING 8216
SWIDTH 260 0
DWIDTH 13 0
BBX 7 10 3 25
BITMAP
1E
1E
1E
3E
3E
7C
7C
7C
FC
FC
ENDCHAR
STARTCHAR 2019
ENCODING 8217
SWIDTH 260 0
DWIDTH 13 0
BBX 7 10 3 25
BITMAP
3E
3E
7E
7C
7C
7C
F8
F8
F0
F0
ENDCHAR
STARTCHAR 201A
ENCODING 8218
SWIDTH 260 0
DWIDTH 13 0
BBX 7 10 3 -6
BITMAP
3E
3E
7E
7C
7C
7C
78
F8
F8
F0
ENDCHAR
STARTCHAR 201C
ENCODING 8220
SWIDTH 440 0
DWIDTH 22 0
BBX 17 10 3 25
BITMAP
1F0780
1E0F80
1E0F00
3E1F00
3E1F00
3E1F00
7C3F00
7C3E00
FC3E00
FC7E00
ENDCHAR
STARTCHAR 201D
ENCODING 8221
SWIDTH 440 0
DWIDTH 22 0
BBX 17 10 3 25
BITMAP
3E1F80
3E1F00
7E3F00
7C3F00
7C3E00
7C3E00
F83C00
F87C00
F07C00
F07800
ENDCHAR
STARTCHAR 201E
ENCODING 8222
SWIDTH 460 0
DWIDTH 23 0
BBX 18 10 3 -6
BITMAP
3E0FC0
3E0F80
7E1F80
7C1F80
7C1F00
7C1F00
781E00
F83E00
F83E00
F03C00
ENDCHAR
STARTCHAR 2020
ENCODING 8224
SWIDTH 420 0
DWIDTH 21 0
BBX 16 25 3 11
BITMAP
07E0
07E0
07E0
07E0
FFFF
FFFF
FFFF
FFFF
FFFF
07E0
07E0
07E0
07E0
07E0
07E0
07E0
07E0
07E0
07E0
07E0
07E0
07E0
07E0
07E0
07E0
ENDCHAR
STARTCHAR 2021
ENCODING 8225
SWIDTH 420 0
DWIDTH 21 0
BBX 16 25 3 11
BITMAP
07E0
07E0
07E0
07E0
FFFF
FFFF
FFFF
FFFF
FFFF
07E0
07E0
07E0
07E0
07E0
07E0
07E0
FFFF
FFFF
FFFF
FFFF
07E0
07E0
07E0
07E0
07E0
ENDCHAR
STARTCHAR 2022
ENCODING 8226
SWIDTH 340 0
DWIDTH 17 0
BBX 12 11 3 9
BITMAP
1F00
3FC0
7FE0
FFE0
FFE0
FFF0
FFE0
FFE0
7FE0
7FC0
3F80
ENDCHAR
STARTCHAR 2026
ENCODING 8230
SWIDTH 740 0
DWIDTH 37 0
BBX 32 9 3 -1
BITMAP
3C03C038
7E07E0FE
FF0FF0FE
FF0FF1FF
FF0FF1FF
FF0FF1FF
FF0FF0FE
7E07E0FE
18018038
ENDCHAR
STARTCHAR 2030
ENCODING 8240
SWIDTH 1380 0
DWIDTH 69 0
BBX 64 37 3 -1
BITMAP
03F0000000000000
0FFC0003F0000000
1FFE0007E0000000
3FFF0007C0000000
7FFF800FC0000000
7FFFC01F80000000
FE1FC03F00000000
FC0FC03E00000000
FC0FC07E00000000
FC0FC0FC00000000
FC0FC0F800000000
FE1FC1F800000000
7FFF83F000000000
7FFF83E000000000
3FFF07E000000000
1FFE0FC000000000
0FFC1F8000000000
00C01F0000000000
00003F0000000000
00007E03F0001F80
00007C0FFC007FF0
0000FC3FFE00FFF8
0001F83FFF01FFFC
0001F07FFF83FFFC
0003F0FF3F83FDFE
0007E0FC1FC3F07E
000FC0FC0FC7E07E
000F80FC0FC7E03F
001F80FC0FC7E03F
003F00FC0FC7E07E
003E00FE1FC3F07E
007E007FFF83FFFE
00FC007FFF81FFFC
00F8003FFF01FFFC
01F8001FFE00FFF8
03F0000FFC003FE0
00000000C0000200
ENDCHAR
STARTCHAR 2039
ENCODING 8249
SWIDTH 400 0
DWIDTH 20 0
BBX 15 22 3 4
BITMAP
00FC
01F8
03F8
07F0
07E0
0FC0
1FC0
3F80
3F00
7E00
FE00
FE00
7F00
3F80
1F80
1FC0
0FE0
07F0
03F0
01F8
01FC
00FE
ENDCHAR
STARTCHAR 203A
ENCODING 8250
SWIDTH 400 0
DWIDTH 20 0
BBX 15 22 3 4
BITMAP
FE00
7F00
3F80
1FC0
1FC0
0FE0
07F0
03F8
01F8
01FC
00FE
00FC
01FC
03F8
03F0
07E0
0FE0
1FC0
3F80
3F00
7E00
FE00
ENDCHAR
STARTCHAR 2044
ENCODING 8260
SWIDTH 700 0
DWIDTH 35 0
BBX 29 35 3 0
BITMAP
000000F8
000001F8
000003F0
000003E0
000007E0
00000FC0
00001F80
00001F00
00003F00
00007E00
00007C00
0000FC00
0001F800
0001F000
0003F000
0007E000
000FC000
000F8000
001F8000
003F0000
003E0000
007E0000
00FC0000
00F80000
01F80000
03F00000
07E00000
07C00000
0FC00000
1F800000
1F000000
3F000000
7E000000
7C000000
FC000000
ENDCHAR
STARTCHAR 20AC
ENCODING 8364
SWIDTH 640 0
DWIDTH 32 0
BBX 27 37 3 -1
BITMAP
00000F80
0000FFE0
0003FFE0
000FFFE0
001FFFE0
003FFFE0
007FFFE0
00FFFFE0
01FFC000
03FF0000
03FE0000
07FC0000
07F80000
FFFFFE00
FFFFFE00
FFFFFE00
FFFFFE00
0FF00000
0FF00000
0FF00000
FFFFFE00
FFFFFE00
FFFFFE00
FFFFFE00
07F80000
07FC0000
03FE0000
03FF0000
01FFC000
00FFFFE0
007FFFE0
003FFFE0
001FFFE0
000FFFE0
0003FFE0
0000FFE0
00001F80
ENDCHAR
STARTCHAR 2122
ENCODING 8482
SWIDTH 860 0
DWIDTH 43 0
BBX 37 20 3 16
BITMAP
FFFC010000
FFFE01C0F8
FFFF81E0F8
FFFFC1F8F8
FFFFF1FCF8
0F87F9FFF8
0F83FFFFF8
0F83FFFFF8
0F83FFFFF8
0F83FFF7F8
0F83EFF1F8
0F83E3F0F8
0F83E1F0F8
0F83E1F0F8
0F83E1F0F8
0F83E1F0F8
0F83E1F0F8
0F83E1F0F8
0F83E1F0F8
0F83E1F0F8
ENDCHAR
STARTCHAR 2190
ENCODING 8592
SWIDTH 820 0
DWIDTH 41 0
BBX 36 26 3 5
BITMAP
000C000000
001E000000
003F000000
007F800000
00FF000000
01FE000000
03FC000000
07F8000000
0FF0000000
1FE0000000
3FFFFFFFF0
7FFFFFFFF0
FFFFFFFFF0
FFFFFFFFF0
7FFFFFFFF0
3FFFFFFFF0
1FE0000000
0FF0000000
07F8000000
03FC000000
01FE000000
00FF000000
007F800000
003F000000
001E000000
000C000000
ENDCHAR
STARTCHAR 2191
ENCODING 8593
SWIDTH 640 0
DWIDTH 32 0
BBX 26 36 3 0
BITMAP
00040000
000E0000
001F0000
003F8000
007FC000
00FFE000
01FFF000
03FFF800
07FFFC00
0FFFFE00
1FFFFF00
3FBF7F80
7F3F3FC0
FE3F1FC0
7C3F0F80
383F0700
103F0200
003F0000
003F0000
003F0000
003F0000
003F0000
003F0000
003F0000
003F0000
003F0000
003F0000
003F0000
003F0000
003F0000
003F0000
003F0000
003F0000
003F0000
003F0000
003F0000
ENDCHAR
STARTCHAR 2192
ENCODING 8594
SWIDTH 820 0
DWIDTH 41 0
BBX 35 26 3 5
BITMAP
0000020000
0000070000
00000F8000
00001FC000
00000FE000
000007F000
000003F800
000001FC00
000000FE00
0000007F00
FFFFFFFF80
FFFFFFFFC0
FFFFFFFFE0
FFFFFFFFE0
FFFFFFFFC0
FFFFFFFF80
0000007F00
000000FE00
000001FC00
000003F800
000007F000
00000FE000
00001FC000
00000F8000
0000070000
0000020000
ENDCHAR
STARTCHAR 2193
ENCODING 8595
SWIDTH 640 0
DWIDTH 32 0
BBX 26 36 3 -1
BITMAP
003F0000
003F0000
003F0000
003F0000
003F0000
003F0000
003F0000
003F0000
003F0000
003F0000
003F0000
003F0000
003F0000
003F0000
003F0000
003F0000
003F0000
003F0000
003F0000
103F0200
383F0700
7C3F0F80
FE3F1FC0
7F3F3FC0
3FBF7F80
1FFFFF00
0FFFFE00
07FFFC00
03FFF800
01FFF000
00FFE000
007FC000
003F8000
001F0000
000E0000
00040000
ENDCHAR
STARTCHAR 2194
ENCODING 8596
SWIDTH 940 0
DWIDTH 47 0
BBX 41 26 3 5
BITMAP
000C00080000
001E001C0000
003F003E0000
007F807F0000
00FF003F8000
01FE001FC000
03FC000FE000
07F80007F000
0FF00003F800
1FE00001FC00
3FFFFFFFFE00
7FFFFFFFFF00
FFFFFFFFFF80
FFFFFFFFFF80
7FFFFFFFFF00
3FFFFFFFFE00
1FE00001FC00
0FF00003F800
07F80007F000
03FC000FE000
01FE001FC000
00FF003F8000
007F807F0000
003F003E0000
001E001C0000
000C00080000
ENDCHAR
STARTCHAR 2195
ENCODING 8597
SWIDTH 700 0
DWIDTH 35 0
BBX 30 37 3 -1
BITMAP
00020000
00078000
001FC000
003FE000
007FF800
01FFFC00
03FFFE00
07FFFF80
0FFFFFC0
3FEFFFE0
7FCFCFF8
FF0FC7FC
7E0FC3F8
7C0FC0F0
380FC060
000FC020
000FC000
000FC000
000FC000
000FC000
000FC000
000FC020
380FC060
7C0FC0F0
7E0FC3F8
FF0FC7FC
7FCFCFF8
3FEFFFE0
0FFFFFC0
07FFFF80
03FFFE00
00FFFC00
007FF800
003FE000
001FC000
00078000
00020000
ENDCHAR
STARTCHAR 2196
ENCODING 8598
SWIDTH 660 0
DWIDTH 33 0
BBX 28 28 3 3
BITMAP
FFFFE000
FFFFE000
FFFFE000
FFFFE000
FFFFE000
FF800000
FFC00000
FFE00000
FFF00000
FFF80000
FBFE0000
F9FF0000
F8FF8000
F87FC000
F83FE000
F81FF000
F80FF800
F807FC00
F803FE00
0001FF00
0000FF80
00007FC0
00003FE0
00001FF0
00000FE0
000007C0
00000380
00000100
ENDCHAR
STARTCHAR 2197
ENCODING 8599
SWIDTH 660 0
DWIDTH 33 0
BBX 28 28 3 3
BITMAP
007FFFF0
007FFFF0
007FFFF0
007FFFF0
007FFFF0
00003FF0
00007FF0
0000FFF0
0001FFF0
0003FFF0
0007FBF0
000FF3F0
001FF3F0
003FE3F0
007FC3F0
00FF83F0
01FF03F0
03FE03F0
07FC03F0
0FF80000
1FF00000
3FE00000
7FC00000
FF800000
7F000000
3E000000
1C000000
08000000
ENDCHAR
STARTCHAR 2198
ENCODING 8600
SWIDTH 660 0
DWIDTH 33 0
BBX 28 28 3 3
BITMAP
08000000
1C000000
3E000000
7F000000
FF800000
7F800000
3FC00000
1FE00000
0FF00000
07F803F0
03FC03F0
01FE03F0
00FF03F0
007F83F0
003FC3F0
001FE3F0
000FF3F0
0007FBF0
0003FFF0
0001FFF0
0000FFF0
00007FF0
00003FF0
007FFFF0
007FFFF0
007FFFF0
007FFFF0
007FFFF0
ENDCHAR
STARTCHAR 2199
ENCODING 8601
SWIDTH 660 0
DWIDTH 33 0
BBX 27 27 3 4
BITMAP
00000300
00000780
00000FC0
00001FE0
00003FE0
00007FC0
0000FF80
0001FF00
F803FE00
F807FC00
F80FF800
F81FF000
F83FE000
F87FC000
F8FF8000
F9FF0000
FBFE0000
FFFC0000
FFF80000
FFF00000
FFE00000
FFC00000
FFFFE000
FFFFE000
FFFFE000
FFFFE000
FFFFE000
ENDCHAR
STARTCHAR 2202
ENCODING 8706
SWIDTH 620 0
DWIDTH 31 0
BBX 25 39 3 -1
BITMAP
00C00000
00F00000
01FC0000
01FE0000
03FF8000
03FFC000
07FFE000
01FFF000
007FF800
001FF800
000FFC00
0007FE00
0003FE00
0001FF00
0000FF00
00F8FF00
03FF7F80
0FFFFF80
1FFFFF80
3FFFFF80
3FFFFF80
7FFFFF80
7FE3FF80
FF80FF80
FF007F80
FF007F80
FF007F80
FF007F80
FF00FF00
FF00FF00
FF81FF00
7FFFFE00
7FFFFE00
3FFFFC00
3FFFF800
1FFFF000
07FFE000
03FF8000
003C0000
ENDCHAR
STARTCHAR 2205
ENCODING 8709
SWIDTH 740 0
DWIDTH 37 0
BBX 31 31 3 3
BITMAP
001FF00C
00FFFE1E
01FFFFBE
07FC3FFC
0FE007F8
0F8001F0
1F0003F8
3E0007F8
3C000FFC
78001F3C
78003E3E
78007C1E
F000F81E
F001F01E
F003E01E
F007C01E
F00F801E
F01F001E
783E001E
787C003C
78F8003C
3DF0007C
3FE00078
1FC000F8
0F8001F0
1FE007E0
3FFC3FC0
7DFFFF80
F87FFE00
701FF800
20000000
ENDCHAR
STARTCHAR 220F
ENCODING 8719
SWIDTH 660 0
DWIDTH 33 0
BBX 28 41 3 -5
BITMAP
FFFFFFF0
FFFFFFF0
FFFFFFF0
FFFFFFF0
FFFFFFF0
FFFFFFF0
1FC03F00
1FC03F00
1FC03F00
1FC03F00
1FC03F00
1FC03F00
1FC03F00
1FC03F00
1FC03F00
1FC03F00
1FC03F00
1FC03F00
1FC03F00
1FC03F00
1FC03F00
1FC03F00
1FC03F00
1FC03F00
1FC03F00
1FC03F00
1FC03F00
1FC03F00
1FC03F00
1FC03F00
1FC03F00
1FC03F00
1FC03F00
1FC03F00
1FC03F00
1FC03F00
1FC03F00
1FC03F00
1FC03F00
1FC03F00
1FC03F00
ENDCHAR
STARTCHAR 2211
ENCODING 8721
SWIDTH 500 0
DWIDTH 25 0
BBX 20 41 3 -5
BITMAP
FFFFF0
FFFFF0
FFFFF0
FFFFF0
FFFFF0
FFFFF0
FF0000
7F0000
3F8000
3FC000
1FC000
1FE000
0FE000
0FF000
07F000
03F800
03F800
01FC00
01FE00
00FE00
00FF00
00FE00
01FE00
01FC00
03F800
03F800
07F000
0FF000
0FE000
1FE000
1FC000
3F8000
3F8000
7F0000
FF0000
FE0000
FFFFF0
FFFFF0
FFFFF0
FFFFF0
FFFFF0
ENDCHAR
STARTCHAR 2212
ENCODING 8722
SWIDTH 580 0
DWIDTH 29 0
BBX 23 5 3 14
BITMAP
FFFFFE
FFFFFE
FFFFFE
FFFFFE
FFFFFE
ENDCHAR
STARTCHAR 221A
ENCODING 8730
SWIDTH 740 0
DWIDTH 37 0
BBX 32 41 3 -5
BITMAP
00001FFF
00001FFF
00001FFF
00001FFF
00003FFF
00003FFF
00003F00
00007F00
00007F00
00007F00
00007E00
0000FE00
0000FE00
0000FC00
0000FC00
0001FC00
0001FC00
0001F800
0003F800
0003F800
0003F000
FE03F000
7E07F000
7F07E000
7F07E000
3F07E000
3F8FE000
3F8FC000
1F8FC000
1FDFC000
1FDF8000
0FDF8000
0FDF8000
0FFF8000
07FF0000
07FF0000
07FF0000
03FE0000
03FE0000
03FE0000
01FE0000
ENDCHAR
STARTCHAR 221E
ENCODING 8734
SWIDTH 840 0
DWIDTH 42 0
BBX 37 18 3 9
BITMAP
0080000800
0FF800FF00
1FFE03FFC0
3FFF07FFE0
7FFF8FFFF0
7C1FDFC3F0
F807FF00F8
F803FE00F8
F001FC0078
F001FC0078
F003FE00F8
F807FF00F8
FC0FFF81F0
7FFFDFFFF0
7FFF8FFFE0
3FFF07FFC0
0FFC01FF80
03F0007E00
ENDCHAR
STARTCHAR 222B
ENCODING 8747
SWIDTH 540 0
DWIDTH 27 0
BBX 22 42 3 -6
BITMAP
0001FC
0007FC
000FFC
001FFC
001FFC
003FC0
003F80
003F00
003F00
007F00
007F00
007E00
007E00
007E00
007E00
00FE00
00FC00
00FC00
00FC00
00FC00
00FC00
01FC00
01F800
01F800
01F800
01F800
01F800
03F800
03F000
03F000
03F000
03F000
07F000
07F000
07E000
0FE000
1FE000
FFC000
FFC000
FF8000
FE0000
E00000
ENDCHAR
STARTCHAR 2248
ENCODING 8776
SWIDTH 560 0
DWIDTH 28 0
BBX 22 18 3 7
BITMAP
FFC000
FFFFFC
FFFFFC
FFFFFC
FFFFFC
80FFFC
0007F0
000000
000000
000000
000000
FFE000
FFFFFC
FFFFFC
FFFFFC
FFFFFC
807FFC
0003F0
ENDCHAR
STARTCHAR 2260
ENCODING 8800
SWIDTH 580 0
DWIDTH 29 0
BBX 23 27 3 3
BITMAP
0007E0
000FC0
000FC0
000F80
001F80
FFFFFE
FFFFFE
FFFFFE
FFFFFE
FFFFFE
FFFFFE
007C00
00FC00
00FC00
00F800
01F800
FFFFFE
FFFFFE
FFFFFE
FFFFFE
FFFFFE
FFFFFE
07C000
0FC000
0FC000
0F8000
1F8000
ENDCHAR
STARTCHAR 2264
ENCODING 8804
SWIDTH 580 0
DWIDTH 29 0
BBX 23 23 3 4
BITMAP
00000E
0001FE
001FFE
03FFFE
7FFFFE
FFFFF0
FFFE00
FF8000
FFF000
FFFF80
FFFFFC
1FFFFE
01FFFE
000FFE
00007E
000002
000000
000000
FFFFFE
FFFFFE
FFFFFE
FFFFFE
FFFFFE
ENDCHAR
STARTCHAR 2265
ENCODING 8805
SWIDTH 580 0
DWIDTH 29 0
BBX 23 23 3 4
BITMAP
E00000
FF0000
FFF800
FFFF80
FFFFFC
1FFFFE
00FFFE
0007FE
000FFE
01FFFE
3FFFFE
FFFFF8
FFFF00
FFE000
FC0000
C00000
000000
000000
FFFFFE
FFFFFE
FFFFFE
FFFFFE
FFFFFE
ENDCHAR
STARTCHAR 25CA
ENCODING 9674
SWIDTH 540 0
DWIDTH 27 0
BBX 21 30 3 3
BITMAP
01FC00
01FE00
03FE00
03FF00
07FF00
07DF80
0FDF80
0F8FC0
1F8FC0
1F07E0
3F07E0
3E03F0
7E03F0
7C01F8
FC01F8
FC01F8
7E01F8
7E03F0
3F03F0
3F07E0
1F87E0
1F8FC0
0FCFC0
0FDF80
07FF80
07FF00
03FF00
03FE00
01FE00
01FC00
ENDCHAR
ENDFONT
